<?xml version="1.0" encoding="utf-8" ?>
<svg baseProfile="full" height="91" version="1.1" viewBox="-0.5 -0.5 121 91" width="121" xmlns="http://www.w3.org/2000/svg" xmlns:ev="http://www.w3.org/2001/xml-events" xmlns:xlink="http://www.w3.org/1999/xlink"><defs><marker id="arrow-head" markerHeight="6.0" markerWidth="3.63" orient="auto" refX="3.5999999999999996" refY="3.0"><polyline fill="none" points="0.75,0.75 3.0,3.0 0.75,5.25" stroke="black" /></marker></defs><g fill="none" stroke="black" stroke-width="1"><rect height="90" width="120" x="0" y="0" /><circle cx="45.0" cy="24.0" r="15.0px" /><circle cx="45.0" cy="66.0" r="15.0px" /><circle cx="90" cy="24.0" r="15.0px" /><circle cx="0" cy="15.0" r="3.75px" /><circle cx="0" cy="45.0" r="3.75px" /><circle cx="0" cy="75.0" r="3.75px" /><circle cx="120" cy="15.0" fill="black" r="3.75px" /><line stroke="white" stroke-width="5" x1="3.6771775338409505" x2="30.2912898646362" y1="15.73543550676819" y2="21.05825797292724" /><line marker-end="url(#arrow-head)" x1="3.6771775338409505" x2="30.2912898646362" y1="15.73543550676819" y2="21.05825797292724" /><line stroke="white" stroke-width="5" x1="2.4810811390756737" x2="35.07567544369731" y1="17.8118919576191" y2="54.752432169523615" /><line marker-end="url(#arrow-head)" x1="2.4810811390756737" x2="35.07567544369731" y1="17.8118919576191" y2="54.752432169523615" /><line stroke="white" stroke-width="5" x1="3.398186774982245" x2="31.407252900071015" y1="46.585820494991715" y2="59.656718020033146" /><line marker-end="url(#arrow-head)" x1="3.398186774982245" x2="31.407252900071015" y1="46.585820494991715" y2="59.656718020033146" /><line stroke="white" stroke-width="5" x1="3.677177533840951" x2="30.291289864636195" y1="74.26456449323182" y2="68.94174202707276" /><line marker-end="url(#arrow-head)" x1="3.677177533840951" x2="30.291289864636195" y1="74.26456449323182" y2="68.94174202707276" /><line stroke="white" stroke-width="5" x1="104.36739427831728" x2="116.40815143042067" y1="19.689781716504818" y2="16.077554570873797" /><line marker-end="url(#arrow-head)" x1="104.36739427831728" x2="116.40815143042067" y1="19.689781716504818" y2="16.077554570873797" /><line stroke="white" stroke-width="5" x1="60.0" x2="75.0" y1="24.0" y2="24.000000000000004" /><line marker-end="url(#arrow-head)" x1="60.0" x2="75.0" y1="24.0" y2="24.000000000000004" /><line stroke="white" stroke-width="5" x1="45.0" x2="45.0" y1="39.0" y2="51.00000000000001" /><line marker-end="url(#arrow-head)" x1="45.0" x2="45.0" y1="39.0" y2="51.00000000000001" /><line stroke="white" stroke-width="5" x1="55.96582902364304" x2="79.03417097635696" y1="55.76522624459984" y2="34.23477375540017" /><line marker-end="url(#arrow-head)" x1="55.96582902364304" x2="79.03417097635696" y1="55.76522624459984" y2="34.23477375540017" /></g></svg>