<?xml version="1.0" encoding="utf-8" ?>
<svg baseProfile="full" height="196.0" version="1.1" viewBox="-0.5 -0.5 181.0 196.0" width="181.0" xmlns="http://www.w3.org/2000/svg" xmlns:ev="http://www.w3.org/2001/xml-events" xmlns:xlink="http://www.w3.org/1999/xlink"><defs><marker id="arrow-head" markerHeight="6.0" markerWidth="3.63" orient="auto" refX="3.5999999999999996" refY="3.0"><polyline fill="none" points="0.75,0.75 3.0,3.0 0.75,5.25" stroke="black" /></marker></defs><g fill="none" stroke="black" stroke-width="1"><rect height="195.0" width="180.0" x="0" y="0" /><circle cx="67.5" cy="30.0" r="15.0px" /><circle cx="112.5" cy="30.0" r="15.0px" /><circle cx="112.5" cy="75.0" r="15.0px" /><circle cx="0" cy="30.0" r="3.75px" /><circle cx="0" cy="75.0" r="3.75px" /><circle cx="0" cy="120.0" r="3.75px" /><circle cx="180.0" cy="30.0" fill="black" r="3.75px" /><line stroke="white" stroke-width="5" x1="3.75" x2="52.5" y1="30.0" y2="30.0" /><line marker-end="url(#arrow-head)" x1="3.75" x2="52.5" y1="30.0" y2="30.0" /><polyline points="3.120188603766914,32.080125735844604 67.5,75.0 101.89339828220179,40.60660171779821" stroke="white" stroke-width="3" /><polyline marker-end="url(#arrow-head)" points="3.120188603766914,32.080125735844604 67.5,75.0 101.89339828220179,40.60660171779821" /><polyline points="3.120188603766914,77.08012573584462 67.5,120.0 105.79179606750063,43.41640786499874" stroke="white" stroke-width="3" /><polyline marker-end="url(#arrow-head)" points="3.120188603766914,77.08012573584462 67.5,120.0 105.79179606750063,43.41640786499874" /><polyline points="3.120188603766914,122.0801257358446 67.5,165.0 107.75658350974743,44.23024947075771" stroke="white" stroke-width="3" /><polyline marker-end="url(#arrow-head)" points="3.120188603766914,122.0801257358446 67.5,165.0 107.75658350974743,44.23024947075771" /><line stroke="white" stroke-width="5" x1="124.98075441506765" x2="176.87981139623307" y1="66.67949705662156" y2="32.080125735844604" /><line marker-end="url(#arrow-head)" x1="124.98075441506765" x2="176.87981139623307" y1="66.67949705662156" y2="32.080125735844604" /><line stroke="white" stroke-width="5" x1="82.5" x2="97.5" y1="30.0" y2="30.0" /><line marker-end="url(#arrow-head)" x1="82.5" x2="97.5" y1="30.0" y2="30.0" /><line stroke="white" stroke-width="5" x1="78.10660171779821" x2="101.89339828220179" y1="40.60660171779821" y2="64.39339828220179" /><line marker-end="url(#arrow-head)" x1="78.10660171779821" x2="101.89339828220179" y1="40.60660171779821" y2="64.39339828220179" /><line stroke="white" stroke-width="5" x1="112.5" x2="112.5" y1="45.0" y2="60.0" /><line marker-end="url(#arrow-head)" x1="112.5" x2="112.5" y1="45.0" y2="60.0" /></g></svg>