<?xml version="1.0" encoding="utf-8" ?>
<svg baseProfile="full" height="106.0" version="1.1" viewBox="-0.5 -0.5 151.0 106.0" width="151.0" xmlns="http://www.w3.org/2000/svg" xmlns:ev="http://www.w3.org/2001/xml-events" xmlns:xlink="http://www.w3.org/1999/xlink"><defs><marker id="arrow-head" markerHeight="6.0" markerWidth="3.63" orient="auto" refX="3.5999999999999996" refY="3.0"><polyline fill="none" points="0.75,0.75 3.0,3.0 0.75,5.25" stroke="black" /></marker></defs><g fill="none" stroke="black" stroke-width="1"><rect height="105.0" width="150.0" x="0" y="0" /><circle cx="52.5" cy="30.0" r="15.0px" /><circle cx="97.5" cy="30.0" r="15.0px" /><circle cx="97.5" cy="75.0" r="15.0px" /><circle cx="0" cy="30.0" r="3.75px" /><circle cx="0" cy="75.0" r="3.75px" /><circle cx="0" cy="120.0" r="3.75px" /><circle cx="150.0" cy="30.0" fill="black" r="3.75px" /><line stroke="white" stroke-width="5" x1="3.75" x2="37.5" y1="30.0" y2="30.0" /><line marker-end="url(#arrow-head)" x1="3.75" x2="37.5" y1="30.0" y2="30.0" /><line stroke="white" stroke-width="5" x1="3.75" x2="82.5" y1="30.0" y2="30.0" /><line marker-end="url(#arrow-head)" x1="3.75" x2="82.5" y1="30.0" y2="30.0" /><line stroke="white" stroke-width="5" x1="3.404847691876694" x2="83.88060923249323" y1="73.42853183451845" y2="36.2858726619262" /><line marker-end="url(#arrow-head)" x1="3.404847691876694" x2="83.88060923249323" y1="73.42853183451845" y2="36.2858726619262" /><line stroke="white" stroke-width="5" x1="2.7555129173530797" x2="86.47794833058768" y1="117.45644961475101" y2="40.17420154099598" /><line marker-end="url(#arrow-head)" x1="2.7555129173530797" x2="86.47794833058768" y1="117.45644961475101" y2="40.17420154099598" /><line stroke="white" stroke-width="5" x1="108.88884903547945" x2="147.15278774113014" y1="65.23812939816048" y2="32.44046765045988" /><line marker-end="url(#arrow-head)" x1="108.88884903547945" x2="147.15278774113014" y1="65.23812939816048" y2="32.44046765045988" /><line stroke="white" stroke-width="5" x1="67.5" x2="82.5" y1="30.0" y2="30.0" /><line marker-end="url(#arrow-head)" x1="67.5" x2="82.5" y1="30.0" y2="30.0" /><line stroke="white" stroke-width="5" x1="63.10660171779822" x2="86.89339828220179" y1="40.60660171779821" y2="64.39339828220179" /><line marker-end="url(#arrow-head)" x1="63.10660171779822" x2="86.89339828220179" y1="40.60660171779821" y2="64.39339828220179" /><line stroke="white" stroke-width="5" x1="97.5" x2="97.5" y1="45.0" y2="60.0" /><line marker-end="url(#arrow-head)" x1="97.5" x2="97.5" y1="45.0" y2="60.0" /></g></svg>