<?xml version="1.0" encoding="utf-8" ?>
<svg baseProfile="full" height="1096.0" version="1.1" viewBox="-0.5 -0.5 1156.0 1096.0" width="1156.0" xmlns="http://www.w3.org/2000/svg" xmlns:ev="http://www.w3.org/2001/xml-events" xmlns:xlink="http://www.w3.org/1999/xlink"><defs><marker id="arrow-head" markerHeight="6.0" markerWidth="3.63" orient="auto" refX="3.5999999999999996" refY="3.0"><polyline fill="none" points="0.75,0.75 3.0,3.0 0.75,5.25" stroke="black" /></marker></defs><g fill="none" stroke="black" stroke-width="1"><rect height="1095.0" width="1155.0" x="0" y="0" /><circle cx="105.0" cy="30.0" r="15.0px" /><circle cx="195.0" cy="120.0" r="15.0px" /><circle cx="195.0" cy="165.0" r="15.0px" /><circle cx="195.0" cy="210.0" r="15.0px" /><circle cx="195.0" cy="345.0" r="15.0px" /><circle cx="195.0" cy="435.0" r="15.0px" /><circle cx="195.0" cy="525.0" r="15.0px" /><circle cx="195.0" cy="705.0" r="15.0px" /><circle cx="195.0" cy="795.0" r="15.0px" /><circle cx="330.0" cy="30.0" r="15.0px" /><circle cx="330.0" cy="300.0" r="15.0px" /><circle cx="330.0" cy="345.0" r="15.0px" /><circle cx="330.0" cy="435.0" r="15.0px" /><circle cx="330.0" cy="525.0" r="15.0px" /><circle cx="330.0" cy="615.0" r="15.0px" /><circle cx="330.0" cy="705.0" r="15.0px" /><circle cx="330.0" cy="795.0" r="15.0px" /><circle cx="375.0" cy="30.0" r="15.0px" /><circle cx="375.0" cy="75.0" r="15.0px" /><circle cx="420.0" cy="75.0" r="15.0px" /><circle cx="420.0" cy="120.0" r="15.0px" /><circle cx="465.0" cy="120.0" r="15.0px" /><circle cx="465.0" cy="165.0" r="15.0px" /><circle cx="510.0" cy="165.0" r="15.0px" /><circle cx="510.0" cy="210.0" r="15.0px" /><circle cx="555.0" cy="210.0" r="15.0px" /><circle cx="555.0" cy="255.0" r="15.0px" /><circle cx="600.0" cy="255.0" r="15.0px" /><circle cx="600.0" cy="300.0" r="15.0px" /><circle cx="645.0" cy="300.0" r="15.0px" /><circle cx="645.0" cy="345.0" r="15.0px" /><circle cx="690.0" cy="345.0" r="15.0px" /><circle cx="690.0" cy="390.0" r="15.0px" /><circle cx="735.0" cy="390.0" r="15.0px" /><circle cx="735.0" cy="435.0" r="15.0px" /><circle cx="780.0" cy="435.0" r="15.0px" /><circle cx="780.0" cy="480.0" r="15.0px" /><circle cx="825.0" cy="480.0" r="15.0px" /><circle cx="825.0" cy="525.0" r="15.0px" /><circle cx="870.0" cy="525.0" r="15.0px" /><circle cx="870.0" cy="570.0" r="15.0px" /><circle cx="915.0" cy="570.0" r="15.0px" /><circle cx="915.0" cy="615.0" r="15.0px" /><circle cx="960.0" cy="615.0" r="15.0px" /><circle cx="960.0" cy="660.0" r="15.0px" /><circle cx="1005.0" cy="660.0" r="15.0px" /><circle cx="1005.0" cy="705.0" r="15.0px" /><circle cx="1050.0" cy="705.0" r="15.0px" /><circle cx="0" cy="30.0" r="3.75px" /><circle cx="0" cy="75.0" r="3.75px" /><circle cx="0" cy="120.0" r="3.75px" /><circle cx="0" cy="165.0" r="3.75px" /><circle cx="0" cy="210.0" r="3.75px" /><circle cx="0" cy="255.0" r="3.75px" /><circle cx="0" cy="300.0" r="3.75px" /><circle cx="0" cy="345.0" r="3.75px" /><circle cx="0" cy="390.0" r="3.75px" /><circle cx="0" cy="435.0" r="3.75px" /><circle cx="0" cy="480.0" r="3.75px" /><circle cx="1155.0" cy="30.0" fill="black" r="3.75px" /><circle cx="1155.0" cy="75.0" fill="black" r="3.75px" /><circle cx="1155.0" cy="120.0" fill="black" r="3.75px" /><circle cx="1155.0" cy="165.0" fill="black" r="3.75px" /><circle cx="1155.0" cy="210.0" fill="black" r="3.75px" /><circle cx="1155.0" cy="255.0" fill="black" r="3.75px" /><circle cx="1155.0" cy="300.0" fill="black" r="3.75px" /><circle cx="1155.0" cy="345.0" fill="black" r="3.75px" /><circle cx="1155.0" cy="390.0" fill="black" r="3.75px" /><circle cx="1155.0" cy="435.0" fill="black" r="3.75px" /><circle cx="1155.0" cy="480.0" fill="black" r="3.75px" /><circle cx="1155.0" cy="525.0" fill="black" r="3.75px" /><circle cx="1155.0" cy="570.0" fill="black" r="3.75px" /><circle cx="1155.0" cy="615.0" fill="black" r="3.75px" /><circle cx="1155.0" cy="660.0" fill="black" r="3.75px" /><circle cx="1155.0" cy="705.0" fill="black" r="3.75px" /><line marker-end="url(#arrow-head)" x1="3.75" x2="90.0" y1="30.0" y2="30.0" /><polyline marker-end="url(#arrow-head)" points="3.4467938625677172,31.477197369671877 105.0,75.0 150.0,165.0 184.3933982822018,130.6066017177982" /><polyline marker-end="url(#arrow-head)" points="3.4467938625677172,31.477197369671877 105.0,75.0 150.0,165.0 180.0,165.0" /><polyline marker-end="url(#arrow-head)" points="3.4467938625677172,31.477197369671877 105.0,75.0 150.0,390.0 195.0,570.0 240.0,300.0 285.0,300.0 315.0,300.0" /><polyline marker-end="url(#arrow-head)" points="3.4467938625677172,31.477197369671877 105.0,75.0 150.0,165.0 184.3933982822018,199.3933982822018" /><polyline marker-end="url(#arrow-head)" points="3.4467938625677172,31.477197369671877 105.0,75.0 150.0,390.0 195.0,570.0 240.0,300.0 285.0,300.0 319.3933982822018,334.3933982822018" /><polyline marker-end="url(#arrow-head)" points="3.4467938625677172,31.477197369671877 105.0,75.0 150.0,390.0 184.3933982822018,355.6066017177982" /><polyline marker-end="url(#arrow-head)" points="3.4467938625677172,31.477197369671877 105.0,75.0 150.0,390.0 195.0,570.0 240.0,300.0 285.0,300.0 325.25658350974743,420.7697505292423" /><polyline marker-end="url(#arrow-head)" points="3.4467938625677172,31.477197369671877 105.0,75.0 150.0,390.0 184.3933982822018,424.3933982822018" /><polyline marker-end="url(#arrow-head)" points="3.4467938625677172,31.477197369671877 105.0,75.0 150.0,390.0 195.0,570.0 240.0,615.0 285.0,660.0 325.25658350974743,539.2302494707577" /><polyline marker-end="url(#arrow-head)" points="3.4467938625677172,31.477197369671877 105.0,75.0 150.0,525.0 180.0,525.0" /><polyline marker-end="url(#arrow-head)" points="3.4467938625677172,31.477197369671877 105.0,75.0 150.0,390.0 195.0,570.0 240.0,615.0 285.0,660.0 319.3933982822018,625.6066017177982" /><polyline marker-end="url(#arrow-head)" points="3.4467938625677172,31.477197369671877 105.0,75.0 150.0,525.0 191.36196562445502,690.4478624978201" /><polyline marker-end="url(#arrow-head)" points="3.4467938625677172,31.477197369671877 105.0,75.0 150.0,390.0 195.0,570.0 240.0,615.0 285.0,660.0 319.3933982822018,694.3933982822018" /><polyline marker-end="url(#arrow-head)" points="3.4467938625677172,31.477197369671877 105.0,75.0 150.0,525.0 192.53401519041964,780.2040911425178" /><polyline marker-end="url(#arrow-head)" points="3.4467938625677172,31.477197369671877 105.0,75.0 150.0,390.0 195.0,570.0 240.0,885.0 285.0,930.0 325.25658350974743,809.2302494707577" /><polyline marker-end="url(#arrow-head)" points="3.4467938625677172,76.47719736967187 105.0,120.0 150.0,300.0 191.36196562445502,134.55213750218" /><polyline marker-end="url(#arrow-head)" points="3.4467938625677172,76.47719736967187 105.0,120.0 150.0,300.0 195.0,615.0 240.0,660.0 285.0,345.0 319.3933982822018,310.6066017177982" /><polyline marker-end="url(#arrow-head)" points="3.4467938625677172,76.47719736967187 105.0,120.0 150.0,300.0 195.0,615.0 240.0,660.0 285.0,345.0 315.0,345.0" /><polyline marker-end="url(#arrow-head)" points="3.4467938625677172,76.47719736967187 105.0,120.0 150.0,300.0 195.0,615.0 240.0,660.0 285.0,345.0 323.2917960675006,421.58359213500125" /><polyline marker-end="url(#arrow-head)" points="3.4467938625677172,76.47719736967187 105.0,120.0 150.0,300.0 195.0,615.0 240.0,660.0 285.0,705.0 326.361965624455,539.5521375021799" /><polyline marker-end="url(#arrow-head)" points="3.4467938625677172,76.47719736967187 105.0,120.0 150.0,300.0 195.0,615.0 240.0,660.0 285.0,705.0 323.2917960675006,628.4164078649987" /><polyline marker-end="url(#arrow-head)" points="3.4467938625677172,76.47719736967187 105.0,120.0 150.0,300.0 195.0,615.0 240.0,660.0 285.0,705.0 315.0,705.0" /><polyline marker-end="url(#arrow-head)" points="3.4467938625677172,76.47719736967187 105.0,120.0 150.0,300.0 195.0,615.0 240.0,660.0 285.0,975.0 326.361965624455,809.5521375021799" /><polyline marker-end="url(#arrow-head)" points="3.4467938625677172,121.47719736967188 105.0,165.0 150.0,75.0 195.0,75.0 240.0,75.0 285.0,75.0 330.0,75.0 375.0,120.0 420.0,165.0 465.0,210.0 510.0,255.0 555.0,300.0 600.0,345.0 645.0,435.0 690.0,480.0 735.0,525.0 780.0,570.0 825.0,615.0 870.0,660.0 915.0,705.0 953.2917960675006,628.4164078649987" /><polyline marker-end="url(#arrow-head)" points="3.4467938625677172,121.47719736967188 105.0,165.0 150.0,75.0 195.0,75.0 240.0,75.0 285.0,75.0 330.0,75.0 375.0,120.0 420.0,165.0 465.0,210.0 510.0,255.0 544.3933982822018,220.6066017177982" /><polyline marker-end="url(#arrow-head)" points="3.4467938625677172,121.47719736967188 105.0,165.0 150.0,75.0 195.0,75.0 240.0,75.0 285.0,75.0 330.0,75.0 364.3933982822018,40.60660171779821" /><polyline marker-end="url(#arrow-head)" points="3.4467938625677172,121.47719736967188 105.0,165.0 150.0,75.0 195.0,75.0 240.0,75.0 285.0,75.0 330.0,75.0 375.0,120.0 420.0,165.0 465.0,210.0 510.0,255.0 555.0,300.0 600.0,345.0 645.0,435.0 690.0,480.0 735.0,525.0 780.0,570.0 825.0,615.0 870.0,660.0 915.0,705.0 960.0,750.0 1005.0,750.0 1039.3933982822018,715.6066017177982" /><polyline marker-end="url(#arrow-head)" points="3.4467938625677172,121.47719736967188 105.0,165.0 150.0,75.0 195.0,75.0 240.0,75.0 285.0,75.0 330.0,75.0 375.0,120.0 420.0,165.0 465.0,210.0 510.0,255.0 555.0,300.0 600.0,345.0 645.0,435.0 690.0,480.0 735.0,525.0 780.0,570.0 825.0,615.0 870.0,660.0 908.2917960675006,583.4164078649987" /><polyline marker-end="url(#arrow-head)" points="3.4467938625677172,121.47719736967188 105.0,165.0 150.0,75.0 195.0,75.0 240.0,75.0 285.0,75.0 330.0,75.0 375.0,120.0 420.0,165.0 465.0,210.0 510.0,255.0 555.0,300.0 600.0,345.0 645.0,435.0 690.0,480.0 728.2917960675006,403.41640786499875" /><polyline marker-end="url(#arrow-head)" points="3.4467938625677172,121.47719736967188 105.0,165.0 150.0,75.0 195.0,75.0 240.0,75.0 285.0,75.0 330.0,75.0 375.0,120.0 420.0,165.0 465.0,210.0 510.0,255.0 555.0,300.0 600.0,345.0 645.0,435.0 690.0,480.0 735.0,525.0 780.0,570.0 825.0,615.0 863.2917960675006,538.4164078649987" /><polyline marker-end="url(#arrow-head)" points="3.4467938625677172,121.47719736967188 105.0,165.0 150.0,75.0 195.0,75.0 240.0,75.0 285.0,75.0 330.0,75.0 375.0,120.0 420.0,165.0 465.0,210.0 510.0,255.0 555.0,300.0 600.0,345.0 645.0,435.0 690.0,480.0 735.0,525.0 773.2917960675006,448.41640786499875" /><polyline marker-end="url(#arrow-head)" points="3.4467938625677172,121.47719736967188 105.0,165.0 150.0,75.0 195.0,75.0 240.0,75.0 285.0,75.0 330.0,75.0 375.0,120.0 409.3933982822018,85.60660171779821" /><polyline marker-end="url(#arrow-head)" points="3.4467938625677172,121.47719736967188 105.0,165.0 150.0,75.0 195.0,75.0 240.0,75.0 285.0,75.0 330.0,75.0 375.0,120.0 420.0,165.0 465.0,210.0 510.0,255.0 555.0,300.0 600.0,345.0 645.0,435.0 690.0,480.0 735.0,525.0 780.0,570.0 818.2917960675006,493.4164078649987" /><polyline marker-end="url(#arrow-head)" points="3.4467938625677172,121.47719736967188 105.0,165.0 150.0,75.0 195.0,75.0 240.0,75.0 285.0,75.0 330.0,75.0 375.0,120.0 420.0,165.0 465.0,210.0 510.0,255.0 555.0,300.0 600.0,345.0 634.3933982822018,310.6066017177982" /><polyline marker-end="url(#arrow-head)" points="3.4467938625677172,121.47719736967188 105.0,165.0 150.0,75.0 195.0,75.0 240.0,75.0 285.0,75.0 330.0,75.0 375.0,120.0 420.0,165.0 454.3933982822018,130.6066017177982" /><polyline marker-end="url(#arrow-head)" points="3.4467938625677172,121.47719736967188 105.0,165.0 150.0,75.0 195.0,75.0 240.0,75.0 285.0,75.0 330.0,75.0 375.0,120.0 420.0,165.0 465.0,210.0 499.3933982822018,175.6066017177982" /><polyline marker-end="url(#arrow-head)" points="3.4467938625677172,121.47719736967188 105.0,165.0 150.0,75.0 195.0,75.0 240.0,75.0 285.0,75.0 330.0,75.0 375.0,120.0 420.0,165.0 465.0,210.0 510.0,255.0 555.0,300.0 589.3933982822018,265.6066017177982" /><polyline marker-end="url(#arrow-head)" points="3.4467938625677172,121.47719736967188 105.0,165.0 150.0,75.0 195.0,75.0 240.0,75.0 285.0,75.0 330.0,75.0 375.0,120.0 420.0,165.0 465.0,210.0 510.0,255.0 555.0,300.0 600.0,345.0 645.0,435.0 683.2917960675006,358.41640786499875" /><polyline marker-end="url(#arrow-head)" points="3.4467938625677172,121.47719736967188 105.0,165.0 150.0,75.0 195.0,75.0 240.0,75.0 285.0,75.0 330.0,75.0 375.0,120.0 420.0,165.0 465.0,210.0 510.0,255.0 555.0,300.0 600.0,345.0 645.0,435.0 690.0,480.0 735.0,525.0 780.0,570.0 825.0,615.0 870.0,660.0 915.0,705.0 960.0,750.0 998.2917960675006,673.4164078649987" /><polyline marker-end="url(#arrow-head)" points="3.4467938625677172,166.4771973696719 105.0,210.0 150.0,120.0 180.0,120.0" /><polyline marker-end="url(#arrow-head)" points="3.4467938625677172,211.4771973696719 105.0,255.0 150.0,210.0 195.0,255.0 240.0,255.0 285.0,255.0 319.3933982822018,289.3933982822018" /><polyline marker-end="url(#arrow-head)" points="3.4467938625677172,256.47719736967184 105.0,300.0 150.0,255.0 195.0,300.0 240.0,345.0 285.0,390.0 319.3933982822018,355.6066017177982" /><polyline marker-end="url(#arrow-head)" points="3.4467938625677172,301.47719736967184 105.0,345.0 150.0,345.0 195.0,390.0 240.0,435.0 285.0,480.0 319.3933982822018,445.6066017177982" /><polyline marker-end="url(#arrow-head)" points="3.4467938625677172,346.47719736967184 105.0,390.0 150.0,435.0 195.0,480.0 240.0,525.0 285.0,570.0 319.3933982822018,535.6066017177982" /><polyline marker-end="url(#arrow-head)" points="3.4467938625677172,391.47719736967184 105.0,435.0 150.0,480.0 195.0,660.0 240.0,705.0 285.0,750.0 325.25658350974743,629.2302494707577" /><polyline marker-end="url(#arrow-head)" points="3.4467938625677172,436.47719736967184 105.0,480.0 150.0,570.0 195.0,750.0 240.0,795.0 285.0,840.0 325.25658350974743,719.2302494707577" /><polyline marker-end="url(#arrow-head)" points="3.4467938625677172,481.47719736967184 105.0,525.0 150.0,615.0 195.0,840.0 240.0,930.0 285.0,1020.0 327.05825797292727,809.7087101353638" /><polyline marker-end="url(#arrow-head)" points="390.0,30.0 420.0,30.0 465.0,30.0 510.0,30.0 555.0,30.0 600.0,30.0 645.0,30.0 690.0,30.0 735.0,30.0 780.0,30.0 825.0,30.0 870.0,30.0 915.0,30.0 960.0,30.0 1005.0,30.0 1050.0,30.0 1151.25,30.0" /><polyline marker-end="url(#arrow-head)" points="435.0,75.0 465.0,75.0 510.0,75.0 555.0,75.0 600.0,75.0 645.0,75.0 690.0,75.0 735.0,75.0 780.0,75.0 825.0,75.0 870.0,75.0 915.0,75.0 960.0,75.0 1005.0,75.0 1050.0,75.0 1151.25,75.0" /><polyline marker-end="url(#arrow-head)" points="480.0,120.0 510.0,120.0 555.0,120.0 600.0,120.0 645.0,120.0 690.0,120.0 735.0,120.0 780.0,120.0 825.0,120.0 870.0,120.0 915.0,120.0 960.0,120.0 1005.0,120.0 1050.0,120.0 1151.25,120.0" /><polyline marker-end="url(#arrow-head)" points="525.0,165.0 555.0,165.0 600.0,165.0 645.0,165.0 690.0,165.0 735.0,165.0 780.0,165.0 825.0,165.0 870.0,165.0 915.0,165.0 960.0,165.0 1005.0,165.0 1050.0,165.0 1151.25,165.0" /><polyline marker-end="url(#arrow-head)" points="570.0,210.0 600.0,210.0 645.0,210.0 690.0,210.0 735.0,210.0 780.0,210.0 825.0,210.0 870.0,210.0 915.0,210.0 960.0,210.0 1005.0,210.0 1050.0,210.0 1151.25,210.0" /><polyline marker-end="url(#arrow-head)" points="615.0,255.0 645.0,255.0 690.0,255.0 735.0,255.0 780.0,255.0 825.0,255.0 870.0,255.0 915.0,255.0 960.0,255.0 1005.0,255.0 1050.0,255.0 1151.25,255.0" /><polyline marker-end="url(#arrow-head)" points="660.0,300.0 690.0,300.0 735.0,300.0 780.0,300.0 825.0,300.0 870.0,300.0 915.0,300.0 960.0,300.0 1005.0,300.0 1050.0,300.0 1151.25,300.0" /><polyline marker-end="url(#arrow-head)" points="705.0,345.0 735.0,345.0 780.0,345.0 825.0,345.0 870.0,345.0 915.0,345.0 960.0,345.0 1005.0,345.0 1050.0,345.0 1151.25,345.0" /><polyline marker-end="url(#arrow-head)" points="750.0,390.0 780.0,390.0 825.0,390.0 870.0,390.0 915.0,390.0 960.0,390.0 1005.0,390.0 1050.0,390.0 1151.25,390.0" /><polyline marker-end="url(#arrow-head)" points="795.0,435.0 825.0,435.0 870.0,435.0 915.0,435.0 960.0,435.0 1005.0,435.0 1050.0,435.0 1151.25,435.0" /><polyline marker-end="url(#arrow-head)" points="840.0,480.0 870.0,480.0 915.0,480.0 960.0,480.0 1005.0,480.0 1050.0,480.0 1151.25,480.0" /><polyline marker-end="url(#arrow-head)" points="885.0,525.0 915.0,525.0 960.0,525.0 1005.0,525.0 1050.0,525.0 1151.25,525.0" /><polyline marker-end="url(#arrow-head)" points="930.0,570.0 960.0,570.0 1005.0,570.0 1050.0,570.0 1151.25,570.0" /><polyline marker-end="url(#arrow-head)" points="975.0,615.0 1005.0,615.0 1050.0,615.0 1151.25,615.0" /><polyline marker-end="url(#arrow-head)" points="1020.0,660.0 1050.0,660.0 1151.25,660.0" /><line marker-end="url(#arrow-head)" x1="1065.0" x2="1151.25" y1="705.0" y2="705.0" /><polyline marker-end="url(#arrow-head)" points="120.0,30.0 150.0,30.0 195.0,30.0 240.0,30.0 285.0,30.0 315.0,30.0" /><polyline marker-end="url(#arrow-head)" points="120.0,30.0 150.0,30.0 188.29179606750063,106.58359213500127" /><polyline marker-end="url(#arrow-head)" points="120.0,30.0 150.0,30.0 195.0,30.0 240.0,30.0 285.0,30.0 330.0,120.0 375.0,165.0 420.0,210.0 465.0,255.0 510.0,300.0 555.0,345.0 600.0,390.0 645.0,390.0 675.0,390.0" /><polyline marker-end="url(#arrow-head)" points="210.0,120.0 240.0,120.0 285.0,120.0 323.2917960675006,43.41640786499874" /><polyline marker-end="url(#arrow-head)" points="210.0,120.0 240.0,120.0 285.0,120.0 330.0,210.0 375.0,210.0 420.0,255.0 465.0,300.0 510.0,345.0 555.0,390.0 600.0,435.0 645.0,390.0 675.0,390.0" /><line marker-end="url(#arrow-head)" x1="345.0" x2="360.0" y1="30.0" y2="30.0" /><line marker-end="url(#arrow-head)" x1="705.0" x2="720.0" y1="390.0" y2="390.0" /><polyline marker-end="url(#arrow-head)" points="210.0,165.0 240.0,165.0 285.0,165.0 330.0,165.0 368.2917960675006,88.41640786499873" /><polyline marker-end="url(#arrow-head)" points="210.0,165.0 240.0,165.0 285.0,165.0 325.25658350974743,285.7697505292423" /><polyline marker-end="url(#arrow-head)" points="210.0,165.0 240.0,165.0 285.0,165.0 330.0,165.0 375.0,300.0 420.0,300.0 465.0,345.0 510.0,390.0 555.0,435.0 600.0,480.0 645.0,480.0 690.0,435.0 720.0,435.0" /><line marker-end="url(#arrow-head)" x1="332.94174202707273" x2="372.05825797292727" y1="285.2912898646362" y2="89.7087101353638" /><polyline marker-end="url(#arrow-head)" points="334.74341649025257,314.2302494707577 375.0,435.0 420.0,390.0 465.0,390.0 510.0,435.0 555.0,480.0 600.0,525.0 645.0,525.0 690.0,435.0 720.0,435.0" /><line marker-end="url(#arrow-head)" x1="390.0" x2="405.0" y1="75.0" y2="75.0" /><line marker-end="url(#arrow-head)" x1="750.0" x2="765.0" y1="435.0" y2="435.0" /><polyline marker-end="url(#arrow-head)" points="210.0,210.0 240.0,210.0 285.0,210.0 330.0,255.0 375.0,255.0 415.25658350974743,134.23024947075768" /><polyline marker-end="url(#arrow-head)" points="210.0,210.0 240.0,210.0 285.0,210.0 325.25658350974743,330.7697505292423" /><polyline marker-end="url(#arrow-head)" points="210.0,210.0 240.0,210.0 285.0,210.0 330.0,255.0 375.0,255.0 420.0,435.0 465.0,435.0 510.0,480.0 555.0,525.0 600.0,570.0 645.0,570.0 690.0,525.0 735.0,480.0 765.0,480.0" /><polyline marker-end="url(#arrow-head)" points="345.0,345.0 375.0,345.0 417.05825797292727,134.7087101353638" /><polyline marker-end="url(#arrow-head)" points="345.0,345.0 375.0,345.0 420.0,480.0 465.0,480.0 510.0,525.0 555.0,570.0 600.0,615.0 645.0,615.0 690.0,570.0 735.0,480.0 765.0,480.0" /><line marker-end="url(#arrow-head)" x1="435.0" x2="450.0" y1="120.0" y2="120.0" /><line marker-end="url(#arrow-head)" x1="795.0" x2="810.0" y1="480.0" y2="480.0" /><polyline marker-end="url(#arrow-head)" points="205.6066017177982,355.6066017177982 240.0,390.0 285.0,435.0 330.0,390.0 375.0,390.0 420.0,345.0 461.361965624455,179.55213750218" /><polyline marker-end="url(#arrow-head)" points="205.6066017177982,355.6066017177982 240.0,390.0 285.0,435.0 315.0,435.0" /><polyline marker-end="url(#arrow-head)" points="205.6066017177982,355.6066017177982 240.0,390.0 285.0,435.0 330.0,390.0 375.0,390.0 420.0,345.0 465.0,525.0 510.0,570.0 555.0,615.0 600.0,660.0 645.0,660.0 690.0,615.0 735.0,570.0 780.0,525.0 810.0,525.0" /><polyline marker-end="url(#arrow-head)" points="340.6066017177982,445.6066017177982 375.0,480.0 420.0,525.0 463.13947898116186,179.88416815070502" /><polyline marker-end="url(#arrow-head)" points="340.6066017177982,445.6066017177982 375.0,480.0 420.0,525.0 465.0,885.0 510.0,840.0 555.0,795.0 600.0,750.0 645.0,705.0 690.0,660.0 735.0,615.0 780.0,525.0 810.0,525.0" /><line marker-end="url(#arrow-head)" x1="480.0" x2="495.0" y1="165.0" y2="165.0" /><line marker-end="url(#arrow-head)" x1="840.0" x2="855.0" y1="525.0" y2="525.0" /><polyline marker-end="url(#arrow-head)" points="205.6066017177982,445.6066017177982 240.0,480.0 285.0,525.0 330.0,480.0 375.0,525.0 420.0,570.0 465.0,570.0 508.13947898116186,224.88416815070502" /><polyline marker-end="url(#arrow-head)" points="205.6066017177982,445.6066017177982 240.0,480.0 285.0,525.0 315.0,525.0" /><polyline marker-end="url(#arrow-head)" points="205.6066017177982,445.6066017177982 240.0,480.0 285.0,525.0 330.0,480.0 375.0,525.0 420.0,570.0 465.0,570.0 510.0,930.0 555.0,885.0 600.0,840.0 645.0,750.0 690.0,705.0 735.0,660.0 780.0,615.0 825.0,570.0 855.0,570.0" /><polyline marker-end="url(#arrow-head)" points="340.6066017177982,535.6066017177982 375.0,570.0 420.0,615.0 465.0,615.0 508.3435271088773,224.90825602010426" /><polyline marker-end="url(#arrow-head)" points="340.6066017177982,535.6066017177982 375.0,570.0 420.0,615.0 465.0,615.0 510.0,975.0 555.0,930.0 600.0,885.0 645.0,795.0 690.0,750.0 735.0,705.0 780.0,660.0 825.0,570.0 855.0,570.0" /><line marker-end="url(#arrow-head)" x1="525.0" x2="540.0" y1="210.0" y2="210.0" /><line marker-end="url(#arrow-head)" x1="885.0" x2="900.0" y1="570.0" y2="570.0" /><polyline marker-end="url(#arrow-head)" points="205.6066017177982,535.6066017177982 240.0,570.0 285.0,615.0 330.0,570.0 375.0,615.0 420.0,660.0 465.0,660.0 510.0,615.0 553.1394789811619,269.884168150705" /><polyline marker-end="url(#arrow-head)" points="205.6066017177982,535.6066017177982 240.0,570.0 285.0,615.0 315.0,615.0" /><polyline marker-end="url(#arrow-head)" points="205.6066017177982,535.6066017177982 240.0,570.0 285.0,615.0 330.0,570.0 375.0,615.0 420.0,660.0 465.0,660.0 510.0,615.0 555.0,975.0 600.0,930.0 645.0,840.0 690.0,795.0 735.0,750.0 780.0,705.0 825.0,660.0 870.0,615.0 900.0,615.0" /><polyline marker-end="url(#arrow-head)" points="340.6066017177982,625.6066017177982 375.0,660.0 420.0,705.0 465.0,705.0 510.0,660.0 553.3435271088773,269.9082560201043" /><polyline marker-end="url(#arrow-head)" points="340.6066017177982,625.6066017177982 375.0,660.0 420.0,705.0 465.0,705.0 510.0,660.0 555.0,1020.0 600.0,975.0 645.0,885.0 690.0,840.0 735.0,795.0 780.0,750.0 825.0,705.0 870.0,615.0 900.0,615.0" /><line marker-end="url(#arrow-head)" x1="570.0" x2="585.0" y1="255.0" y2="255.0" /><line marker-end="url(#arrow-head)" x1="930.0" x2="945.0" y1="615.0" y2="615.0" /><polyline marker-end="url(#arrow-head)" points="205.6066017177982,715.6066017177982 240.0,750.0 285.0,795.0 330.0,660.0 375.0,705.0 420.0,750.0 465.0,750.0 510.0,705.0 555.0,660.0 598.1394789811619,314.884168150705" /><polyline marker-end="url(#arrow-head)" points="205.6066017177982,715.6066017177982 240.0,750.0 285.0,795.0 323.2917960675006,718.4164078649987" /><polyline marker-end="url(#arrow-head)" points="205.6066017177982,715.6066017177982 240.0,750.0 285.0,795.0 330.0,660.0 375.0,705.0 420.0,750.0 465.0,750.0 510.0,705.0 555.0,660.0 600.0,1020.0 645.0,930.0 690.0,885.0 735.0,840.0 780.0,795.0 825.0,750.0 870.0,705.0 915.0,660.0 945.0,660.0" /><polyline marker-end="url(#arrow-head)" points="340.6066017177982,715.6066017177982 375.0,750.0 420.0,795.0 465.0,795.0 510.0,750.0 555.0,705.0 598.3435271088773,314.9082560201043" /><polyline marker-end="url(#arrow-head)" points="340.6066017177982,715.6066017177982 375.0,750.0 420.0,795.0 465.0,795.0 510.0,750.0 555.0,705.0 600.0,1065.0 645.0,975.0 690.0,930.0 735.0,885.0 780.0,840.0 825.0,795.0 870.0,750.0 915.0,660.0 945.0,660.0" /><line marker-end="url(#arrow-head)" x1="615.0" x2="630.0" y1="300.0" y2="300.0" /><line marker-end="url(#arrow-head)" x1="975.0" x2="990.0" y1="660.0" y2="660.0" /><polyline marker-end="url(#arrow-head)" points="205.6066017177982,805.6066017177982 240.0,840.0 285.0,885.0 330.0,750.0 375.0,795.0 420.0,840.0 465.0,840.0 510.0,795.0 555.0,750.0 600.0,705.0 643.1394789811619,359.884168150705" /><polyline marker-end="url(#arrow-head)" points="205.6066017177982,805.6066017177982 240.0,840.0 285.0,885.0 323.2917960675006,808.4164078649987" /><polyline marker-end="url(#arrow-head)" points="205.6066017177982,805.6066017177982 240.0,840.0 285.0,885.0 330.0,750.0 375.0,795.0 420.0,840.0 465.0,840.0 510.0,795.0 555.0,750.0 600.0,705.0 645.0,1020.0 690.0,975.0 735.0,930.0 780.0,885.0 825.0,840.0 870.0,795.0 915.0,750.0 960.0,705.0 990.0,705.0" /><polyline marker-end="url(#arrow-head)" points="340.6066017177982,805.6066017177982 375.0,840.0 420.0,885.0 465.0,930.0 510.0,885.0 555.0,840.0 600.0,795.0 643.5074442146849,359.9255578531498" /><polyline marker-end="url(#arrow-head)" points="340.6066017177982,805.6066017177982 375.0,840.0 420.0,885.0 465.0,930.0 510.0,885.0 555.0,840.0 600.0,795.0 645.0,1065.0 690.0,1020.0 735.0,975.0 780.0,930.0 825.0,885.0 870.0,840.0 915.0,795.0 960.0,705.0 990.0,705.0" /><line marker-end="url(#arrow-head)" x1="660.0" x2="675.0" y1="345.0" y2="345.0" /><line marker-end="url(#arrow-head)" x1="1020.0" x2="1035.0" y1="705.0" y2="705.0" /><line marker-end="url(#arrow-head)" x1="345.0" x2="360.0" y1="30.0" y2="30.0" /><line marker-end="url(#arrow-head)" x1="705.0" x2="720.0" y1="390.0" y2="390.0" /><line marker-end="url(#arrow-head)" x1="390.0" x2="405.0" y1="75.0" y2="75.0" /><line marker-end="url(#arrow-head)" x1="750.0" x2="765.0" y1="435.0" y2="435.0" /><line marker-end="url(#arrow-head)" x1="435.0" x2="450.0" y1="120.0" y2="120.0" /><line marker-end="url(#arrow-head)" x1="795.0" x2="810.0" y1="480.0" y2="480.0" /><line marker-end="url(#arrow-head)" x1="480.0" x2="495.0" y1="165.0" y2="165.0" /><line marker-end="url(#arrow-head)" x1="840.0" x2="855.0" y1="525.0" y2="525.0" /><line marker-end="url(#arrow-head)" x1="525.0" x2="540.0" y1="210.0" y2="210.0" /><line marker-end="url(#arrow-head)" x1="885.0" x2="900.0" y1="570.0" y2="570.0" /><line marker-end="url(#arrow-head)" x1="570.0" x2="585.0" y1="255.0" y2="255.0" /><line marker-end="url(#arrow-head)" x1="930.0" x2="945.0" y1="615.0" y2="615.0" /><line marker-end="url(#arrow-head)" x1="615.0" x2="630.0" y1="300.0" y2="300.0" /><line marker-end="url(#arrow-head)" x1="975.0" x2="990.0" y1="660.0" y2="660.0" /><line marker-end="url(#arrow-head)" x1="660.0" x2="675.0" y1="345.0" y2="345.0" /><line marker-end="url(#arrow-head)" x1="1020.0" x2="1035.0" y1="705.0" y2="705.0" /><rect fill="white" height="3.5999999999999996" width="3.5999999999999996" x="508.2" y="883.2" /><rect fill="white" height="3.5999999999999996" width="3.5999999999999996" x="598.2" y="163.2" /><rect fill="white" height="3.5999999999999996" width="3.5999999999999996" x="373.2" y="838.2" /><rect fill="white" height="3.5999999999999996" width="3.5999999999999996" x="148.2" y="73.2" /><rect fill="white" height="3.5999999999999996" width="3.5999999999999996" x="238.2" y="793.2" /><rect fill="white" height="3.5999999999999996" width="3.5999999999999996" x="643.2" y="433.2" /><rect fill="white" height="3.5999999999999996" width="3.5999999999999996" x="1048.2" y="73.2" /><rect fill="white" height="3.5999999999999996" width="3.5999999999999996" x="688.2" y="703.2" /><rect fill="white" height="3.5999999999999996" width="3.5999999999999996" x="733.2" y="73.2" /><rect fill="white" height="3.5999999999999996" width="3.5999999999999996" x="508.2" y="748.2" /><rect fill="white" height="3.5999999999999996" width="3.5999999999999996" x="598.2" y="28.2" /><rect fill="white" height="3.5999999999999996" width="3.5999999999999996" x="373.2" y="703.2" /><rect fill="white" height="3.5999999999999996" width="3.5999999999999996" x="778.2" y="343.2" /><rect fill="white" height="3.5999999999999996" width="3.5999999999999996" x="238.2" y="658.2" /><rect fill="white" height="3.5999999999999996" width="3.5999999999999996" x="553.2" y="1018.2" /><rect fill="white" height="3.5999999999999996" width="3.5999999999999996" x="823.2" y="793.2" /><rect fill="white" height="3.5999999999999996" width="3.5999999999999996" x="283.2" y="928.2" /><rect fill="white" height="3.5999999999999996" width="3.5999999999999996" x="688.2" y="568.2" /><rect fill="white" height="3.5999999999999996" width="3.5999999999999996" x="913.2" y="433.2" /><rect fill="white" height="3.5999999999999996" width="3.5999999999999996" x="958.2" y="703.2" /><rect fill="white" height="3.5999999999999996" width="3.5999999999999996" x="508.2" y="613.2" /><rect fill="white" height="3.5999999999999996" width="3.5999999999999996" x="823.2" y="658.2" /><rect fill="white" height="3.5999999999999996" width="3.5999999999999996" x="373.2" y="568.2" /><rect fill="white" height="3.5999999999999996" width="3.5999999999999996" x="778.2" y="208.2" /><rect fill="white" height="3.5999999999999996" width="3.5999999999999996" x="238.2" y="523.2" /><rect fill="white" height="3.5999999999999996" width="3.5999999999999996" x="643.2" y="163.2" /><rect fill="white" height="3.5999999999999996" width="3.5999999999999996" x="553.2" y="883.2" /><rect fill="white" height="3.5999999999999996" width="3.5999999999999996" x="193.2" y="73.2" /><rect fill="white" height="3.5999999999999996" width="3.5999999999999996" x="283.2" y="793.2" /><rect fill="white" height="3.5999999999999996" width="3.5999999999999996" x="688.2" y="433.2" /><rect fill="white" height="3.5999999999999996" width="3.5999999999999996" x="418.2" y="838.2" /><rect fill="white" height="3.5999999999999996" width="3.5999999999999996" x="913.2" y="298.2" /><rect fill="white" height="3.5999999999999996" width="3.5999999999999996" x="958.2" y="568.2" /><rect fill="white" height="3.5999999999999996" width="3.5999999999999996" x="328.2" y="163.2" /><rect fill="white" height="3.5999999999999996" width="3.5999999999999996" x="508.2" y="478.2" /><rect fill="white" height="3.5999999999999996" width="3.5999999999999996" x="373.2" y="433.2" /><rect fill="white" height="3.5999999999999996" width="3.5999999999999996" x="778.2" y="73.2" /><rect fill="white" height="3.5999999999999996" width="3.5999999999999996" x="238.2" y="388.2" /><rect fill="white" height="3.5999999999999996" width="3.5999999999999996" x="643.2" y="28.2" /><rect fill="white" height="3.5999999999999996" width="3.5999999999999996" x="418.2" y="703.2" /><rect fill="white" height="3.5999999999999996" width="3.5999999999999996" x="868.2" y="793.2" /><rect fill="white" height="3.5999999999999996" width="3.5999999999999996" x="283.2" y="658.2" /><rect fill="white" height="3.5999999999999996" width="3.5999999999999996" x="688.2" y="298.2" /><rect fill="white" height="3.5999999999999996" width="3.5999999999999996" x="913.2" y="163.2" /><rect fill="white" height="3.5999999999999996" width="3.5999999999999996" x="958.2" y="433.2" /><rect fill="white" height="3.5999999999999996" width="3.5999999999999996" x="823.2" y="388.2" /><rect fill="white" height="3.5999999999999996" width="3.5999999999999996" x="508.2" y="343.2" /><rect fill="white" height="3.5999999999999996" width="3.5999999999999996" x="373.2" y="298.2" /><rect fill="white" height="3.5999999999999996" width="3.5999999999999996" x="598.2" y="1063.2" /><rect fill="white" height="3.5999999999999996" width="3.5999999999999996" x="868.2" y="658.2" /><rect fill="white" height="3.5999999999999996" width="3.5999999999999996" x="238.2" y="253.2" /><rect fill="white" height="3.5999999999999996" width="3.5999999999999996" x="418.2" y="568.2" /><rect fill="white" height="3.5999999999999996" width="3.5999999999999996" x="283.2" y="523.2" /><rect fill="white" height="3.5999999999999996" width="3.5999999999999996" x="688.2" y="163.2" /><rect fill="white" height="3.5999999999999996" width="3.5999999999999996" x="463.2" y="838.2" /><rect fill="white" height="3.5999999999999996" width="3.5999999999999996" x="913.2" y="28.2" /><rect fill="white" height="3.5999999999999996" width="3.5999999999999996" x="553.2" y="658.2" /><rect fill="white" height="3.5999999999999996" width="3.5999999999999996" x="958.2" y="298.2" /><rect fill="white" height="3.5999999999999996" width="3.5999999999999996" x="733.2" y="973.2" /><rect fill="white" height="3.5999999999999996" width="3.5999999999999996" x="823.2" y="253.2" /><rect fill="white" height="3.5999999999999996" width="3.5999999999999996" x="598.2" y="928.2" /><rect fill="white" height="3.5999999999999996" width="3.5999999999999996" x="1003.2" y="568.2" /><rect fill="white" height="3.5999999999999996" width="3.5999999999999996" x="373.2" y="163.2" /><rect fill="white" height="3.5999999999999996" width="3.5999999999999996" x="238.2" y="118.2" /><rect fill="white" height="3.5999999999999996" width="3.5999999999999996" x="418.2" y="433.2" /><rect fill="white" height="3.5999999999999996" width="3.5999999999999996" x="283.2" y="388.2" /><rect fill="white" height="3.5999999999999996" width="3.5999999999999996" x="688.2" y="28.2" /><rect fill="white" height="3.5999999999999996" width="3.5999999999999996" x="463.2" y="703.2" /><rect fill="white" height="3.5999999999999996" width="3.5999999999999996" x="553.2" y="523.2" /><rect fill="white" height="3.5999999999999996" width="3.5999999999999996" x="958.2" y="163.2" /><rect fill="white" height="3.5999999999999996" width="3.5999999999999996" x="103.2" y="433.2" /><rect fill="white" height="3.5999999999999996" width="3.5999999999999996" x="823.2" y="118.2" /><rect fill="white" height="3.5999999999999996" width="3.5999999999999996" x="508.2" y="73.2" /><rect fill="white" height="3.5999999999999996" width="3.5999999999999996" x="1003.2" y="433.2" /><rect fill="white" height="3.5999999999999996" width="3.5999999999999996" x="733.2" y="838.2" /><rect fill="white" height="3.5999999999999996" width="3.5999999999999996" x="868.2" y="388.2" /><rect fill="white" height="3.5999999999999996" width="3.5999999999999996" x="598.2" y="793.2" /><rect fill="white" height="3.5999999999999996" width="3.5999999999999996" x="418.2" y="298.2" /><rect fill="white" height="3.5999999999999996" width="3.5999999999999996" x="643.2" y="1063.2" /><rect fill="white" height="3.5999999999999996" width="3.5999999999999996" x="283.2" y="253.2" /><rect fill="white" height="3.5999999999999996" width="3.5999999999999996" x="463.2" y="568.2" /><rect fill="white" height="3.5999999999999996" width="3.5999999999999996" x="553.2" y="388.2" /><rect fill="white" height="3.5999999999999996" width="3.5999999999999996" x="958.2" y="28.2" /><rect fill="white" height="3.5999999999999996" width="3.5999999999999996" x="103.2" y="298.2" /><rect fill="white" height="3.5999999999999996" width="3.5999999999999996" x="733.2" y="703.2" /><rect fill="white" height="3.5999999999999996" width="3.5999999999999996" x="598.2" y="658.2" /><rect fill="white" height="3.5999999999999996" width="3.5999999999999996" x="1003.2" y="298.2" /><rect fill="white" height="3.5999999999999996" width="3.5999999999999996" x="148.2" y="568.2" /><rect fill="white" height="3.5999999999999996" width="3.5999999999999996" x="868.2" y="253.2" /><rect fill="white" height="3.5999999999999996" width="3.5999999999999996" x="643.2" y="928.2" /><rect fill="white" height="3.5999999999999996" width="3.5999999999999996" x="418.2" y="163.2" /><rect fill="white" height="3.5999999999999996" width="3.5999999999999996" x="193.2" y="838.2" /><rect fill="white" height="3.5999999999999996" width="3.5999999999999996" x="1048.2" y="568.2" /><rect fill="white" height="3.5999999999999996" width="3.5999999999999996" x="283.2" y="118.2" /><rect fill="white" height="3.5999999999999996" width="3.5999999999999996" x="463.2" y="433.2" /><rect fill="white" height="3.5999999999999996" width="3.5999999999999996" x="823.2" y="883.2" /><rect fill="white" height="3.5999999999999996" width="3.5999999999999996" x="103.2" y="163.2" /><rect fill="white" height="3.5999999999999996" width="3.5999999999999996" x="733.2" y="568.2" /><rect fill="white" height="3.5999999999999996" width="3.5999999999999996" x="598.2" y="523.2" /><rect fill="white" height="3.5999999999999996" width="3.5999999999999996" x="1003.2" y="163.2" /><rect fill="white" height="3.5999999999999996" width="3.5999999999999996" x="148.2" y="433.2" /><rect fill="white" height="3.5999999999999996" width="3.5999999999999996" x="868.2" y="118.2" /><rect fill="white" height="3.5999999999999996" width="3.5999999999999996" x="643.2" y="793.2" /><rect fill="white" height="3.5999999999999996" width="3.5999999999999996" x="418.2" y="28.2" /><rect fill="white" height="3.5999999999999996" width="3.5999999999999996" x="1048.2" y="433.2" /><rect fill="white" height="3.5999999999999996" width="3.5999999999999996" x="778.2" y="838.2" /><rect fill="white" height="3.5999999999999996" width="3.5999999999999996" x="463.2" y="298.2" /><rect fill="white" height="3.5999999999999996" width="3.5999999999999996" x="553.2" y="118.2" /><rect fill="white" height="3.5999999999999996" width="3.5999999999999996" x="598.2" y="388.2" /><rect fill="white" height="3.5999999999999996" width="3.5999999999999996" x="1003.2" y="28.2" /><rect fill="white" height="3.5999999999999996" width="3.5999999999999996" x="148.2" y="298.2" /><rect fill="white" height="3.5999999999999996" width="3.5999999999999996" x="778.2" y="703.2" /><rect fill="white" height="3.5999999999999996" width="3.5999999999999996" x="643.2" y="658.2" /><rect fill="white" height="3.5999999999999996" width="3.5999999999999996" x="1048.2" y="298.2" /><rect fill="white" height="3.5999999999999996" width="3.5999999999999996" x="193.2" y="568.2" /><rect fill="white" height="3.5999999999999996" width="3.5999999999999996" x="688.2" y="928.2" /><rect fill="white" height="3.5999999999999996" width="3.5999999999999996" x="913.2" y="793.2" /><rect fill="white" height="3.5999999999999996" width="3.5999999999999996" x="328.2" y="658.2" /><rect fill="white" height="3.5999999999999996" width="3.5999999999999996" x="733.2" y="298.2" /><rect fill="white" height="3.5999999999999996" width="3.5999999999999996" x="508.2" y="973.2" /><rect fill="white" height="3.5999999999999996" width="3.5999999999999996" x="148.2" y="163.2" /><rect fill="white" height="3.5999999999999996" width="3.5999999999999996" x="238.2" y="883.2" /><rect fill="white" height="3.5999999999999996" width="3.5999999999999996" x="778.2" y="568.2" /><rect fill="white" height="3.5999999999999996" width="3.5999999999999996" x="1048.2" y="163.2" /><rect fill="white" height="3.5999999999999996" width="3.5999999999999996" x="643.2" y="523.2" /><rect fill="white" height="3.5999999999999996" width="3.5999999999999996" x="688.2" y="793.2" /><rect fill="white" height="3.5999999999999996" width="3.5999999999999996" x="463.2" y="28.2" /><rect fill="white" height="3.5999999999999996" width="3.5999999999999996" x="913.2" y="658.2" /><rect fill="white" height="3.5999999999999996" width="3.5999999999999996" x="733.2" y="163.2" /><rect fill="white" height="3.5999999999999996" width="3.5999999999999996" x="508.2" y="838.2" /><rect fill="white" height="3.5999999999999996" width="3.5999999999999996" x="598.2" y="118.2" /><rect fill="white" height="3.5999999999999996" width="3.5999999999999996" x="373.2" y="793.2" /><rect fill="white" height="3.5999999999999996" width="3.5999999999999996" x="148.2" y="28.2" /><rect fill="white" height="3.5999999999999996" width="3.5999999999999996" x="238.2" y="748.2" /><rect fill="white" height="3.5999999999999996" width="3.5999999999999996" x="643.2" y="388.2" /><rect fill="white" height="3.5999999999999996" width="3.5999999999999996" x="1048.2" y="28.2" /><rect fill="white" height="3.5999999999999996" width="3.5999999999999996" x="193.2" y="298.2" /><rect fill="white" height="3.5999999999999996" width="3.5999999999999996" x="283.2" y="1018.2" /><rect fill="white" height="3.5999999999999996" width="3.5999999999999996" x="688.2" y="658.2" /><rect fill="white" height="3.5999999999999996" width="3.5999999999999996" x="913.2" y="523.2" /><rect fill="white" height="3.5999999999999996" width="3.5999999999999996" x="328.2" y="388.2" /><rect fill="white" height="3.5999999999999996" width="3.5999999999999996" x="733.2" y="28.2" /><rect fill="white" height="3.5999999999999996" width="3.5999999999999996" x="508.2" y="703.2" /><rect fill="white" height="3.5999999999999996" width="3.5999999999999996" x="823.2" y="748.2" /><rect fill="white" height="3.5999999999999996" width="3.5999999999999996" x="373.2" y="658.2" /><rect fill="white" height="3.5999999999999996" width="3.5999999999999996" x="778.2" y="298.2" /><rect fill="white" height="3.5999999999999996" width="3.5999999999999996" x="238.2" y="613.2" /><rect fill="white" height="3.5999999999999996" width="3.5999999999999996" x="643.2" y="253.2" /><rect fill="white" height="3.5999999999999996" width="3.5999999999999996" x="553.2" y="973.2" /><rect fill="white" height="3.5999999999999996" width="3.5999999999999996" x="283.2" y="883.2" /><rect fill="white" height="3.5999999999999996" width="3.5999999999999996" x="688.2" y="523.2" /><rect fill="white" height="3.5999999999999996" width="3.5999999999999996" x="913.2" y="388.2" /><rect fill="white" height="3.5999999999999996" width="3.5999999999999996" x="328.2" y="253.2" /><rect fill="white" height="3.5999999999999996" width="3.5999999999999996" x="508.2" y="568.2" /><rect fill="white" height="3.5999999999999996" width="3.5999999999999996" x="823.2" y="613.2" /><rect fill="white" height="3.5999999999999996" width="3.5999999999999996" x="373.2" y="523.2" /><rect fill="white" height="3.5999999999999996" width="3.5999999999999996" x="778.2" y="163.2" /><rect fill="white" height="3.5999999999999996" width="3.5999999999999996" x="238.2" y="478.2" /><rect fill="white" height="3.5999999999999996" width="3.5999999999999996" x="643.2" y="118.2" /><rect fill="white" height="3.5999999999999996" width="3.5999999999999996" x="418.2" y="793.2" /><rect fill="white" height="3.5999999999999996" width="3.5999999999999996" x="193.2" y="28.2" /><rect fill="white" height="3.5999999999999996" width="3.5999999999999996" x="283.2" y="748.2" /><rect fill="white" height="3.5999999999999996" width="3.5999999999999996" x="553.2" y="838.2" /><rect fill="white" height="3.5999999999999996" width="3.5999999999999996" x="913.2" y="253.2" /><rect fill="white" height="3.5999999999999996" width="3.5999999999999996" x="958.2" y="523.2" /><rect fill="white" height="3.5999999999999996" width="3.5999999999999996" x="328.2" y="118.2" /><rect fill="white" height="3.5999999999999996" width="3.5999999999999996" x="508.2" y="433.2" /><rect fill="white" height="3.5999999999999996" width="3.5999999999999996" x="373.2" y="388.2" /><rect fill="white" height="3.5999999999999996" width="3.5999999999999996" x="778.2" y="28.2" /><rect fill="white" height="3.5999999999999996" width="3.5999999999999996" x="238.2" y="343.2" /><rect fill="white" height="3.5999999999999996" width="3.5999999999999996" x="868.2" y="748.2" /><rect fill="white" height="3.5999999999999996" width="3.5999999999999996" x="418.2" y="658.2" /><rect fill="white" height="3.5999999999999996" width="3.5999999999999996" x="283.2" y="613.2" /><rect fill="white" height="3.5999999999999996" width="3.5999999999999996" x="688.2" y="253.2" /><rect fill="white" height="3.5999999999999996" width="3.5999999999999996" x="463.2" y="928.2" /><rect fill="white" height="3.5999999999999996" width="3.5999999999999996" x="913.2" y="118.2" /><rect fill="white" height="3.5999999999999996" width="3.5999999999999996" x="553.2" y="748.2" /><rect fill="white" height="3.5999999999999996" width="3.5999999999999996" x="958.2" y="388.2" /><rect fill="white" height="3.5999999999999996" width="3.5999999999999996" x="823.2" y="343.2" /><rect fill="white" height="3.5999999999999996" width="3.5999999999999996" x="508.2" y="298.2" /><rect fill="white" height="3.5999999999999996" width="3.5999999999999996" x="373.2" y="253.2" /><rect fill="white" height="3.5999999999999996" width="3.5999999999999996" x="598.2" y="1018.2" /><rect fill="white" height="3.5999999999999996" width="3.5999999999999996" x="238.2" y="208.2" /><rect fill="white" height="3.5999999999999996" width="3.5999999999999996" x="868.2" y="613.2" /><rect fill="white" height="3.5999999999999996" width="3.5999999999999996" x="418.2" y="523.2" /><rect fill="white" height="3.5999999999999996" width="3.5999999999999996" x="283.2" y="478.2" /><rect fill="white" height="3.5999999999999996" width="3.5999999999999996" x="688.2" y="118.2" /><rect fill="white" height="3.5999999999999996" width="3.5999999999999996" x="463.2" y="793.2" /><rect fill="white" height="3.5999999999999996" width="3.5999999999999996" x="553.2" y="613.2" /><rect fill="white" height="3.5999999999999996" width="3.5999999999999996" x="958.2" y="253.2" /><rect fill="white" height="3.5999999999999996" width="3.5999999999999996" x="103.2" y="523.2" /><rect fill="white" height="3.5999999999999996" width="3.5999999999999996" x="823.2" y="208.2" /><rect fill="white" height="3.5999999999999996" width="3.5999999999999996" x="598.2" y="883.2" /><rect fill="white" height="3.5999999999999996" width="3.5999999999999996" x="373.2" y="118.2" /><rect fill="white" height="3.5999999999999996" width="3.5999999999999996" x="1003.2" y="523.2" /><rect fill="white" height="3.5999999999999996" width="3.5999999999999996" x="238.2" y="73.2" /><rect fill="white" height="3.5999999999999996" width="3.5999999999999996" x="868.2" y="478.2" /><rect fill="white" height="3.5999999999999996" width="3.5999999999999996" x="418.2" y="388.2" /><rect fill="white" height="3.5999999999999996" width="3.5999999999999996" x="733.2" y="928.2" /><rect fill="white" height="3.5999999999999996" width="3.5999999999999996" x="283.2" y="343.2" /><rect fill="white" height="3.5999999999999996" width="3.5999999999999996" x="463.2" y="658.2" /><rect fill="white" height="3.5999999999999996" width="3.5999999999999996" x="553.2" y="478.2" /><rect fill="white" height="3.5999999999999996" width="3.5999999999999996" x="958.2" y="118.2" /><rect fill="white" height="3.5999999999999996" width="3.5999999999999996" x="103.2" y="388.2" /><rect fill="white" height="3.5999999999999996" width="3.5999999999999996" x="508.2" y="28.2" /><rect fill="white" height="3.5999999999999996" width="3.5999999999999996" x="598.2" y="748.2" /><rect fill="white" height="3.5999999999999996" width="3.5999999999999996" x="823.2" y="73.2" /><rect fill="white" height="3.5999999999999996" width="3.5999999999999996" x="1003.2" y="388.2" /><rect fill="white" height="3.5999999999999996" width="3.5999999999999996" x="868.2" y="343.2" /><rect fill="white" height="3.5999999999999996" width="3.5999999999999996" x="733.2" y="793.2" /><rect fill="white" height="3.5999999999999996" width="3.5999999999999996" x="1048.2" y="658.2" /><rect fill="white" height="3.5999999999999996" width="3.5999999999999996" x="418.2" y="253.2" /><rect fill="white" height="3.5999999999999996" width="3.5999999999999996" x="283.2" y="208.2" /><rect fill="white" height="3.5999999999999996" width="3.5999999999999996" x="643.2" y="1018.2" /><rect fill="white" height="3.5999999999999996" width="3.5999999999999996" x="463.2" y="523.2" /><rect fill="white" height="3.5999999999999996" width="3.5999999999999996" x="553.2" y="343.2" /><rect fill="white" height="3.5999999999999996" width="3.5999999999999996" x="103.2" y="253.2" /><rect fill="white" height="3.5999999999999996" width="3.5999999999999996" x="733.2" y="658.2" /><rect fill="white" height="3.5999999999999996" width="3.5999999999999996" x="598.2" y="613.2" /><rect fill="white" height="3.5999999999999996" width="3.5999999999999996" x="1003.2" y="253.2" /><rect fill="white" height="3.5999999999999996" width="3.5999999999999996" x="148.2" y="523.2" /><rect fill="white" height="3.5999999999999996" width="3.5999999999999996" x="868.2" y="208.2" /><rect fill="white" height="3.5999999999999996" width="3.5999999999999996" x="643.2" y="883.2" /><rect fill="white" height="3.5999999999999996" width="3.5999999999999996" x="1048.2" y="523.2" /><rect fill="white" height="3.5999999999999996" width="3.5999999999999996" x="778.2" y="928.2" /><rect fill="white" height="3.5999999999999996" width="3.5999999999999996" x="283.2" y="73.2" /><rect fill="white" height="3.5999999999999996" width="3.5999999999999996" x="463.2" y="388.2" /><rect fill="white" height="3.5999999999999996" width="3.5999999999999996" x="103.2" y="118.2" /><rect fill="white" height="3.5999999999999996" width="3.5999999999999996" x="733.2" y="523.2" /><rect fill="white" height="3.5999999999999996" width="3.5999999999999996" x="598.2" y="478.2" /><rect fill="white" height="3.5999999999999996" width="3.5999999999999996" x="1003.2" y="118.2" /><rect fill="white" height="3.5999999999999996" width="3.5999999999999996" x="148.2" y="388.2" /><rect fill="white" height="3.5999999999999996" width="3.5999999999999996" x="868.2" y="73.2" /><rect fill="white" height="3.5999999999999996" width="3.5999999999999996" x="643.2" y="748.2" /><rect fill="white" height="3.5999999999999996" width="3.5999999999999996" x="1048.2" y="388.2" /><rect fill="white" height="3.5999999999999996" width="3.5999999999999996" x="193.2" y="658.2" /><rect fill="white" height="3.5999999999999996" width="3.5999999999999996" x="778.2" y="793.2" /><rect fill="white" height="3.5999999999999996" width="3.5999999999999996" x="688.2" y="1018.2" /><rect fill="white" height="3.5999999999999996" width="3.5999999999999996" x="463.2" y="253.2" /><rect fill="white" height="3.5999999999999996" width="3.5999999999999996" x="553.2" y="73.2" /><rect fill="white" height="3.5999999999999996" width="3.5999999999999996" x="328.2" y="748.2" /><rect fill="white" height="3.5999999999999996" width="3.5999999999999996" x="598.2" y="343.2" /><rect fill="white" height="3.5999999999999996" width="3.5999999999999996" x="148.2" y="253.2" /><rect fill="white" height="3.5999999999999996" width="3.5999999999999996" x="778.2" y="658.2" /><rect fill="white" height="3.5999999999999996" width="3.5999999999999996" x="643.2" y="613.2" /><rect fill="white" height="3.5999999999999996" width="3.5999999999999996" x="1048.2" y="253.2" /><rect fill="white" height="3.5999999999999996" width="3.5999999999999996" x="688.2" y="883.2" /><rect fill="white" height="3.5999999999999996" width="3.5999999999999996" x="913.2" y="748.2" /><rect fill="white" height="3.5999999999999996" width="3.5999999999999996" x="733.2" y="253.2" /><rect fill="white" height="3.5999999999999996" width="3.5999999999999996" x="508.2" y="928.2" /><rect fill="white" height="3.5999999999999996" width="3.5999999999999996" x="598.2" y="208.2" /><rect fill="white" height="3.5999999999999996" width="3.5999999999999996" x="148.2" y="118.2" /><rect fill="white" height="3.5999999999999996" width="3.5999999999999996" x="778.2" y="523.2" /><rect fill="white" height="3.5999999999999996" width="3.5999999999999996" x="643.2" y="478.2" /><rect fill="white" height="3.5999999999999996" width="3.5999999999999996" x="1048.2" y="118.2" /><rect fill="white" height="3.5999999999999996" width="3.5999999999999996" x="193.2" y="388.2" /><rect fill="white" height="3.5999999999999996" width="3.5999999999999996" x="238.2" y="838.2" /><rect fill="white" height="3.5999999999999996" width="3.5999999999999996" x="688.2" y="748.2" /><rect fill="white" height="3.5999999999999996" width="3.5999999999999996" x="328.2" y="478.2" /><rect fill="white" height="3.5999999999999996" width="3.5999999999999996" x="733.2" y="118.2" /><rect fill="white" height="3.5999999999999996" width="3.5999999999999996" x="508.2" y="793.2" /><rect fill="white" height="3.5999999999999996" width="3.5999999999999996" x="598.2" y="73.2" /><rect fill="white" height="3.5999999999999996" width="3.5999999999999996" x="373.2" y="748.2" /><rect fill="white" height="3.5999999999999996" width="3.5999999999999996" x="778.2" y="388.2" /><rect fill="white" height="3.5999999999999996" width="3.5999999999999996" x="238.2" y="703.2" /><rect fill="white" height="3.5999999999999996" width="3.5999999999999996" x="823.2" y="838.2" /><rect fill="white" height="3.5999999999999996" width="3.5999999999999996" x="193.2" y="253.2" /><rect fill="white" height="3.5999999999999996" width="3.5999999999999996" x="283.2" y="973.2" /><rect fill="white" height="3.5999999999999996" width="3.5999999999999996" x="688.2" y="613.2" /><rect fill="white" height="3.5999999999999996" width="3.5999999999999996" x="913.2" y="478.2" /><rect fill="white" height="3.5999999999999996" width="3.5999999999999996" x="958.2" y="748.2" /><rect fill="white" height="3.5999999999999996" width="3.5999999999999996" x="508.2" y="658.2" /><rect fill="white" height="3.5999999999999996" width="3.5999999999999996" x="823.2" y="703.2" /><rect fill="white" height="3.5999999999999996" width="3.5999999999999996" x="373.2" y="613.2" /><rect fill="white" height="3.5999999999999996" width="3.5999999999999996" x="778.2" y="253.2" /><rect fill="white" height="3.5999999999999996" width="3.5999999999999996" x="553.2" y="928.2" /><rect fill="white" height="3.5999999999999996" width="3.5999999999999996" x="643.2" y="208.2" /><rect fill="white" height="3.5999999999999996" width="3.5999999999999996" x="238.2" y="568.2" /><rect fill="white" height="3.5999999999999996" width="3.5999999999999996" x="418.2" y="883.2" /><rect fill="white" height="3.5999999999999996" width="3.5999999999999996" x="283.2" y="838.2" /><rect fill="white" height="3.5999999999999996" width="3.5999999999999996" x="688.2" y="478.2" /><rect fill="white" height="3.5999999999999996" width="3.5999999999999996" x="913.2" y="343.2" /><rect fill="white" height="3.5999999999999996" width="3.5999999999999996" x="328.2" y="208.2" /><rect fill="white" height="3.5999999999999996" width="3.5999999999999996" x="508.2" y="523.2" /><rect fill="white" height="3.5999999999999996" width="3.5999999999999996" x="823.2" y="568.2" /><rect fill="white" height="3.5999999999999996" width="3.5999999999999996" x="373.2" y="478.2" /><rect fill="white" height="3.5999999999999996" width="3.5999999999999996" x="778.2" y="118.2" /><rect fill="white" height="3.5999999999999996" width="3.5999999999999996" x="238.2" y="433.2" /><rect fill="white" height="3.5999999999999996" width="3.5999999999999996" x="643.2" y="73.2" /><rect fill="white" height="3.5999999999999996" width="3.5999999999999996" x="553.2" y="793.2" /><rect fill="white" height="3.5999999999999996" width="3.5999999999999996" x="418.2" y="748.2" /><rect fill="white" height="3.5999999999999996" width="3.5999999999999996" x="283.2" y="703.2" /><rect fill="white" height="3.5999999999999996" width="3.5999999999999996" x="868.2" y="838.2" /><rect fill="white" height="3.5999999999999996" width="3.5999999999999996" x="913.2" y="208.2" /><rect fill="white" height="3.5999999999999996" width="3.5999999999999996" x="328.2" y="73.2" /><rect fill="white" height="3.5999999999999996" width="3.5999999999999996" x="958.2" y="478.2" /><rect fill="white" height="3.5999999999999996" width="3.5999999999999996" x="823.2" y="433.2" /><rect fill="white" height="3.5999999999999996" width="3.5999999999999996" x="508.2" y="388.2" /><rect fill="white" height="3.5999999999999996" width="3.5999999999999996" x="1003.2" y="748.2" /><rect fill="white" height="3.5999999999999996" width="3.5999999999999996" x="373.2" y="343.2" /><rect fill="white" height="3.5999999999999996" width="3.5999999999999996" x="238.2" y="298.2" /><rect fill="white" height="3.5999999999999996" width="3.5999999999999996" x="868.2" y="703.2" /><rect fill="white" height="3.5999999999999996" width="3.5999999999999996" x="418.2" y="613.2" /><rect fill="white" height="3.5999999999999996" width="3.5999999999999996" x="283.2" y="568.2" /><rect fill="white" height="3.5999999999999996" width="3.5999999999999996" x="688.2" y="208.2" /><rect fill="white" height="3.5999999999999996" width="3.5999999999999996" x="463.2" y="883.2" /><rect fill="white" height="3.5999999999999996" width="3.5999999999999996" x="913.2" y="73.2" /><rect fill="white" height="3.5999999999999996" width="3.5999999999999996" x="553.2" y="703.2" /><rect fill="white" height="3.5999999999999996" width="3.5999999999999996" x="958.2" y="343.2" /><rect fill="white" height="3.5999999999999996" width="3.5999999999999996" x="508.2" y="253.2" /><rect fill="white" height="3.5999999999999996" width="3.5999999999999996" x="823.2" y="298.2" /><rect fill="white" height="3.5999999999999996" width="3.5999999999999996" x="1003.2" y="613.2" /><rect fill="white" height="3.5999999999999996" width="3.5999999999999996" x="373.2" y="208.2" /><rect fill="white" height="3.5999999999999996" width="3.5999999999999996" x="238.2" y="163.2" /><rect fill="white" height="3.5999999999999996" width="3.5999999999999996" x="598.2" y="973.2" /><rect fill="white" height="3.5999999999999996" width="3.5999999999999996" x="418.2" y="478.2" /><rect fill="white" height="3.5999999999999996" width="3.5999999999999996" x="283.2" y="433.2" /><rect fill="white" height="3.5999999999999996" width="3.5999999999999996" x="688.2" y="73.2" /><rect fill="white" height="3.5999999999999996" width="3.5999999999999996" x="463.2" y="748.2" /><rect fill="white" height="3.5999999999999996" width="3.5999999999999996" x="553.2" y="568.2" /><rect fill="white" height="3.5999999999999996" width="3.5999999999999996" x="958.2" y="208.2" /><rect fill="white" height="3.5999999999999996" width="3.5999999999999996" x="103.2" y="478.2" /><rect fill="white" height="3.5999999999999996" width="3.5999999999999996" x="508.2" y="118.2" /><rect fill="white" height="3.5999999999999996" width="3.5999999999999996" x="598.2" y="838.2" /><rect fill="white" height="3.5999999999999996" width="3.5999999999999996" x="823.2" y="163.2" /><rect fill="white" height="3.5999999999999996" width="3.5999999999999996" x="1003.2" y="478.2" /><rect fill="white" height="3.5999999999999996" width="3.5999999999999996" x="868.2" y="433.2" /><rect fill="white" height="3.5999999999999996" width="3.5999999999999996" x="238.2" y="28.2" /><rect fill="white" height="3.5999999999999996" width="3.5999999999999996" x="418.2" y="343.2" /><rect fill="white" height="3.5999999999999996" width="3.5999999999999996" x="733.2" y="883.2" /><rect fill="white" height="3.5999999999999996" width="3.5999999999999996" x="283.2" y="298.2" /><rect fill="white" height="3.5999999999999996" width="3.5999999999999996" x="463.2" y="613.2" /><rect fill="white" height="3.5999999999999996" width="3.5999999999999996" x="553.2" y="433.2" /><rect fill="white" height="3.5999999999999996" width="3.5999999999999996" x="958.2" y="73.2" /><rect fill="white" height="3.5999999999999996" width="3.5999999999999996" x="103.2" y="343.2" /><rect fill="white" height="3.5999999999999996" width="3.5999999999999996" x="823.2" y="28.2" /><rect fill="white" height="3.5999999999999996" width="3.5999999999999996" x="733.2" y="748.2" /><rect fill="white" height="3.5999999999999996" width="3.5999999999999996" x="1003.2" y="343.2" /><rect fill="white" height="3.5999999999999996" width="3.5999999999999996" x="148.2" y="613.2" /><rect fill="white" height="3.5999999999999996" width="3.5999999999999996" x="868.2" y="298.2" /><rect fill="white" height="3.5999999999999996" width="3.5999999999999996" x="643.2" y="973.2" /><rect fill="white" height="3.5999999999999996" width="3.5999999999999996" x="1048.2" y="613.2" /><rect fill="white" height="3.5999999999999996" width="3.5999999999999996" x="418.2" y="208.2" /><rect fill="white" height="3.5999999999999996" width="3.5999999999999996" x="283.2" y="163.2" /><rect fill="white" height="3.5999999999999996" width="3.5999999999999996" x="598.2" y="703.2" /><rect fill="white" height="3.5999999999999996" width="3.5999999999999996" x="463.2" y="478.2" /><rect fill="white" height="3.5999999999999996" width="3.5999999999999996" x="553.2" y="298.2" /><rect fill="white" height="3.5999999999999996" width="3.5999999999999996" x="733.2" y="613.2" /><rect fill="white" height="3.5999999999999996" width="3.5999999999999996" x="103.2" y="208.2" /><rect fill="white" height="3.5999999999999996" width="3.5999999999999996" x="598.2" y="568.2" /><rect fill="white" height="3.5999999999999996" width="3.5999999999999996" x="1003.2" y="208.2" /><rect fill="white" height="3.5999999999999996" width="3.5999999999999996" x="148.2" y="478.2" /><rect fill="white" height="3.5999999999999996" width="3.5999999999999996" x="868.2" y="163.2" /><rect fill="white" height="3.5999999999999996" width="3.5999999999999996" x="643.2" y="838.2" /><rect fill="white" height="3.5999999999999996" width="3.5999999999999996" x="1048.2" y="478.2" /><rect fill="white" height="3.5999999999999996" width="3.5999999999999996" x="193.2" y="748.2" /><rect fill="white" height="3.5999999999999996" width="3.5999999999999996" x="283.2" y="28.2" /><rect fill="white" height="3.5999999999999996" width="3.5999999999999996" x="778.2" y="883.2" /><rect fill="white" height="3.5999999999999996" width="3.5999999999999996" x="463.2" y="343.2" /><rect fill="white" height="3.5999999999999996" width="3.5999999999999996" x="553.2" y="163.2" /><rect fill="white" height="3.5999999999999996" width="3.5999999999999996" x="733.2" y="478.2" /><rect fill="white" height="3.5999999999999996" width="3.5999999999999996" x="103.2" y="73.2" /><rect fill="white" height="3.5999999999999996" width="3.5999999999999996" x="598.2" y="433.2" /><rect fill="white" height="3.5999999999999996" width="3.5999999999999996" x="1003.2" y="73.2" /><rect fill="white" height="3.5999999999999996" width="3.5999999999999996" x="148.2" y="343.2" /><rect fill="white" height="3.5999999999999996" width="3.5999999999999996" x="868.2" y="28.2" /><rect fill="white" height="3.5999999999999996" width="3.5999999999999996" x="643.2" y="703.2" /><rect fill="white" height="3.5999999999999996" width="3.5999999999999996" x="1048.2" y="343.2" /><rect fill="white" height="3.5999999999999996" width="3.5999999999999996" x="193.2" y="613.2" /><rect fill="white" height="3.5999999999999996" width="3.5999999999999996" x="778.2" y="748.2" /><rect fill="white" height="3.5999999999999996" width="3.5999999999999996" x="688.2" y="973.2" /><rect fill="white" height="3.5999999999999996" width="3.5999999999999996" x="463.2" y="208.2" /><rect fill="white" height="3.5999999999999996" width="3.5999999999999996" x="553.2" y="28.2" /><rect fill="white" height="3.5999999999999996" width="3.5999999999999996" x="733.2" y="343.2" /><rect fill="white" height="3.5999999999999996" width="3.5999999999999996" x="778.2" y="613.2" /><rect fill="white" height="3.5999999999999996" width="3.5999999999999996" x="148.2" y="208.2" /><rect fill="white" height="3.5999999999999996" width="3.5999999999999996" x="238.2" y="928.2" /><rect fill="white" height="3.5999999999999996" width="3.5999999999999996" x="1048.2" y="208.2" /><rect fill="white" height="3.5999999999999996" width="3.5999999999999996" x="193.2" y="478.2" /><rect fill="white" height="3.5999999999999996" width="3.5999999999999996" x="643.2" y="568.2" /><rect fill="white" height="3.5999999999999996" width="3.5999999999999996" x="688.2" y="838.2" /><rect fill="white" height="3.5999999999999996" width="3.5999999999999996" x="463.2" y="73.2" /><rect fill="white" height="3.5999999999999996" width="3.5999999999999996" x="913.2" y="703.2" /><rect fill="white" height="3.5999999999999996" width="3.5999999999999996" x="328.2" y="568.2" /><rect fill="white" height="3.5999999999999996" width="3.5999999999999996" x="733.2" y="208.2" /></g></svg>