<?xml version="1.0" encoding="utf-8" ?>
<svg baseProfile="full" height="262.0" version="1.1" viewBox="-0.5 -0.5 499.00000000000006 262.0" width="499.00000000000006" xmlns="http://www.w3.org/2000/svg" xmlns:ev="http://www.w3.org/2001/xml-events" xmlns:xlink="http://www.w3.org/1999/xlink"><defs><marker id="arrow-head" markerHeight="6.0" markerWidth="3.63" orient="auto" refX="3.5999999999999996" refY="3.0"><polyline fill="none" points="0.75,0.75 3.0,3.0 0.75,5.25" stroke="black" /></marker></defs><g fill="none" stroke="black" stroke-width="1"><rect height="90" width="30" x="30" y="96.0" /><circle cx="30" cy="111.0" r="3.75px" /><circle cx="30" cy="141.0" r="3.75px" /><circle cx="30" cy="171.0" r="3.75px" /><circle cx="60" cy="111.0" fill="black" r="3.75px" /></g><g fill="none" stroke="black" stroke-width="1"><rect height="90" width="30" x="90" y="96.0" /><circle cx="90" cy="111.0" r="3.75px" /><circle cx="90" cy="141.0" r="3.75px" /><circle cx="90" cy="171.0" r="3.75px" /><circle cx="120" cy="111.0" fill="black" r="3.75px" /></g><g fill="none" stroke="black" stroke-width="1"><rect height="90" width="30" x="150" y="96.0" /><circle cx="150" cy="111.0" r="3.75px" /><circle cx="150" cy="141.0" r="3.75px" /><circle cx="150" cy="171.0" r="3.75px" /><circle cx="180" cy="111.0" fill="black" r="3.75px" /></g><g fill="none" stroke="black" stroke-width="1"><rect height="90" width="30" x="210" y="96.0" /><circle cx="210" cy="111.0" r="3.75px" /><circle cx="210" cy="141.0" r="3.75px" /><circle cx="210" cy="171.0" r="3.75px" /><circle cx="240" cy="111.0" fill="black" r="3.75px" /></g><g fill="none" stroke="black" stroke-width="1"><rect height="90" width="30" x="270" y="96.0" /><circle cx="270" cy="111.0" r="3.75px" /><circle cx="270" cy="141.0" r="3.75px" /><circle cx="270" cy="171.0" r="3.75px" /><circle cx="300" cy="111.0" fill="black" r="3.75px" /></g><g fill="none" stroke="black" stroke-width="1"><rect height="90" width="30" x="330" y="96.0" /><circle cx="330" cy="111.0" r="3.75px" /><circle cx="330" cy="141.0" r="3.75px" /><circle cx="330" cy="171.0" r="3.75px" /><circle cx="360" cy="111.0" fill="black" r="3.75px" /></g><g fill="none" stroke="black" stroke-width="1"><rect height="90" width="30" x="390" y="96.0" /><circle cx="390" cy="111.0" r="3.75px" /><circle cx="390" cy="141.0" r="3.75px" /><circle cx="390" cy="171.0" r="3.75px" /><circle cx="420" cy="111.0" fill="black" r="3.75px" /></g><g fill="none" stroke="black" stroke-width="1"><rect height="90" width="30" x="450" y="96.0" /><circle cx="450" cy="111.0" r="3.75px" /><circle cx="450" cy="141.0" r="3.75px" /><circle cx="450" cy="171.0" r="3.75px" /><circle cx="480" cy="111.0" fill="black" r="3.75px" /></g><g fill="none" stroke="black" stroke-width="1"><rect height="261.0" width="498.00000000000006" x="0" y="0" /><circle cx="0.0" cy="6.0" r="3.75px" /><circle cx="0" cy="15.0" r="3.75px" /><circle cx="0" cy="24.0" r="3.75px" /><circle cx="0" cy="33.0" r="3.75px" /><circle cx="0" cy="42.0" r="3.75px" /><circle cx="0" cy="51.0" r="3.75px" /><circle cx="0" cy="60.0" r="3.75px" /><circle cx="0" cy="69.0" r="3.75px" /><circle cx="0" cy="77.99999999999999" r="3.75px" /><circle cx="0" cy="87.00000000000001" r="3.75px" /><circle cx="498.00000000000006" cy="192.0" fill="black" r="3.75px" /><circle cx="498.00000000000006" cy="201.0" fill="black" r="3.75px" /><circle cx="498.00000000000006" cy="210.0" fill="black" r="3.75px" /><circle cx="498.00000000000006" cy="219.00000000000003" fill="black" r="3.75px" /><circle cx="498.00000000000006" cy="228.00000000000003" fill="black" r="3.75px" /><circle cx="498.00000000000006" cy="237.0" fill="black" r="3.75px" /><circle cx="498.00000000000006" cy="245.99999999999997" fill="black" r="3.75px" /><circle cx="498.00000000000006" cy="255.0" fill="black" r="3.75px" /><polyline points="3.75,6.0 21.0,6.0 21.0,111.0 26.25,111.0" stroke="white" stroke-width="3" /><polyline marker-end="url(#arrow-head)" points="3.75,6.0 21.0,6.0 21.0,111.0 26.25,111.0" /><polyline points="3.75,6.0 81.0,6.0 81.0,111.0 86.25,111.0" stroke="white" stroke-width="3" /><polyline marker-end="url(#arrow-head)" points="3.75,6.0 81.0,6.0 81.0,111.0 86.25,111.0" /><polyline points="3.75,6.0 141.0,6.0 141.0,111.0 146.25,111.0" stroke="white" stroke-width="3" /><polyline marker-end="url(#arrow-head)" points="3.75,6.0 141.0,6.0 141.0,111.0 146.25,111.0" /><polyline points="3.75,6.0 201.0,6.0 201.0,111.0 206.25,111.0" stroke="white" stroke-width="3" /><polyline marker-end="url(#arrow-head)" points="3.75,6.0 201.0,6.0 201.0,111.0 206.25,111.0" /><polyline points="3.75,6.0 261.0,6.0 261.0,111.0 266.25,111.0" stroke="white" stroke-width="3" /><polyline marker-end="url(#arrow-head)" points="3.75,6.0 261.0,6.0 261.0,111.0 266.25,111.0" /><polyline points="3.75,6.0 321.0,6.0 321.0,111.0 326.25,111.0" stroke="white" stroke-width="3" /><polyline marker-end="url(#arrow-head)" points="3.75,6.0 321.0,6.0 321.0,111.0 326.25,111.0" /><polyline points="3.75,6.0 381.0,6.0 381.0,111.0 386.25,111.0" stroke="white" stroke-width="3" /><polyline marker-end="url(#arrow-head)" points="3.75,6.0 381.0,6.0 381.0,111.0 386.25,111.0" /><polyline points="3.75,6.0 441.0,6.0 441.0,111.0 446.25,111.0" stroke="white" stroke-width="3" /><polyline marker-end="url(#arrow-head)" points="3.75,6.0 441.0,6.0 441.0,111.0 446.25,111.0" /><polyline points="3.75,15.0 15.0,15.0 15.0,171.0 26.25,171.0" stroke="white" stroke-width="3" /><polyline marker-end="url(#arrow-head)" points="3.75,15.0 15.0,15.0 15.0,171.0 26.25,171.0" /><polyline points="3.75,15.0 75.0,15.0 75.0,171.0 86.25,171.0" stroke="white" stroke-width="3" /><polyline marker-end="url(#arrow-head)" points="3.75,15.0 75.0,15.0 75.0,171.0 86.25,171.0" /><polyline points="3.75,15.0 135.0,15.0 135.0,171.0 146.25,171.0" stroke="white" stroke-width="3" /><polyline marker-end="url(#arrow-head)" points="3.75,15.0 135.0,15.0 135.0,171.0 146.25,171.0" /><polyline points="3.75,15.0 195.0,15.0 195.0,171.0 206.25,171.0" stroke="white" stroke-width="3" /><polyline marker-end="url(#arrow-head)" points="3.75,15.0 195.0,15.0 195.0,171.0 206.25,171.0" /><polyline points="3.75,15.0 255.0,15.0 255.0,171.0 266.25,171.0" stroke="white" stroke-width="3" /><polyline marker-end="url(#arrow-head)" points="3.75,15.0 255.0,15.0 255.0,171.0 266.25,171.0" /><polyline points="3.75,15.0 315.0,15.0 315.0,171.0 326.25,171.0" stroke="white" stroke-width="3" /><polyline marker-end="url(#arrow-head)" points="3.75,15.0 315.0,15.0 315.0,171.0 326.25,171.0" /><polyline points="3.75,15.0 375.0,15.0 375.0,171.0 386.25,171.0" stroke="white" stroke-width="3" /><polyline marker-end="url(#arrow-head)" points="3.75,15.0 375.0,15.0 375.0,171.0 386.25,171.0" /><polyline points="3.75,15.0 435.0,15.0 435.0,171.0 446.25,171.0" stroke="white" stroke-width="3" /><polyline marker-end="url(#arrow-head)" points="3.75,15.0 435.0,15.0 435.0,171.0 446.25,171.0" /><polyline points="3.75,24.0 9.0,24.0 9.0,141.0 26.25,141.0" stroke="white" stroke-width="3" /><polyline marker-end="url(#arrow-head)" points="3.75,24.0 9.0,24.0 9.0,141.0 26.25,141.0" /><polyline points="3.75,33.0 69.0,33.0 69.0,141.0 86.25,141.0" stroke="white" stroke-width="3" /><polyline marker-end="url(#arrow-head)" points="3.75,33.0 69.0,33.0 69.0,141.0 86.25,141.0" /><polyline points="3.75,42.0 129.0,42.0 129.0,141.0 146.25,141.0" stroke="white" stroke-width="3" /><polyline marker-end="url(#arrow-head)" points="3.75,42.0 129.0,42.0 129.0,141.0 146.25,141.0" /><polyline points="3.75,51.0 189.0,51.0 189.0,141.0 206.25,141.0" stroke="white" stroke-width="3" /><polyline marker-end="url(#arrow-head)" points="3.75,51.0 189.0,51.0 189.0,141.0 206.25,141.0" /><polyline points="3.75,60.0 249.00000000000003,60.0 249.00000000000003,141.0 266.25,141.0" stroke="white" stroke-width="3" /><polyline marker-end="url(#arrow-head)" points="3.75,60.0 249.00000000000003,60.0 249.00000000000003,141.0 266.25,141.0" /><polyline points="3.75,69.0 309.0,69.0 309.0,141.0 326.25,141.0" stroke="white" stroke-width="3" /><polyline marker-end="url(#arrow-head)" points="3.75,69.0 309.0,69.0 309.0,141.0 326.25,141.0" /><polyline points="3.75,77.99999999999999 369.0,77.99999999999999 369.0,141.0 386.25,141.0" stroke="white" stroke-width="3" /><polyline marker-end="url(#arrow-head)" points="3.75,77.99999999999999 369.0,77.99999999999999 369.0,141.0 386.25,141.0" /><polyline points="3.75,87.00000000000001 429.0,87.00000000000001 429.0,141.0 446.25,141.0" stroke="white" stroke-width="3" /><polyline marker-end="url(#arrow-head)" points="3.75,87.00000000000001 429.0,87.00000000000001 429.0,141.0 446.25,141.0" /><polyline points="63.75,111.0 66.0,111.0 66.0,192.0 494.25000000000006,192.0" stroke="white" stroke-width="3" /><polyline marker-end="url(#arrow-head)" points="63.75,111.0 66.0,111.0 66.0,192.0 494.25000000000006,192.0" /><polyline points="123.75,111.0 126.0,111.0 126.0,201.0 494.25000000000006,201.0" stroke="white" stroke-width="3" /><polyline marker-end="url(#arrow-head)" points="123.75,111.0 126.0,111.0 126.0,201.0 494.25000000000006,201.0" /><polyline points="183.75,111.0 186.0,111.0 186.0,210.0 494.25000000000006,210.0" stroke="white" stroke-width="3" /><polyline marker-end="url(#arrow-head)" points="183.75,111.0 186.0,111.0 186.0,210.0 494.25000000000006,210.0" /><polyline points="243.75,111.0 245.99999999999997,111.0 245.99999999999997,219.00000000000003 494.25000000000006,219.00000000000003" stroke="white" stroke-width="3" /><polyline marker-end="url(#arrow-head)" points="243.75,111.0 245.99999999999997,111.0 245.99999999999997,219.00000000000003 494.25000000000006,219.00000000000003" /><polyline points="303.75,111.0 306.0,111.0 306.0,228.00000000000003 494.25000000000006,228.00000000000003" stroke="white" stroke-width="3" /><polyline marker-end="url(#arrow-head)" points="303.75,111.0 306.0,111.0 306.0,228.00000000000003 494.25000000000006,228.00000000000003" /><polyline points="363.75,111.0 366.0,111.0 366.0,237.0 494.25000000000006,237.0" stroke="white" stroke-width="3" /><polyline marker-end="url(#arrow-head)" points="363.75,111.0 366.0,111.0 366.0,237.0 494.25000000000006,237.0" /><polyline points="423.75,111.0 426.0,111.0 426.0,245.99999999999997 494.25000000000006,245.99999999999997" stroke="white" stroke-width="3" /><polyline marker-end="url(#arrow-head)" points="423.75,111.0 426.0,111.0 426.0,245.99999999999997 494.25000000000006,245.99999999999997" /><polyline points="483.75,111.0 486.0,111.0 486.0,255.0 494.25000000000006,255.0" stroke="white" stroke-width="3" /><polyline marker-end="url(#arrow-head)" points="483.75,111.0 486.0,111.0 486.0,255.0 494.25000000000006,255.0" /></g></svg>