<?xml version="1.0" encoding="utf-8" ?>
<svg baseProfile="full" height="262.0" version="1.1" viewBox="-0.5 -0.5 1219.0 262.0" width="1219.0" xmlns="http://www.w3.org/2000/svg" xmlns:ev="http://www.w3.org/2001/xml-events" xmlns:xlink="http://www.w3.org/1999/xlink"><defs><marker id="arrow-head" markerHeight="6.0" markerWidth="3.63" orient="auto" refX="3.5999999999999996" refY="3.0"><polyline fill="none" points="0.75,0.75 3.0,3.0 0.75,5.25" stroke="black" /></marker></defs><g fill="none" stroke="black" stroke-width="1"><rect height="90" width="120" x="30" y="96.0" /><circle cx="75.0" cy="120.0" r="15.0px" /><circle cx="75.0" cy="162.0" r="15.0px" /><circle cx="120" cy="120.0" r="15.0px" /><circle cx="30" cy="111.0" r="3.75px" /><circle cx="30" cy="141.0" r="3.75px" /><circle cx="30" cy="171.0" r="3.75px" /><circle cx="150" cy="111.0" fill="black" r="3.75px" /><line stroke="white" stroke-width="5" x1="33.67717753384095" x2="60.2912898646362" y1="111.7354355067682" y2="117.05825797292724" /><line marker-end="url(#arrow-head)" x1="33.67717753384095" x2="60.2912898646362" y1="111.7354355067682" y2="117.05825797292724" /><line stroke="white" stroke-width="5" x1="32.48108113907567" x2="65.07567544369732" y1="113.81189195761911" y2="150.75243216952364" /><line marker-end="url(#arrow-head)" x1="32.48108113907567" x2="65.07567544369732" y1="113.81189195761911" y2="150.75243216952364" /><line stroke="white" stroke-width="5" x1="33.39818677498224" x2="61.407252900071015" y1="142.58582049499174" y2="155.65671802003317" /><line marker-end="url(#arrow-head)" x1="33.39818677498224" x2="61.407252900071015" y1="142.58582049499174" y2="155.65671802003317" /><line stroke="white" stroke-width="5" x1="33.67717753384095" x2="60.2912898646362" y1="170.26456449323183" y2="164.94174202707276" /><line marker-end="url(#arrow-head)" x1="33.67717753384095" x2="60.2912898646362" y1="170.26456449323183" y2="164.94174202707276" /><line stroke="white" stroke-width="5" x1="134.36739427831728" x2="146.40815143042067" y1="115.68978171650483" y2="112.0775545708738" /><line marker-end="url(#arrow-head)" x1="134.36739427831728" x2="146.40815143042067" y1="115.68978171650483" y2="112.0775545708738" /><line stroke="white" stroke-width="5" x1="75.0" x2="75.0" y1="135.0" y2="147.0" /><line marker-end="url(#arrow-head)" x1="75.0" x2="75.0" y1="135.0" y2="147.0" /><line stroke="white" stroke-width="5" x1="90.0" x2="105.0" y1="120.0" y2="120.0" /><line marker-end="url(#arrow-head)" x1="90.0" x2="105.0" y1="120.0" y2="120.0" /><line stroke="white" stroke-width="5" x1="85.96582902364304" x2="109.03417097635696" y1="151.76522624459986" y2="130.23477375540017" /><line marker-end="url(#arrow-head)" x1="85.96582902364304" x2="109.03417097635696" y1="151.76522624459986" y2="130.23477375540017" /></g><g fill="none" stroke="black" stroke-width="1"><rect height="90" width="120" x="180" y="96.0" /><circle cx="225.0" cy="120.0" r="15.0px" /><circle cx="225.0" cy="162.0" r="15.0px" /><circle cx="270" cy="120.0" r="15.0px" /><circle cx="180" cy="111.0" r="3.75px" /><circle cx="180" cy="141.0" r="3.75px" /><circle cx="180" cy="171.0" r="3.75px" /><circle cx="300" cy="111.0" fill="black" r="3.75px" /><line stroke="white" stroke-width="5" x1="183.67717753384096" x2="210.2912898646362" y1="111.7354355067682" y2="117.05825797292724" /><line marker-end="url(#arrow-head)" x1="183.67717753384096" x2="210.2912898646362" y1="111.7354355067682" y2="117.05825797292724" /><line stroke="white" stroke-width="5" x1="182.48108113907568" x2="215.07567544369732" y1="113.81189195761911" y2="150.75243216952364" /><line marker-end="url(#arrow-head)" x1="182.48108113907568" x2="215.07567544369732" y1="113.81189195761911" y2="150.75243216952364" /><line stroke="white" stroke-width="5" x1="183.39818677498224" x2="211.40725290007103" y1="142.58582049499174" y2="155.65671802003317" /><line marker-end="url(#arrow-head)" x1="183.39818677498224" x2="211.40725290007103" y1="142.58582049499174" y2="155.65671802003317" /><line stroke="white" stroke-width="5" x1="183.67717753384096" x2="210.2912898646362" y1="170.26456449323183" y2="164.94174202707276" /><line marker-end="url(#arrow-head)" x1="183.67717753384096" x2="210.2912898646362" y1="170.26456449323183" y2="164.94174202707276" /><line stroke="white" stroke-width="5" x1="284.3673942783173" x2="296.40815143042073" y1="115.68978171650483" y2="112.0775545708738" /><line marker-end="url(#arrow-head)" x1="284.3673942783173" x2="296.40815143042073" y1="115.68978171650483" y2="112.0775545708738" /><line stroke="white" stroke-width="5" x1="225.0" x2="225.0" y1="135.0" y2="147.0" /><line marker-end="url(#arrow-head)" x1="225.0" x2="225.0" y1="135.0" y2="147.0" /><line stroke="white" stroke-width="5" x1="240.0" x2="255.0" y1="120.0" y2="120.0" /><line marker-end="url(#arrow-head)" x1="240.0" x2="255.0" y1="120.0" y2="120.0" /><line stroke="white" stroke-width="5" x1="235.96582902364304" x2="259.03417097635696" y1="151.76522624459986" y2="130.23477375540017" /><line marker-end="url(#arrow-head)" x1="235.96582902364304" x2="259.03417097635696" y1="151.76522624459986" y2="130.23477375540017" /></g><g fill="none" stroke="black" stroke-width="1"><rect height="90" width="120" x="330" y="96.0" /><circle cx="375.0" cy="120.0" r="15.0px" /><circle cx="375.0" cy="162.0" r="15.0px" /><circle cx="420" cy="120.0" r="15.0px" /><circle cx="330" cy="111.0" r="3.75px" /><circle cx="330" cy="141.0" r="3.75px" /><circle cx="330" cy="171.0" r="3.75px" /><circle cx="450" cy="111.0" fill="black" r="3.75px" /><line stroke="white" stroke-width="5" x1="333.67717753384096" x2="360.2912898646362" y1="111.7354355067682" y2="117.05825797292724" /><line marker-end="url(#arrow-head)" x1="333.67717753384096" x2="360.2912898646362" y1="111.7354355067682" y2="117.05825797292724" /><line stroke="white" stroke-width="5" x1="332.4810811390757" x2="365.0756754436973" y1="113.81189195761911" y2="150.75243216952364" /><line marker-end="url(#arrow-head)" x1="332.4810811390757" x2="365.0756754436973" y1="113.81189195761911" y2="150.75243216952364" /><line stroke="white" stroke-width="5" x1="333.39818677498226" x2="361.40725290007106" y1="142.58582049499174" y2="155.65671802003317" /><line marker-end="url(#arrow-head)" x1="333.39818677498226" x2="361.40725290007106" y1="142.58582049499174" y2="155.65671802003317" /><line stroke="white" stroke-width="5" x1="333.67717753384096" x2="360.2912898646362" y1="170.26456449323183" y2="164.94174202707276" /><line marker-end="url(#arrow-head)" x1="333.67717753384096" x2="360.2912898646362" y1="170.26456449323183" y2="164.94174202707276" /><line stroke="white" stroke-width="5" x1="434.3673942783173" x2="446.40815143042073" y1="115.68978171650483" y2="112.0775545708738" /><line marker-end="url(#arrow-head)" x1="434.3673942783173" x2="446.40815143042073" y1="115.68978171650483" y2="112.0775545708738" /><line stroke="white" stroke-width="5" x1="375.0" x2="375.0" y1="135.0" y2="147.0" /><line marker-end="url(#arrow-head)" x1="375.0" x2="375.0" y1="135.0" y2="147.0" /><line stroke="white" stroke-width="5" x1="390.0" x2="405.0" y1="120.0" y2="120.0" /><line marker-end="url(#arrow-head)" x1="390.0" x2="405.0" y1="120.0" y2="120.0" /><line stroke="white" stroke-width="5" x1="385.96582902364304" x2="409.03417097635696" y1="151.76522624459986" y2="130.23477375540017" /><line marker-end="url(#arrow-head)" x1="385.96582902364304" x2="409.03417097635696" y1="151.76522624459986" y2="130.23477375540017" /></g><g fill="none" stroke="black" stroke-width="1"><rect height="90" width="120" x="480" y="96.0" /><circle cx="525.0" cy="120.0" r="15.0px" /><circle cx="525.0" cy="162.0" r="15.0px" /><circle cx="570" cy="120.0" r="15.0px" /><circle cx="480" cy="111.0" r="3.75px" /><circle cx="480" cy="141.0" r="3.75px" /><circle cx="480" cy="171.0" r="3.75px" /><circle cx="600" cy="111.0" fill="black" r="3.75px" /><line stroke="white" stroke-width="5" x1="483.677177533841" x2="510.29128986463616" y1="111.7354355067682" y2="117.05825797292724" /><line marker-end="url(#arrow-head)" x1="483.677177533841" x2="510.29128986463616" y1="111.7354355067682" y2="117.05825797292724" /><line stroke="white" stroke-width="5" x1="482.4810811390757" x2="515.0756754436973" y1="113.81189195761911" y2="150.75243216952364" /><line marker-end="url(#arrow-head)" x1="482.4810811390757" x2="515.0756754436973" y1="113.81189195761911" y2="150.75243216952364" /><line stroke="white" stroke-width="5" x1="483.39818677498226" x2="511.40725290007106" y1="142.58582049499174" y2="155.65671802003317" /><line marker-end="url(#arrow-head)" x1="483.39818677498226" x2="511.40725290007106" y1="142.58582049499174" y2="155.65671802003317" /><line stroke="white" stroke-width="5" x1="483.677177533841" x2="510.29128986463616" y1="170.26456449323183" y2="164.94174202707276" /><line marker-end="url(#arrow-head)" x1="483.677177533841" x2="510.29128986463616" y1="170.26456449323183" y2="164.94174202707276" /><line stroke="white" stroke-width="5" x1="584.3673942783173" x2="596.4081514304206" y1="115.68978171650483" y2="112.0775545708738" /><line marker-end="url(#arrow-head)" x1="584.3673942783173" x2="596.4081514304206" y1="115.68978171650483" y2="112.0775545708738" /><line stroke="white" stroke-width="5" x1="525.0" x2="525.0" y1="135.0" y2="147.0" /><line marker-end="url(#arrow-head)" x1="525.0" x2="525.0" y1="135.0" y2="147.0" /><line stroke="white" stroke-width="5" x1="540.0" x2="555.0" y1="120.0" y2="120.0" /><line marker-end="url(#arrow-head)" x1="540.0" x2="555.0" y1="120.0" y2="120.0" /><line stroke="white" stroke-width="5" x1="535.965829023643" x2="559.034170976357" y1="151.76522624459986" y2="130.23477375540017" /><line marker-end="url(#arrow-head)" x1="535.965829023643" x2="559.034170976357" y1="151.76522624459986" y2="130.23477375540017" /></g><g fill="none" stroke="black" stroke-width="1"><rect height="90" width="120" x="630" y="96.0" /><circle cx="675.0" cy="120.0" r="15.0px" /><circle cx="675.0" cy="162.0" r="15.0px" /><circle cx="720" cy="120.0" r="15.0px" /><circle cx="630" cy="111.0" r="3.75px" /><circle cx="630" cy="141.0" r="3.75px" /><circle cx="630" cy="171.0" r="3.75px" /><circle cx="750" cy="111.0" fill="black" r="3.75px" /><line stroke="white" stroke-width="5" x1="633.677177533841" x2="660.2912898646362" y1="111.7354355067682" y2="117.05825797292724" /><line marker-end="url(#arrow-head)" x1="633.677177533841" x2="660.2912898646362" y1="111.7354355067682" y2="117.05825797292724" /><line stroke="white" stroke-width="5" x1="632.4810811390757" x2="665.0756754436973" y1="113.81189195761911" y2="150.75243216952364" /><line marker-end="url(#arrow-head)" x1="632.4810811390757" x2="665.0756754436973" y1="113.81189195761911" y2="150.75243216952364" /><line stroke="white" stroke-width="5" x1="633.3981867749823" x2="661.4072529000711" y1="142.58582049499174" y2="155.65671802003317" /><line marker-end="url(#arrow-head)" x1="633.3981867749823" x2="661.4072529000711" y1="142.58582049499174" y2="155.65671802003317" /><line stroke="white" stroke-width="5" x1="633.677177533841" x2="660.2912898646362" y1="170.26456449323183" y2="164.94174202707276" /><line marker-end="url(#arrow-head)" x1="633.677177533841" x2="660.2912898646362" y1="170.26456449323183" y2="164.94174202707276" /><line stroke="white" stroke-width="5" x1="734.3673942783173" x2="746.4081514304206" y1="115.68978171650483" y2="112.0775545708738" /><line marker-end="url(#arrow-head)" x1="734.3673942783173" x2="746.4081514304206" y1="115.68978171650483" y2="112.0775545708738" /><line stroke="white" stroke-width="5" x1="675.0" x2="675.0" y1="135.0" y2="147.0" /><line marker-end="url(#arrow-head)" x1="675.0" x2="675.0" y1="135.0" y2="147.0" /><line stroke="white" stroke-width="5" x1="690.0" x2="705.0" y1="120.0" y2="120.0" /><line marker-end="url(#arrow-head)" x1="690.0" x2="705.0" y1="120.0" y2="120.0" /><line stroke="white" stroke-width="5" x1="685.965829023643" x2="709.034170976357" y1="151.76522624459986" y2="130.23477375540017" /><line marker-end="url(#arrow-head)" x1="685.965829023643" x2="709.034170976357" y1="151.76522624459986" y2="130.23477375540017" /></g><g fill="none" stroke="black" stroke-width="1"><rect height="90" width="120" x="780" y="96.0" /><circle cx="825.0" cy="120.0" r="15.0px" /><circle cx="825.0" cy="162.0" r="15.0px" /><circle cx="870" cy="120.0" r="15.0px" /><circle cx="780" cy="111.0" r="3.75px" /><circle cx="780" cy="141.0" r="3.75px" /><circle cx="780" cy="171.0" r="3.75px" /><circle cx="900" cy="111.0" fill="black" r="3.75px" /><line stroke="white" stroke-width="5" x1="783.677177533841" x2="810.2912898646362" y1="111.7354355067682" y2="117.05825797292724" /><line marker-end="url(#arrow-head)" x1="783.677177533841" x2="810.2912898646362" y1="111.7354355067682" y2="117.05825797292724" /><line stroke="white" stroke-width="5" x1="782.4810811390757" x2="815.0756754436973" y1="113.81189195761911" y2="150.75243216952364" /><line marker-end="url(#arrow-head)" x1="782.4810811390757" x2="815.0756754436973" y1="113.81189195761911" y2="150.75243216952364" /><line stroke="white" stroke-width="5" x1="783.3981867749823" x2="811.4072529000711" y1="142.58582049499174" y2="155.65671802003317" /><line marker-end="url(#arrow-head)" x1="783.3981867749823" x2="811.4072529000711" y1="142.58582049499174" y2="155.65671802003317" /><line stroke="white" stroke-width="5" x1="783.677177533841" x2="810.2912898646362" y1="170.26456449323183" y2="164.94174202707276" /><line marker-end="url(#arrow-head)" x1="783.677177533841" x2="810.2912898646362" y1="170.26456449323183" y2="164.94174202707276" /><line stroke="white" stroke-width="5" x1="884.3673942783173" x2="896.4081514304206" y1="115.68978171650483" y2="112.0775545708738" /><line marker-end="url(#arrow-head)" x1="884.3673942783173" x2="896.4081514304206" y1="115.68978171650483" y2="112.0775545708738" /><line stroke="white" stroke-width="5" x1="825.0" x2="825.0" y1="135.0" y2="147.0" /><line marker-end="url(#arrow-head)" x1="825.0" x2="825.0" y1="135.0" y2="147.0" /><line stroke="white" stroke-width="5" x1="840.0" x2="855.0" y1="120.0" y2="120.0" /><line marker-end="url(#arrow-head)" x1="840.0" x2="855.0" y1="120.0" y2="120.0" /><line stroke="white" stroke-width="5" x1="835.965829023643" x2="859.034170976357" y1="151.76522624459986" y2="130.23477375540017" /><line marker-end="url(#arrow-head)" x1="835.965829023643" x2="859.034170976357" y1="151.76522624459986" y2="130.23477375540017" /></g><g fill="none" stroke="black" stroke-width="1"><rect height="90" width="120" x="930" y="96.0" /><circle cx="975.0" cy="120.0" r="15.0px" /><circle cx="975.0" cy="162.0" r="15.0px" /><circle cx="1020" cy="120.0" r="15.0px" /><circle cx="930" cy="111.0" r="3.75px" /><circle cx="930" cy="141.0" r="3.75px" /><circle cx="930" cy="171.0" r="3.75px" /><circle cx="1050" cy="111.0" fill="black" r="3.75px" /><line stroke="white" stroke-width="5" x1="933.677177533841" x2="960.2912898646363" y1="111.7354355067682" y2="117.05825797292724" /><line marker-end="url(#arrow-head)" x1="933.677177533841" x2="960.2912898646363" y1="111.7354355067682" y2="117.05825797292724" /><line stroke="white" stroke-width="5" x1="932.4810811390757" x2="965.0756754436973" y1="113.81189195761911" y2="150.75243216952364" /><line marker-end="url(#arrow-head)" x1="932.4810811390757" x2="965.0756754436973" y1="113.81189195761911" y2="150.75243216952364" /><line stroke="white" stroke-width="5" x1="933.3981867749823" x2="961.4072529000711" y1="142.58582049499174" y2="155.65671802003317" /><line marker-end="url(#arrow-head)" x1="933.3981867749823" x2="961.4072529000711" y1="142.58582049499174" y2="155.65671802003317" /><line stroke="white" stroke-width="5" x1="933.677177533841" x2="960.2912898646363" y1="170.26456449323183" y2="164.94174202707276" /><line marker-end="url(#arrow-head)" x1="933.677177533841" x2="960.2912898646363" y1="170.26456449323183" y2="164.94174202707276" /><line stroke="white" stroke-width="5" x1="1034.367394278317" x2="1046.4081514304207" y1="115.68978171650483" y2="112.0775545708738" /><line marker-end="url(#arrow-head)" x1="1034.367394278317" x2="1046.4081514304207" y1="115.68978171650483" y2="112.0775545708738" /><line stroke="white" stroke-width="5" x1="975.0" x2="975.0" y1="135.0" y2="147.0" /><line marker-end="url(#arrow-head)" x1="975.0" x2="975.0" y1="135.0" y2="147.0" /><line stroke="white" stroke-width="5" x1="990.0" x2="1005.0" y1="120.0" y2="120.0" /><line marker-end="url(#arrow-head)" x1="990.0" x2="1005.0" y1="120.0" y2="120.0" /><line stroke="white" stroke-width="5" x1="985.965829023643" x2="1009.034170976357" y1="151.76522624459986" y2="130.23477375540017" /><line marker-end="url(#arrow-head)" x1="985.965829023643" x2="1009.034170976357" y1="151.76522624459986" y2="130.23477375540017" /></g><g fill="none" stroke="black" stroke-width="1"><rect height="90" width="120" x="1080" y="96.0" /><circle cx="1125.0" cy="120.0" r="15.0px" /><circle cx="1125.0" cy="162.0" r="15.0px" /><circle cx="1170" cy="120.0" r="15.0px" /><circle cx="1080" cy="111.0" r="3.75px" /><circle cx="1080" cy="141.0" r="3.75px" /><circle cx="1080" cy="171.0" r="3.75px" /><circle cx="1200" cy="111.0" fill="black" r="3.75px" /><line stroke="white" stroke-width="5" x1="1083.677177533841" x2="1110.2912898646362" y1="111.7354355067682" y2="117.05825797292724" /><line marker-end="url(#arrow-head)" x1="1083.677177533841" x2="1110.2912898646362" y1="111.7354355067682" y2="117.05825797292724" /><line stroke="white" stroke-width="5" x1="1082.4810811390757" x2="1115.0756754436973" y1="113.81189195761911" y2="150.75243216952364" /><line marker-end="url(#arrow-head)" x1="1082.4810811390757" x2="1115.0756754436973" y1="113.81189195761911" y2="150.75243216952364" /><line stroke="white" stroke-width="5" x1="1083.3981867749824" x2="1111.407252900071" y1="142.58582049499174" y2="155.65671802003317" /><line marker-end="url(#arrow-head)" x1="1083.3981867749824" x2="1111.407252900071" y1="142.58582049499174" y2="155.65671802003317" /><line stroke="white" stroke-width="5" x1="1083.677177533841" x2="1110.2912898646362" y1="170.26456449323183" y2="164.94174202707276" /><line marker-end="url(#arrow-head)" x1="1083.677177533841" x2="1110.2912898646362" y1="170.26456449323183" y2="164.94174202707276" /><line stroke="white" stroke-width="5" x1="1184.367394278317" x2="1196.4081514304207" y1="115.68978171650483" y2="112.0775545708738" /><line marker-end="url(#arrow-head)" x1="1184.367394278317" x2="1196.4081514304207" y1="115.68978171650483" y2="112.0775545708738" /><line stroke="white" stroke-width="5" x1="1125.0" x2="1125.0" y1="135.0" y2="147.0" /><line marker-end="url(#arrow-head)" x1="1125.0" x2="1125.0" y1="135.0" y2="147.0" /><line stroke="white" stroke-width="5" x1="1140.0" x2="1155.0" y1="120.0" y2="120.0" /><line marker-end="url(#arrow-head)" x1="1140.0" x2="1155.0" y1="120.0" y2="120.0" /><line stroke="white" stroke-width="5" x1="1135.965829023643" x2="1159.034170976357" y1="151.76522624459986" y2="130.23477375540017" /><line marker-end="url(#arrow-head)" x1="1135.965829023643" x2="1159.034170976357" y1="151.76522624459986" y2="130.23477375540017" /></g><g fill="none" stroke="black" stroke-width="1"><rect height="261.0" width="1218.0" x="0" y="0" /><circle cx="0.0" cy="6.0" r="3.75px" /><circle cx="0" cy="15.0" r="3.75px" /><circle cx="0" cy="24.0" r="3.75px" /><circle cx="0" cy="33.0" r="3.75px" /><circle cx="0" cy="42.0" r="3.75px" /><circle cx="0" cy="51.0" r="3.75px" /><circle cx="0" cy="60.0" r="3.75px" /><circle cx="0" cy="69.0" r="3.75px" /><circle cx="0" cy="77.99999999999999" r="3.75px" /><circle cx="0" cy="87.00000000000001" r="3.75px" /><circle cx="1218.0" cy="192.0" fill="black" r="3.75px" /><circle cx="1218.0" cy="201.0" fill="black" r="3.75px" /><circle cx="1218.0" cy="210.0" fill="black" r="3.75px" /><circle cx="1218.0" cy="219.00000000000003" fill="black" r="3.75px" /><circle cx="1218.0" cy="228.00000000000003" fill="black" r="3.75px" /><circle cx="1218.0" cy="237.0" fill="black" r="3.75px" /><circle cx="1218.0" cy="245.99999999999997" fill="black" r="3.75px" /><circle cx="1218.0" cy="255.0" fill="black" r="3.75px" /><polyline points="3.75,6.0 21.0,6.0 21.0,111.0 26.25,111.0" stroke="white" stroke-width="3" /><polyline marker-end="url(#arrow-head)" points="3.75,6.0 21.0,6.0 21.0,111.0 26.25,111.0" /><polyline points="3.75,6.0 171.0,6.0 171.0,111.0 176.25,111.0" stroke="white" stroke-width="3" /><polyline marker-end="url(#arrow-head)" points="3.75,6.0 171.0,6.0 171.0,111.0 176.25,111.0" /><polyline points="3.75,6.0 321.0,6.0 321.0,111.0 326.25,111.0" stroke="white" stroke-width="3" /><polyline marker-end="url(#arrow-head)" points="3.75,6.0 321.0,6.0 321.0,111.0 326.25,111.0" /><polyline points="3.75,6.0 471.0,6.0 471.0,111.0 476.25,111.0" stroke="white" stroke-width="3" /><polyline marker-end="url(#arrow-head)" points="3.75,6.0 471.0,6.0 471.0,111.0 476.25,111.0" /><polyline points="3.75,6.0 621.0,6.0 621.0,111.0 626.25,111.0" stroke="white" stroke-width="3" /><polyline marker-end="url(#arrow-head)" points="3.75,6.0 621.0,6.0 621.0,111.0 626.25,111.0" /><polyline points="3.75,6.0 771.0,6.0 771.0,111.0 776.25,111.0" stroke="white" stroke-width="3" /><polyline marker-end="url(#arrow-head)" points="3.75,6.0 771.0,6.0 771.0,111.0 776.25,111.0" /><polyline points="3.75,6.0 921.0,6.0 921.0,111.0 926.25,111.0" stroke="white" stroke-width="3" /><polyline marker-end="url(#arrow-head)" points="3.75,6.0 921.0,6.0 921.0,111.0 926.25,111.0" /><polyline points="3.75,6.0 1071.0,6.0 1071.0,111.0 1076.25,111.0" stroke="white" stroke-width="3" /><polyline marker-end="url(#arrow-head)" points="3.75,6.0 1071.0,6.0 1071.0,111.0 1076.25,111.0" /><polyline points="3.75,15.0 15.0,15.0 15.0,171.0 26.25,171.0" stroke="white" stroke-width="3" /><polyline marker-end="url(#arrow-head)" points="3.75,15.0 15.0,15.0 15.0,171.0 26.25,171.0" /><polyline points="3.75,15.0 165.0,15.0 165.0,171.0 176.25,171.0" stroke="white" stroke-width="3" /><polyline marker-end="url(#arrow-head)" points="3.75,15.0 165.0,15.0 165.0,171.0 176.25,171.0" /><polyline points="3.75,15.0 315.0,15.0 315.0,171.0 326.25,171.0" stroke="white" stroke-width="3" /><polyline marker-end="url(#arrow-head)" points="3.75,15.0 315.0,15.0 315.0,171.0 326.25,171.0" /><polyline points="3.75,15.0 465.0,15.0 465.0,171.0 476.25,171.0" stroke="white" stroke-width="3" /><polyline marker-end="url(#arrow-head)" points="3.75,15.0 465.0,15.0 465.0,171.0 476.25,171.0" /><polyline points="3.75,15.0 615.0,15.0 615.0,171.0 626.25,171.0" stroke="white" stroke-width="3" /><polyline marker-end="url(#arrow-head)" points="3.75,15.0 615.0,15.0 615.0,171.0 626.25,171.0" /><polyline points="3.75,15.0 765.0,15.0 765.0,171.0 776.25,171.0" stroke="white" stroke-width="3" /><polyline marker-end="url(#arrow-head)" points="3.75,15.0 765.0,15.0 765.0,171.0 776.25,171.0" /><polyline points="3.75,15.0 915.0,15.0 915.0,171.0 926.25,171.0" stroke="white" stroke-width="3" /><polyline marker-end="url(#arrow-head)" points="3.75,15.0 915.0,15.0 915.0,171.0 926.25,171.0" /><polyline points="3.75,15.0 1065.0,15.0 1065.0,171.0 1076.25,171.0" stroke="white" stroke-width="3" /><polyline marker-end="url(#arrow-head)" points="3.75,15.0 1065.0,15.0 1065.0,171.0 1076.25,171.0" /><polyline points="3.75,24.0 9.0,24.0 9.0,141.0 26.25,141.0" stroke="white" stroke-width="3" /><polyline marker-end="url(#arrow-head)" points="3.75,24.0 9.0,24.0 9.0,141.0 26.25,141.0" /><polyline points="3.75,33.0 159.0,33.0 159.0,141.0 176.25,141.0" stroke="white" stroke-width="3" /><polyline marker-end="url(#arrow-head)" points="3.75,33.0 159.0,33.0 159.0,141.0 176.25,141.0" /><polyline points="3.75,42.0 309.0,42.0 309.0,141.0 326.25,141.0" stroke="white" stroke-width="3" /><polyline marker-end="url(#arrow-head)" points="3.75,42.0 309.0,42.0 309.0,141.0 326.25,141.0" /><polyline points="3.75,51.0 459.0,51.0 459.0,141.0 476.25,141.0" stroke="white" stroke-width="3" /><polyline marker-end="url(#arrow-head)" points="3.75,51.0 459.0,51.0 459.0,141.0 476.25,141.0" /><polyline points="3.75,60.0 609.0,60.0 609.0,141.0 626.25,141.0" stroke="white" stroke-width="3" /><polyline marker-end="url(#arrow-head)" points="3.75,60.0 609.0,60.0 609.0,141.0 626.25,141.0" /><polyline points="3.75,69.0 759.0,69.0 759.0,141.0 776.25,141.0" stroke="white" stroke-width="3" /><polyline marker-end="url(#arrow-head)" points="3.75,69.0 759.0,69.0 759.0,141.0 776.25,141.0" /><polyline points="3.75,77.99999999999999 909.0,77.99999999999999 909.0,141.0 926.25,141.0" stroke="white" stroke-width="3" /><polyline marker-end="url(#arrow-head)" points="3.75,77.99999999999999 909.0,77.99999999999999 909.0,141.0 926.25,141.0" /><polyline points="3.75,87.00000000000001 1059.0,87.00000000000001 1059.0,141.0 1076.25,141.0" stroke="white" stroke-width="3" /><polyline marker-end="url(#arrow-head)" points="3.75,87.00000000000001 1059.0,87.00000000000001 1059.0,141.0 1076.25,141.0" /><polyline points="153.75,111.0 156.0,111.0 156.0,192.0 1214.25,192.0" stroke="white" stroke-width="3" /><polyline marker-end="url(#arrow-head)" points="153.75,111.0 156.0,111.0 156.0,192.0 1214.25,192.0" /><polyline points="303.75,111.0 306.0,111.0 306.0,201.0 1214.25,201.0" stroke="white" stroke-width="3" /><polyline marker-end="url(#arrow-head)" points="303.75,111.0 306.0,111.0 306.0,201.0 1214.25,201.0" /><polyline points="453.75,111.0 456.0,111.0 456.0,210.0 1214.25,210.0" stroke="white" stroke-width="3" /><polyline marker-end="url(#arrow-head)" points="453.75,111.0 456.0,111.0 456.0,210.0 1214.25,210.0" /><polyline points="603.75,111.0 606.0,111.0 606.0,219.00000000000003 1214.25,219.00000000000003" stroke="white" stroke-width="3" /><polyline marker-end="url(#arrow-head)" points="603.75,111.0 606.0,111.0 606.0,219.00000000000003 1214.25,219.00000000000003" /><polyline points="753.75,111.0 756.0,111.0 756.0,228.00000000000003 1214.25,228.00000000000003" stroke="white" stroke-width="3" /><polyline marker-end="url(#arrow-head)" points="753.75,111.0 756.0,111.0 756.0,228.00000000000003 1214.25,228.00000000000003" /><polyline points="903.75,111.0 906.0,111.0 906.0,237.0 1214.25,237.0" stroke="white" stroke-width="3" /><polyline marker-end="url(#arrow-head)" points="903.75,111.0 906.0,111.0 906.0,237.0 1214.25,237.0" /><polyline points="1053.75,111.0 1056.0,111.0 1056.0,245.99999999999997 1214.25,245.99999999999997" stroke="white" stroke-width="3" /><polyline marker-end="url(#arrow-head)" points="1053.75,111.0 1056.0,111.0 1056.0,245.99999999999997 1214.25,245.99999999999997" /><polyline points="1203.75,111.0 1206.0,111.0 1206.0,255.0 1214.25,255.0" stroke="white" stroke-width="3" /><polyline marker-end="url(#arrow-head)" points="1203.75,111.0 1206.0,111.0 1206.0,255.0 1214.25,255.0" /></g></svg>