<?xml version="1.0" encoding="utf-8" ?>
<svg baseProfile="full" height="262.0" version="1.1" viewBox="-0.5 -0.5 1579.0 262.0" width="1579.0" xmlns="http://www.w3.org/2000/svg" xmlns:ev="http://www.w3.org/2001/xml-events" xmlns:xlink="http://www.w3.org/1999/xlink"><defs><marker id="arrow-head" markerHeight="6.0" markerWidth="3.63" orient="auto" refX="3.5999999999999996" refY="3.0"><polyline fill="none" points="0.75,0.75 3.0,3.0 0.75,5.25" stroke="black" /></marker></defs><g fill="none" stroke="black" stroke-width="1"><rect height="90" width="120" x="30.0" y="96.0" /><circle cx="75.0" cy="120.0" r="15.0px" /><circle cx="75.0" cy="162.0" r="15.0px" /><circle cx="120.0" cy="120.0" r="15.0px" /><circle cx="30.0" cy="111.0" r="3.75px" /><circle cx="30.0" cy="141.0" r="3.75px" /><circle cx="30.0" cy="171.0" r="3.75px" /><circle cx="150.0" cy="111.0" fill="black" r="3.75px" /><line stroke="white" stroke-width="5" x1="33.67717753384095" x2="60.2912898646362" y1="111.7354355067682" y2="117.05825797292724" /><line marker-end="url(#arrow-head)" x1="33.67717753384095" x2="60.2912898646362" y1="111.7354355067682" y2="117.05825797292724" /><line stroke="white" stroke-width="5" x1="32.48108113907567" x2="65.07567544369732" y1="113.81189195761911" y2="150.75243216952364" /><line marker-end="url(#arrow-head)" x1="32.48108113907567" x2="65.07567544369732" y1="113.81189195761911" y2="150.75243216952364" /><line stroke="white" stroke-width="5" x1="33.39818677498224" x2="61.407252900071015" y1="142.58582049499174" y2="155.65671802003317" /><line marker-end="url(#arrow-head)" x1="33.39818677498224" x2="61.407252900071015" y1="142.58582049499174" y2="155.65671802003317" /><line stroke="white" stroke-width="5" x1="33.67717753384095" x2="60.2912898646362" y1="170.26456449323183" y2="164.94174202707276" /><line marker-end="url(#arrow-head)" x1="33.67717753384095" x2="60.2912898646362" y1="170.26456449323183" y2="164.94174202707276" /><line stroke="white" stroke-width="5" x1="134.36739427831728" x2="146.40815143042067" y1="115.68978171650483" y2="112.0775545708738" /><line marker-end="url(#arrow-head)" x1="134.36739427831728" x2="146.40815143042067" y1="115.68978171650483" y2="112.0775545708738" /><line stroke="white" stroke-width="5" x1="75.0" x2="75.0" y1="135.0" y2="147.0" /><line marker-end="url(#arrow-head)" x1="75.0" x2="75.0" y1="135.0" y2="147.0" /><line stroke="white" stroke-width="5" x1="90.0" x2="105.0" y1="120.0" y2="120.0" /><line marker-end="url(#arrow-head)" x1="90.0" x2="105.0" y1="120.0" y2="120.0" /><line stroke="white" stroke-width="5" x1="85.96582902364304" x2="109.03417097635696" y1="151.76522624459986" y2="130.23477375540017" /><line marker-end="url(#arrow-head)" x1="85.96582902364304" x2="109.03417097635696" y1="151.76522624459986" y2="130.23477375540017" /></g><g fill="none" stroke="black" stroke-width="1"><rect height="90" width="120" x="225.0" y="96.0" /><circle cx="270.0" cy="120.0" r="15.0px" /><circle cx="270.0" cy="162.0" r="15.0px" /><circle cx="315.0" cy="120.0" r="15.0px" /><circle cx="225.0" cy="111.0" r="3.75px" /><circle cx="225.0" cy="141.0" r="3.75px" /><circle cx="225.0" cy="171.0" r="3.75px" /><circle cx="345.0" cy="111.0" fill="black" r="3.75px" /><line stroke="white" stroke-width="5" x1="228.67717753384096" x2="255.2912898646362" y1="111.7354355067682" y2="117.05825797292724" /><line marker-end="url(#arrow-head)" x1="228.67717753384096" x2="255.2912898646362" y1="111.7354355067682" y2="117.05825797292724" /><line stroke="white" stroke-width="5" x1="227.48108113907568" x2="260.0756754436973" y1="113.81189195761911" y2="150.75243216952364" /><line marker-end="url(#arrow-head)" x1="227.48108113907568" x2="260.0756754436973" y1="113.81189195761911" y2="150.75243216952364" /><line stroke="white" stroke-width="5" x1="228.39818677498224" x2="256.40725290007106" y1="142.58582049499174" y2="155.65671802003317" /><line marker-end="url(#arrow-head)" x1="228.39818677498224" x2="256.40725290007106" y1="142.58582049499174" y2="155.65671802003317" /><line stroke="white" stroke-width="5" x1="228.67717753384096" x2="255.2912898646362" y1="170.26456449323183" y2="164.94174202707276" /><line marker-end="url(#arrow-head)" x1="228.67717753384096" x2="255.2912898646362" y1="170.26456449323183" y2="164.94174202707276" /><line stroke="white" stroke-width="5" x1="329.3673942783173" x2="341.40815143042073" y1="115.68978171650483" y2="112.0775545708738" /><line marker-end="url(#arrow-head)" x1="329.3673942783173" x2="341.40815143042073" y1="115.68978171650483" y2="112.0775545708738" /><line stroke="white" stroke-width="5" x1="270.0" x2="270.0" y1="135.0" y2="147.0" /><line marker-end="url(#arrow-head)" x1="270.0" x2="270.0" y1="135.0" y2="147.0" /><line stroke="white" stroke-width="5" x1="285.0" x2="300.0" y1="120.0" y2="120.0" /><line marker-end="url(#arrow-head)" x1="285.0" x2="300.0" y1="120.0" y2="120.0" /><line stroke="white" stroke-width="5" x1="280.96582902364304" x2="304.03417097635696" y1="151.76522624459986" y2="130.23477375540017" /><line marker-end="url(#arrow-head)" x1="280.96582902364304" x2="304.03417097635696" y1="151.76522624459986" y2="130.23477375540017" /></g><g fill="none" stroke="black" stroke-width="1"><rect height="90" width="120" x="420.0" y="96.0" /><circle cx="465.0" cy="120.0" r="15.0px" /><circle cx="465.0" cy="162.0" r="15.0px" /><circle cx="510.0" cy="120.0" r="15.0px" /><circle cx="420.0" cy="111.0" r="3.75px" /><circle cx="420.0" cy="141.0" r="3.75px" /><circle cx="420.0" cy="171.0" r="3.75px" /><circle cx="540.0" cy="111.0" fill="black" r="3.75px" /><line stroke="white" stroke-width="5" x1="423.67717753384096" x2="450.2912898646362" y1="111.7354355067682" y2="117.05825797292724" /><line marker-end="url(#arrow-head)" x1="423.67717753384096" x2="450.2912898646362" y1="111.7354355067682" y2="117.05825797292724" /><line stroke="white" stroke-width="5" x1="422.4810811390757" x2="455.0756754436973" y1="113.81189195761911" y2="150.75243216952364" /><line marker-end="url(#arrow-head)" x1="422.4810811390757" x2="455.0756754436973" y1="113.81189195761911" y2="150.75243216952364" /><line stroke="white" stroke-width="5" x1="423.39818677498226" x2="451.40725290007106" y1="142.58582049499174" y2="155.65671802003317" /><line marker-end="url(#arrow-head)" x1="423.39818677498226" x2="451.40725290007106" y1="142.58582049499174" y2="155.65671802003317" /><line stroke="white" stroke-width="5" x1="423.67717753384096" x2="450.2912898646362" y1="170.26456449323183" y2="164.94174202707276" /><line marker-end="url(#arrow-head)" x1="423.67717753384096" x2="450.2912898646362" y1="170.26456449323183" y2="164.94174202707276" /><line stroke="white" stroke-width="5" x1="524.3673942783173" x2="536.4081514304206" y1="115.68978171650483" y2="112.0775545708738" /><line marker-end="url(#arrow-head)" x1="524.3673942783173" x2="536.4081514304206" y1="115.68978171650483" y2="112.0775545708738" /><line stroke="white" stroke-width="5" x1="465.0" x2="465.0" y1="135.0" y2="147.0" /><line marker-end="url(#arrow-head)" x1="465.0" x2="465.0" y1="135.0" y2="147.0" /><line stroke="white" stroke-width="5" x1="480.0" x2="495.0" y1="120.0" y2="120.0" /><line marker-end="url(#arrow-head)" x1="480.0" x2="495.0" y1="120.0" y2="120.0" /><line stroke="white" stroke-width="5" x1="475.96582902364304" x2="499.03417097635696" y1="151.76522624459986" y2="130.23477375540017" /><line marker-end="url(#arrow-head)" x1="475.96582902364304" x2="499.03417097635696" y1="151.76522624459986" y2="130.23477375540017" /></g><g fill="none" stroke="black" stroke-width="1"><rect height="90" width="120" x="615.0" y="96.0" /><circle cx="660.0" cy="120.0" r="15.0px" /><circle cx="660.0" cy="162.0" r="15.0px" /><circle cx="705.0" cy="120.0" r="15.0px" /><circle cx="615.0" cy="111.0" r="3.75px" /><circle cx="615.0" cy="141.0" r="3.75px" /><circle cx="615.0" cy="171.0" r="3.75px" /><circle cx="735.0" cy="111.0" fill="black" r="3.75px" /><line stroke="white" stroke-width="5" x1="618.677177533841" x2="645.2912898646362" y1="111.7354355067682" y2="117.05825797292724" /><line marker-end="url(#arrow-head)" x1="618.677177533841" x2="645.2912898646362" y1="111.7354355067682" y2="117.05825797292724" /><line stroke="white" stroke-width="5" x1="617.4810811390757" x2="650.0756754436973" y1="113.81189195761911" y2="150.75243216952364" /><line marker-end="url(#arrow-head)" x1="617.4810811390757" x2="650.0756754436973" y1="113.81189195761911" y2="150.75243216952364" /><line stroke="white" stroke-width="5" x1="618.3981867749823" x2="646.4072529000711" y1="142.58582049499174" y2="155.65671802003317" /><line marker-end="url(#arrow-head)" x1="618.3981867749823" x2="646.4072529000711" y1="142.58582049499174" y2="155.65671802003317" /><line stroke="white" stroke-width="5" x1="618.677177533841" x2="645.2912898646362" y1="170.26456449323183" y2="164.94174202707276" /><line marker-end="url(#arrow-head)" x1="618.677177533841" x2="645.2912898646362" y1="170.26456449323183" y2="164.94174202707276" /><line stroke="white" stroke-width="5" x1="719.3673942783173" x2="731.4081514304206" y1="115.68978171650483" y2="112.0775545708738" /><line marker-end="url(#arrow-head)" x1="719.3673942783173" x2="731.4081514304206" y1="115.68978171650483" y2="112.0775545708738" /><line stroke="white" stroke-width="5" x1="660.0" x2="660.0" y1="135.0" y2="147.0" /><line marker-end="url(#arrow-head)" x1="660.0" x2="660.0" y1="135.0" y2="147.0" /><line stroke="white" stroke-width="5" x1="675.0" x2="690.0" y1="120.0" y2="120.0" /><line marker-end="url(#arrow-head)" x1="675.0" x2="690.0" y1="120.0" y2="120.0" /><line stroke="white" stroke-width="5" x1="670.965829023643" x2="694.034170976357" y1="151.76522624459986" y2="130.23477375540017" /><line marker-end="url(#arrow-head)" x1="670.965829023643" x2="694.034170976357" y1="151.76522624459986" y2="130.23477375540017" /></g><g fill="none" stroke="black" stroke-width="1"><rect height="90" width="120" x="810.0" y="96.0" /><circle cx="855.0" cy="120.0" r="15.0px" /><circle cx="855.0" cy="162.0" r="15.0px" /><circle cx="900.0" cy="120.0" r="15.0px" /><circle cx="810.0" cy="111.0" r="3.75px" /><circle cx="810.0" cy="141.0" r="3.75px" /><circle cx="810.0" cy="171.0" r="3.75px" /><circle cx="930.0" cy="111.0" fill="black" r="3.75px" /><line stroke="white" stroke-width="5" x1="813.677177533841" x2="840.2912898646362" y1="111.7354355067682" y2="117.05825797292724" /><line marker-end="url(#arrow-head)" x1="813.677177533841" x2="840.2912898646362" y1="111.7354355067682" y2="117.05825797292724" /><line stroke="white" stroke-width="5" x1="812.4810811390757" x2="845.0756754436973" y1="113.81189195761911" y2="150.75243216952364" /><line marker-end="url(#arrow-head)" x1="812.4810811390757" x2="845.0756754436973" y1="113.81189195761911" y2="150.75243216952364" /><line stroke="white" stroke-width="5" x1="813.3981867749823" x2="841.4072529000711" y1="142.58582049499174" y2="155.65671802003317" /><line marker-end="url(#arrow-head)" x1="813.3981867749823" x2="841.4072529000711" y1="142.58582049499174" y2="155.65671802003317" /><line stroke="white" stroke-width="5" x1="813.677177533841" x2="840.2912898646362" y1="170.26456449323183" y2="164.94174202707276" /><line marker-end="url(#arrow-head)" x1="813.677177533841" x2="840.2912898646362" y1="170.26456449323183" y2="164.94174202707276" /><line stroke="white" stroke-width="5" x1="914.3673942783173" x2="926.4081514304206" y1="115.68978171650483" y2="112.0775545708738" /><line marker-end="url(#arrow-head)" x1="914.3673942783173" x2="926.4081514304206" y1="115.68978171650483" y2="112.0775545708738" /><line stroke="white" stroke-width="5" x1="855.0" x2="855.0" y1="135.0" y2="147.0" /><line marker-end="url(#arrow-head)" x1="855.0" x2="855.0" y1="135.0" y2="147.0" /><line stroke="white" stroke-width="5" x1="870.0" x2="885.0" y1="120.0" y2="120.0" /><line marker-end="url(#arrow-head)" x1="870.0" x2="885.0" y1="120.0" y2="120.0" /><line stroke="white" stroke-width="5" x1="865.965829023643" x2="889.034170976357" y1="151.76522624459986" y2="130.23477375540017" /><line marker-end="url(#arrow-head)" x1="865.965829023643" x2="889.034170976357" y1="151.76522624459986" y2="130.23477375540017" /></g><g fill="none" stroke="black" stroke-width="1"><rect height="90" width="120" x="1005.0" y="96.0" /><circle cx="1050.0" cy="120.0" r="15.0px" /><circle cx="1050.0" cy="162.0" r="15.0px" /><circle cx="1095.0" cy="120.0" r="15.0px" /><circle cx="1005.0" cy="111.0" r="3.75px" /><circle cx="1005.0" cy="141.0" r="3.75px" /><circle cx="1005.0" cy="171.0" r="3.75px" /><circle cx="1125.0" cy="111.0" fill="black" r="3.75px" /><line stroke="white" stroke-width="5" x1="1008.677177533841" x2="1035.2912898646362" y1="111.7354355067682" y2="117.05825797292724" /><line marker-end="url(#arrow-head)" x1="1008.677177533841" x2="1035.2912898646362" y1="111.7354355067682" y2="117.05825797292724" /><line stroke="white" stroke-width="5" x1="1007.4810811390757" x2="1040.0756754436973" y1="113.81189195761911" y2="150.75243216952364" /><line marker-end="url(#arrow-head)" x1="1007.4810811390757" x2="1040.0756754436973" y1="113.81189195761911" y2="150.75243216952364" /><line stroke="white" stroke-width="5" x1="1008.3981867749823" x2="1036.407252900071" y1="142.58582049499174" y2="155.65671802003317" /><line marker-end="url(#arrow-head)" x1="1008.3981867749823" x2="1036.407252900071" y1="142.58582049499174" y2="155.65671802003317" /><line stroke="white" stroke-width="5" x1="1008.677177533841" x2="1035.2912898646362" y1="170.26456449323183" y2="164.94174202707276" /><line marker-end="url(#arrow-head)" x1="1008.677177533841" x2="1035.2912898646362" y1="170.26456449323183" y2="164.94174202707276" /><line stroke="white" stroke-width="5" x1="1109.367394278317" x2="1121.4081514304207" y1="115.68978171650483" y2="112.0775545708738" /><line marker-end="url(#arrow-head)" x1="1109.367394278317" x2="1121.4081514304207" y1="115.68978171650483" y2="112.0775545708738" /><line stroke="white" stroke-width="5" x1="1050.0" x2="1050.0" y1="135.0" y2="147.0" /><line marker-end="url(#arrow-head)" x1="1050.0" x2="1050.0" y1="135.0" y2="147.0" /><line stroke="white" stroke-width="5" x1="1065.0" x2="1080.0" y1="120.0" y2="120.0" /><line marker-end="url(#arrow-head)" x1="1065.0" x2="1080.0" y1="120.0" y2="120.0" /><line stroke="white" stroke-width="5" x1="1060.965829023643" x2="1084.034170976357" y1="151.76522624459986" y2="130.23477375540017" /><line marker-end="url(#arrow-head)" x1="1060.965829023643" x2="1084.034170976357" y1="151.76522624459986" y2="130.23477375540017" /></g><g fill="none" stroke="black" stroke-width="1"><rect height="90" width="120" x="1200.0" y="96.0" /><circle cx="1245.0" cy="120.0" r="15.0px" /><circle cx="1245.0" cy="162.0" r="15.0px" /><circle cx="1290.0" cy="120.0" r="15.0px" /><circle cx="1200.0" cy="111.0" r="3.75px" /><circle cx="1200.0" cy="141.0" r="3.75px" /><circle cx="1200.0" cy="171.0" r="3.75px" /><circle cx="1320.0" cy="111.0" fill="black" r="3.75px" /><line stroke="white" stroke-width="5" x1="1203.677177533841" x2="1230.2912898646362" y1="111.7354355067682" y2="117.05825797292724" /><line marker-end="url(#arrow-head)" x1="1203.677177533841" x2="1230.2912898646362" y1="111.7354355067682" y2="117.05825797292724" /><line stroke="white" stroke-width="5" x1="1202.4810811390757" x2="1235.0756754436973" y1="113.81189195761911" y2="150.75243216952364" /><line marker-end="url(#arrow-head)" x1="1202.4810811390757" x2="1235.0756754436973" y1="113.81189195761911" y2="150.75243216952364" /><line stroke="white" stroke-width="5" x1="1203.3981867749824" x2="1231.407252900071" y1="142.58582049499174" y2="155.65671802003317" /><line marker-end="url(#arrow-head)" x1="1203.3981867749824" x2="1231.407252900071" y1="142.58582049499174" y2="155.65671802003317" /><line stroke="white" stroke-width="5" x1="1203.677177533841" x2="1230.2912898646362" y1="170.26456449323183" y2="164.94174202707276" /><line marker-end="url(#arrow-head)" x1="1203.677177533841" x2="1230.2912898646362" y1="170.26456449323183" y2="164.94174202707276" /><line stroke="white" stroke-width="5" x1="1304.367394278317" x2="1316.4081514304207" y1="115.68978171650483" y2="112.0775545708738" /><line marker-end="url(#arrow-head)" x1="1304.367394278317" x2="1316.4081514304207" y1="115.68978171650483" y2="112.0775545708738" /><line stroke="white" stroke-width="5" x1="1245.0" x2="1245.0" y1="135.0" y2="147.0" /><line marker-end="url(#arrow-head)" x1="1245.0" x2="1245.0" y1="135.0" y2="147.0" /><line stroke="white" stroke-width="5" x1="1260.0" x2="1275.0" y1="120.0" y2="120.0" /><line marker-end="url(#arrow-head)" x1="1260.0" x2="1275.0" y1="120.0" y2="120.0" /><line stroke="white" stroke-width="5" x1="1255.965829023643" x2="1279.034170976357" y1="151.76522624459986" y2="130.23477375540017" /><line marker-end="url(#arrow-head)" x1="1255.965829023643" x2="1279.034170976357" y1="151.76522624459986" y2="130.23477375540017" /></g><g fill="none" stroke="black" stroke-width="1"><rect height="90" width="120" x="1395.0" y="96.0" /><circle cx="1440.0" cy="120.0" r="15.0px" /><circle cx="1440.0" cy="162.0" r="15.0px" /><circle cx="1485.0" cy="120.0" r="15.0px" /><circle cx="1395.0" cy="111.0" r="3.75px" /><circle cx="1395.0" cy="141.0" r="3.75px" /><circle cx="1395.0" cy="171.0" r="3.75px" /><circle cx="1515.0" cy="111.0" fill="black" r="3.75px" /><line stroke="white" stroke-width="5" x1="1398.677177533841" x2="1425.2912898646362" y1="111.7354355067682" y2="117.05825797292724" /><line marker-end="url(#arrow-head)" x1="1398.677177533841" x2="1425.2912898646362" y1="111.7354355067682" y2="117.05825797292724" /><line stroke="white" stroke-width="5" x1="1397.4810811390757" x2="1430.0756754436973" y1="113.81189195761911" y2="150.75243216952364" /><line marker-end="url(#arrow-head)" x1="1397.4810811390757" x2="1430.0756754436973" y1="113.81189195761911" y2="150.75243216952364" /><line stroke="white" stroke-width="5" x1="1398.3981867749824" x2="1426.407252900071" y1="142.58582049499174" y2="155.65671802003317" /><line marker-end="url(#arrow-head)" x1="1398.3981867749824" x2="1426.407252900071" y1="142.58582049499174" y2="155.65671802003317" /><line stroke="white" stroke-width="5" x1="1398.677177533841" x2="1425.2912898646362" y1="170.26456449323183" y2="164.94174202707276" /><line marker-end="url(#arrow-head)" x1="1398.677177533841" x2="1425.2912898646362" y1="170.26456449323183" y2="164.94174202707276" /><line stroke="white" stroke-width="5" x1="1499.367394278317" x2="1511.4081514304207" y1="115.68978171650483" y2="112.0775545708738" /><line marker-end="url(#arrow-head)" x1="1499.367394278317" x2="1511.4081514304207" y1="115.68978171650483" y2="112.0775545708738" /><line stroke="white" stroke-width="5" x1="1440.0" x2="1440.0" y1="135.0" y2="147.0" /><line marker-end="url(#arrow-head)" x1="1440.0" x2="1440.0" y1="135.0" y2="147.0" /><line stroke="white" stroke-width="5" x1="1455.0" x2="1470.0" y1="120.0" y2="120.0" /><line marker-end="url(#arrow-head)" x1="1455.0" x2="1470.0" y1="120.0" y2="120.0" /><line stroke="white" stroke-width="5" x1="1450.965829023643" x2="1474.034170976357" y1="151.76522624459986" y2="130.23477375540017" /><line marker-end="url(#arrow-head)" x1="1450.965829023643" x2="1474.034170976357" y1="151.76522624459986" y2="130.23477375540017" /></g><g fill="none" stroke="black" stroke-width="1"><rect height="261.0" width="1578.0" x="0" y="0" /><circle cx="175.5" cy="162.0" r="15.0px" /><circle cx="370.5" cy="162.0" r="15.0px" /><circle cx="565.5" cy="162.0" r="15.0px" /><circle cx="760.5" cy="162.0" r="15.0px" /><circle cx="955.5" cy="162.0" r="15.0px" /><circle cx="1150.5" cy="162.0" r="15.0px" /><circle cx="1345.5" cy="162.0" r="15.0px" /><circle cx="0.0" cy="6.0" r="3.75px" /><circle cx="0" cy="15.0" r="3.75px" /><circle cx="0" cy="24.0" r="3.75px" /><circle cx="0" cy="33.0" r="3.75px" /><circle cx="0" cy="42.0" r="3.75px" /><circle cx="0" cy="51.0" r="3.75px" /><circle cx="0" cy="60.0" r="3.75px" /><circle cx="0" cy="69.0" r="3.75px" /><circle cx="0" cy="77.99999999999999" r="3.75px" /><circle cx="0" cy="87.00000000000001" r="3.75px" /><circle cx="0" cy="96.0" r="3.75px" /><circle cx="1578.0" cy="192.0" fill="black" r="3.75px" /><circle cx="1578.0" cy="201.0" fill="black" r="3.75px" /><circle cx="1578.0" cy="210.0" fill="black" r="3.75px" /><circle cx="1578.0" cy="219.00000000000003" fill="black" r="3.75px" /><circle cx="1578.0" cy="228.00000000000003" fill="black" r="3.75px" /><circle cx="1578.0" cy="237.0" fill="black" r="3.75px" /><circle cx="1578.0" cy="245.99999999999997" fill="black" r="3.75px" /><circle cx="1578.0" cy="255.0" fill="black" r="3.75px" /><polyline points="3.75,6.0 21.0,6.0 21.0,111.0 26.25,111.0" stroke="white" stroke-width="3" /><polyline marker-end="url(#arrow-head)" points="3.75,6.0 21.0,6.0 21.0,111.0 26.25,111.0" /><polyline points="3.75,6.0 216.0,6.0 216.0,111.0 221.25,111.0" stroke="white" stroke-width="3" /><polyline marker-end="url(#arrow-head)" points="3.75,6.0 216.0,6.0 216.0,111.0 221.25,111.0" /><polyline points="3.75,6.0 411.0,6.0 411.0,111.0 416.25,111.0" stroke="white" stroke-width="3" /><polyline marker-end="url(#arrow-head)" points="3.75,6.0 411.0,6.0 411.0,111.0 416.25,111.0" /><polyline points="3.75,6.0 606.0,6.0 606.0,111.0 611.25,111.0" stroke="white" stroke-width="3" /><polyline marker-end="url(#arrow-head)" points="3.75,6.0 606.0,6.0 606.0,111.0 611.25,111.0" /><polyline points="3.75,6.0 801.0,6.0 801.0,111.0 806.25,111.0" stroke="white" stroke-width="3" /><polyline marker-end="url(#arrow-head)" points="3.75,6.0 801.0,6.0 801.0,111.0 806.25,111.0" /><polyline points="3.75,6.0 996.0000000000001,6.0 996.0000000000001,111.0 1001.25,111.0" stroke="white" stroke-width="3" /><polyline marker-end="url(#arrow-head)" points="3.75,6.0 996.0000000000001,6.0 996.0000000000001,111.0 1001.25,111.0" /><polyline points="3.75,6.0 1191.0,6.0 1191.0,111.0 1196.25,111.0" stroke="white" stroke-width="3" /><polyline marker-end="url(#arrow-head)" points="3.75,6.0 1191.0,6.0 1191.0,111.0 1196.25,111.0" /><polyline points="3.75,6.0 1386.0,6.0 1386.0,111.0 1391.25,111.0" stroke="white" stroke-width="3" /><polyline marker-end="url(#arrow-head)" points="3.75,6.0 1386.0,6.0 1386.0,111.0 1391.25,111.0" /><polyline points="3.75,15.0 15.0,15.0 15.0,171.0 26.25,171.0" stroke="white" stroke-width="3" /><polyline marker-end="url(#arrow-head)" points="3.75,15.0 15.0,15.0 15.0,171.0 26.25,171.0" /><polyline points="3.75,15.0 210.0,15.0 210.0,171.0 221.25,171.0" stroke="white" stroke-width="3" /><polyline marker-end="url(#arrow-head)" points="3.75,15.0 210.0,15.0 210.0,171.0 221.25,171.0" /><polyline points="3.75,15.0 405.0,15.0 405.0,171.0 416.25,171.0" stroke="white" stroke-width="3" /><polyline marker-end="url(#arrow-head)" points="3.75,15.0 405.0,15.0 405.0,171.0 416.25,171.0" /><polyline points="3.75,15.0 600.0,15.0 600.0,171.0 611.25,171.0" stroke="white" stroke-width="3" /><polyline marker-end="url(#arrow-head)" points="3.75,15.0 600.0,15.0 600.0,171.0 611.25,171.0" /><polyline points="3.75,15.0 795.0,15.0 795.0,171.0 806.25,171.0" stroke="white" stroke-width="3" /><polyline marker-end="url(#arrow-head)" points="3.75,15.0 795.0,15.0 795.0,171.0 806.25,171.0" /><polyline points="3.75,15.0 990.0,15.0 990.0,171.0 1001.25,171.0" stroke="white" stroke-width="3" /><polyline marker-end="url(#arrow-head)" points="3.75,15.0 990.0,15.0 990.0,171.0 1001.25,171.0" /><polyline points="3.75,15.0 1185.0,15.0 1185.0,171.0 1196.25,171.0" stroke="white" stroke-width="3" /><polyline marker-end="url(#arrow-head)" points="3.75,15.0 1185.0,15.0 1185.0,171.0 1196.25,171.0" /><polyline points="3.75,15.0 1380.0,15.0 1380.0,171.0 1391.25,171.0" stroke="white" stroke-width="3" /><polyline marker-end="url(#arrow-head)" points="3.75,15.0 1380.0,15.0 1380.0,171.0 1391.25,171.0" /><polyline points="3.75,24.0 9.0,24.0 9.0,141.0 26.25,141.0" stroke="white" stroke-width="3" /><polyline marker-end="url(#arrow-head)" points="3.75,24.0 9.0,24.0 9.0,141.0 26.25,141.0" /><polyline points="3.75,33.0 204.0,33.0 204.0,141.0 221.25,141.0" stroke="white" stroke-width="3" /><polyline marker-end="url(#arrow-head)" points="3.75,33.0 204.0,33.0 204.0,141.0 221.25,141.0" /><polyline points="3.75,42.0 399.0,42.0 399.0,141.0 416.25,141.0" stroke="white" stroke-width="3" /><polyline marker-end="url(#arrow-head)" points="3.75,42.0 399.0,42.0 399.0,141.0 416.25,141.0" /><polyline points="3.75,51.0 594.0,51.0 594.0,141.0 611.25,141.0" stroke="white" stroke-width="3" /><polyline marker-end="url(#arrow-head)" points="3.75,51.0 594.0,51.0 594.0,141.0 611.25,141.0" /><polyline points="3.75,60.0 789.0,60.0 789.0,141.0 806.25,141.0" stroke="white" stroke-width="3" /><polyline marker-end="url(#arrow-head)" points="3.75,60.0 789.0,60.0 789.0,141.0 806.25,141.0" /><polyline points="3.75,69.0 983.9999999999999,69.0 983.9999999999999,141.0 1001.25,141.0" stroke="white" stroke-width="3" /><polyline marker-end="url(#arrow-head)" points="3.75,69.0 983.9999999999999,69.0 983.9999999999999,141.0 1001.25,141.0" /><polyline points="3.75,77.99999999999999 1179.0,77.99999999999999 1179.0,141.0 1196.25,141.0" stroke="white" stroke-width="3" /><polyline marker-end="url(#arrow-head)" points="3.75,77.99999999999999 1179.0,77.99999999999999 1179.0,141.0 1196.25,141.0" /><polyline points="3.75,87.00000000000001 1374.0,87.00000000000001 1374.0,141.0 1391.25,141.0" stroke="white" stroke-width="3" /><polyline marker-end="url(#arrow-head)" points="3.75,87.00000000000001 1374.0,87.00000000000001 1374.0,141.0 1391.25,141.0" /><line stroke="white" stroke-width="5" x1="2.8151756884603323" x2="63.73929724615867" y1="98.4773546058451" y2="152.09058157661963" /><line marker-end="url(#arrow-head)" x1="2.8151756884603323" x2="63.73929724615867" y1="98.4773546058451" y2="152.09058157661963" /><line stroke="white" stroke-width="5" x1="3.51" x2="161.45999999999998" y1="97.32000000000001" y2="156.72" /><line marker-end="url(#arrow-head)" x1="3.51" x2="161.45999999999998" y1="97.32000000000001" y2="156.72" /><polyline points="153.75,111.0 201.0,111.0 201.0,192.0 1574.25,192.0" stroke="white" stroke-width="3" /><polyline marker-end="url(#arrow-head)" points="153.75,111.0 201.0,111.0 201.0,192.0 1574.25,192.0" /><polyline points="348.75,111.0 396.0,111.0 396.0,201.0 1574.25,201.0" stroke="white" stroke-width="3" /><polyline marker-end="url(#arrow-head)" points="348.75,111.0 396.0,111.0 396.0,201.0 1574.25,201.0" /><polyline points="543.75,111.0 591.0,111.0 591.0,210.0 1574.25,210.0" stroke="white" stroke-width="3" /><polyline marker-end="url(#arrow-head)" points="543.75,111.0 591.0,111.0 591.0,210.0 1574.25,210.0" /><polyline points="738.75,111.0 786.0,111.0 786.0,219.00000000000003 1574.25,219.00000000000003" stroke="white" stroke-width="3" /><polyline marker-end="url(#arrow-head)" points="738.75,111.0 786.0,111.0 786.0,219.00000000000003 1574.25,219.00000000000003" /><polyline points="933.75,111.0 981.0000000000001,111.0 981.0000000000001,228.00000000000003 1574.25,228.00000000000003" stroke="white" stroke-width="3" /><polyline marker-end="url(#arrow-head)" points="933.75,111.0 981.0000000000001,111.0 981.0000000000001,228.00000000000003 1574.25,228.00000000000003" /><polyline points="1128.75,111.0 1176.0,111.0 1176.0,237.0 1574.25,237.0" stroke="white" stroke-width="3" /><polyline marker-end="url(#arrow-head)" points="1128.75,111.0 1176.0,111.0 1176.0,237.0 1574.25,237.0" /><polyline points="1323.75,111.0 1371.0,111.0 1371.0,245.99999999999997 1574.25,245.99999999999997" stroke="white" stroke-width="3" /><polyline marker-end="url(#arrow-head)" points="1323.75,111.0 1371.0,111.0 1371.0,245.99999999999997 1574.25,245.99999999999997" /><polyline points="1518.75,111.0 1566.0,111.0 1566.0,255.0 1574.25,255.0" stroke="white" stroke-width="3" /><polyline marker-end="url(#arrow-head)" points="1518.75,111.0 1566.0,111.0 1566.0,255.0 1574.25,255.0" /><line stroke="white" stroke-width="5" x1="190.5" x2="255.0" y1="162.0" y2="162.0" /><line marker-end="url(#arrow-head)" x1="190.5" x2="255.0" y1="162.0" y2="162.0" /><polyline points="189.63114328560593,167.03098294984926 318.75,213.0 359.8162624391783,172.52890078457796" stroke="white" stroke-width="3" /><polyline marker-end="url(#arrow-head)" points="189.63114328560593,167.03098294984926 318.75,213.0 359.8162624391783,172.52890078457796" /><line stroke="white" stroke-width="5" x1="385.5" x2="450.0" y1="162.0" y2="162.0" /><line marker-end="url(#arrow-head)" x1="385.5" x2="450.0" y1="162.0" y2="162.0" /><polyline points="384.63114328560596,167.03098294984926 513.75,213.0 554.8162624391783,172.52890078457796" stroke="white" stroke-width="3" /><polyline marker-end="url(#arrow-head)" points="384.63114328560596,167.03098294984926 513.75,213.0 554.8162624391783,172.52890078457796" /><line stroke="white" stroke-width="5" x1="580.5" x2="645.0" y1="162.0" y2="162.0" /><line marker-end="url(#arrow-head)" x1="580.5" x2="645.0" y1="162.0" y2="162.0" /><polyline points="579.631143285606,167.03098294984926 708.75,213.0 749.8162624391783,172.52890078457796" stroke="white" stroke-width="3" /><polyline marker-end="url(#arrow-head)" points="579.631143285606,167.03098294984926 708.75,213.0 749.8162624391783,172.52890078457796" /><line stroke="white" stroke-width="5" x1="775.5" x2="840.0" y1="162.0" y2="162.0" /><line marker-end="url(#arrow-head)" x1="775.5" x2="840.0" y1="162.0" y2="162.0" /><polyline points="774.631143285606,167.03098294984926 903.75,213.0 944.8162624391783,172.52890078457796" stroke="white" stroke-width="3" /><polyline marker-end="url(#arrow-head)" points="774.631143285606,167.03098294984926 903.75,213.0 944.8162624391783,172.52890078457796" /><line stroke="white" stroke-width="5" x1="970.5" x2="1035.0" y1="162.0" y2="162.0" /><line marker-end="url(#arrow-head)" x1="970.5" x2="1035.0" y1="162.0" y2="162.0" /><polyline points="969.6311432856061,167.03098294984926 1098.75,213.0 1139.8162624391782,172.52890078457796" stroke="white" stroke-width="3" /><polyline marker-end="url(#arrow-head)" points="969.6311432856061,167.03098294984926 1098.75,213.0 1139.8162624391782,172.52890078457796" /><line stroke="white" stroke-width="5" x1="1165.5" x2="1230.0" y1="162.0" y2="162.0" /><line marker-end="url(#arrow-head)" x1="1165.5" x2="1230.0" y1="162.0" y2="162.0" /><polyline points="1164.631143285606,167.03098294984926 1293.75,213.0 1334.8162624391782,172.52890078457796" stroke="white" stroke-width="3" /><polyline marker-end="url(#arrow-head)" points="1164.631143285606,167.03098294984926 1293.75,213.0 1334.8162624391782,172.52890078457796" /><line stroke="white" stroke-width="5" x1="1360.5" x2="1425.0" y1="162.0" y2="162.0" /><line marker-end="url(#arrow-head)" x1="1360.5" x2="1425.0" y1="162.0" y2="162.0" /><line stroke="white" stroke-width="5" x1="285.0" x2="355.5" y1="162.0" y2="162.0" /><line marker-end="url(#arrow-head)" x1="285.0" x2="355.5" y1="162.0" y2="162.0" /><line stroke="white" stroke-width="5" x1="480.0" x2="550.5" y1="162.0" y2="162.0" /><line marker-end="url(#arrow-head)" x1="480.0" x2="550.5" y1="162.0" y2="162.0" /><line stroke="white" stroke-width="5" x1="675.0" x2="745.5" y1="162.0" y2="162.0" /><line marker-end="url(#arrow-head)" x1="675.0" x2="745.5" y1="162.0" y2="162.0" /><line stroke="white" stroke-width="5" x1="870.0" x2="940.5" y1="162.0" y2="162.0" /><line marker-end="url(#arrow-head)" x1="870.0" x2="940.5" y1="162.0" y2="162.0" /><line stroke="white" stroke-width="5" x1="1065.0" x2="1135.5" y1="162.0" y2="162.0" /><line marker-end="url(#arrow-head)" x1="1065.0" x2="1135.5" y1="162.0" y2="162.0" /><line stroke="white" stroke-width="5" x1="1260.0" x2="1330.5" y1="162.0" y2="162.0" /><line marker-end="url(#arrow-head)" x1="1260.0" x2="1330.5" y1="162.0" y2="162.0" /><line stroke="white" stroke-width="5" x1="90.0" x2="160.5" y1="162.0" y2="162.0" /><line marker-end="url(#arrow-head)" x1="90.0" x2="160.5" y1="162.0" y2="162.0" /></g></svg>