<?xml version="1.0" encoding="utf-8" ?>
<svg baseProfile="full" height="151.0" version="1.1" viewBox="-0.5 -0.5 151.0 151.0" width="151.0" xmlns="http://www.w3.org/2000/svg" xmlns:ev="http://www.w3.org/2001/xml-events" xmlns:xlink="http://www.w3.org/1999/xlink"><defs><marker id="arrow-head" markerHeight="6.0" markerWidth="3.63" orient="auto" refX="3.5999999999999996" refY="3.0"><polyline fill="none" points="0.75,0.75 3.0,3.0 0.75,5.25" stroke="black" /></marker></defs><g fill="none" stroke="black" stroke-width="1"><rect height="150.0" width="150.0" x="0" y="0" /><circle cx="52.5" cy="30.0" r="15.0px" /><circle cx="52.5" cy="75.0" r="15.0px" /><circle cx="52.5" cy="120.0" r="15.0px" /><circle cx="97.5" cy="30.0" r="15.0px" /><circle cx="97.5" cy="75.0" r="15.0px" /><circle cx="0" cy="30.0" r="3.75px" /><circle cx="0" cy="75.0" r="3.75px" /><circle cx="0" cy="120.0" r="3.75px" /><circle cx="150.0" cy="30.0" fill="black" r="3.75px" /><circle cx="150.0" cy="75.0" fill="black" r="3.75px" /><line stroke="white" stroke-width="5" x1="3.75" x2="37.5" y1="30.0" y2="30.0" /><line marker-end="url(#arrow-head)" x1="3.75" x2="37.5" y1="30.0" y2="30.0" /><line stroke="white" stroke-width="5" x1="2.8472122588698623" x2="41.11115096452055" y1="32.44046765045988" y2="65.23812939816048" /><line marker-end="url(#arrow-head)" x1="2.8472122588698623" x2="41.11115096452055" y1="32.44046765045988" y2="65.23812939816048" /><line stroke="white" stroke-width="5" x1="1.889516345715323" x2="44.941934617138706" y1="33.23917087836912" y2="107.04331648652351" /><line marker-end="url(#arrow-head)" x1="1.889516345715323" x2="44.941934617138706" y1="33.23917087836912" y2="107.04331648652351" /><line stroke="white" stroke-width="5" x1="2.8472122588698623" x2="41.11115096452055" y1="72.5595323495401" y2="39.761870601839526" /><line marker-end="url(#arrow-head)" x1="2.8472122588698623" x2="41.11115096452055" y1="72.5595323495401" y2="39.761870601839526" /><line stroke="white" stroke-width="5" x1="3.75" x2="37.5" y1="75.0" y2="75.0" /><line marker-end="url(#arrow-head)" x1="3.75" x2="37.5" y1="75.0" y2="75.0" /><line stroke="white" stroke-width="5" x1="2.8472122588698623" x2="41.11115096452055" y1="77.4404676504599" y2="110.23812939816048" /><line marker-end="url(#arrow-head)" x1="2.8472122588698623" x2="41.11115096452055" y1="77.4404676504599" y2="110.23812939816048" /><line stroke="white" stroke-width="5" x1="1.889516345715323" x2="44.941934617138706" y1="116.76082912163086" y2="42.956683513476506" /><line marker-end="url(#arrow-head)" x1="1.889516345715323" x2="44.941934617138706" y1="116.76082912163086" y2="42.956683513476506" /><line stroke="white" stroke-width="5" x1="2.8472122588698623" x2="41.11115096452055" y1="117.5595323495401" y2="84.76187060183952" /><line marker-end="url(#arrow-head)" x1="2.8472122588698623" x2="41.11115096452055" y1="117.5595323495401" y2="84.76187060183952" /><line stroke="white" stroke-width="5" x1="3.75" x2="37.5" y1="120.0" y2="120.0" /><line marker-end="url(#arrow-head)" x1="3.75" x2="37.5" y1="120.0" y2="120.0" /><line stroke="white" stroke-width="5" x1="63.52205166941232" x2="147.2444870826469" y1="109.82579845900402" y2="32.543550385249" /><line marker-end="url(#arrow-head)" x1="63.52205166941232" x2="147.2444870826469" y1="109.82579845900402" y2="32.543550385249" /><line stroke="white" stroke-width="5" x1="108.88884903547945" x2="147.15278774113014" y1="65.23812939816048" y2="32.44046765045988" /><line marker-end="url(#arrow-head)" x1="108.88884903547945" x2="147.15278774113014" y1="65.23812939816048" y2="32.44046765045988" /><line stroke="white" stroke-width="5" x1="108.88884903547945" x2="147.15278774113014" y1="39.761870601839526" y2="72.5595323495401" /><line marker-end="url(#arrow-head)" x1="108.88884903547945" x2="147.15278774113014" y1="39.761870601839526" y2="72.5595323495401" /><line stroke="white" stroke-width="5" x1="52.5" x2="52.5" y1="45.0" y2="60.0" /><line marker-end="url(#arrow-head)" x1="52.5" x2="52.5" y1="45.0" y2="60.0" /><line stroke="white" stroke-width="5" x1="67.5" x2="82.5" y1="30.0" y2="30.0" /><line marker-end="url(#arrow-head)" x1="67.5" x2="82.5" y1="30.0" y2="30.0" /><line stroke="white" stroke-width="5" x1="63.10660171779822" x2="86.89339828220179" y1="40.60660171779821" y2="64.39339828220179" /><line marker-end="url(#arrow-head)" x1="63.10660171779822" x2="86.89339828220179" y1="40.60660171779821" y2="64.39339828220179" /><line stroke="white" stroke-width="5" x1="63.10660171779822" x2="86.89339828220179" y1="64.39339828220179" y2="40.60660171779821" /><line marker-end="url(#arrow-head)" x1="63.10660171779822" x2="86.89339828220179" y1="64.39339828220179" y2="40.60660171779821" /><line stroke="white" stroke-width="5" x1="67.5" x2="82.5" y1="75.0" y2="75.0" /><line marker-end="url(#arrow-head)" x1="67.5" x2="82.5" y1="75.0" y2="75.0" /><line stroke="white" stroke-width="5" x1="86.89339828220179" x2="63.10660171779822" y1="40.60660171779821" y2="64.39339828220179" /><line marker-end="url(#arrow-head)" x1="86.89339828220179" x2="63.10660171779822" y1="40.60660171779821" y2="64.39339828220179" /></g></svg>