<?xml version="1.0" encoding="utf-8" ?>
<svg baseProfile="full" height="196.0" version="1.1" viewBox="-0.5 -0.5 211.0 196.0" width="211.0" xmlns="http://www.w3.org/2000/svg" xmlns:ev="http://www.w3.org/2001/xml-events" xmlns:xlink="http://www.w3.org/1999/xlink"><defs><marker id="arrow-head" markerHeight="6.0" markerWidth="3.63" orient="auto" refX="3.5999999999999996" refY="3.0"><polyline fill="none" points="0.75,0.75 3.0,3.0 0.75,5.25" stroke="black" /></marker></defs><g fill="none" stroke="black" stroke-width="1"><rect height="195.0" width="210.0" x="0" y="0" /><circle cx="60.0" cy="75.0" r="15.0px" /><circle cx="105.0" cy="75.0" r="15.0px" /><circle cx="105.0" cy="120.0" r="15.0px" /><circle cx="150.0" cy="30.0" r="15.0px" /><circle cx="150.0" cy="120.0" r="15.0px" /><circle cx="0" cy="30.0" r="3.75px" /><circle cx="0" cy="75.0" r="3.75px" /><circle cx="0" cy="120.0" r="3.75px" /><circle cx="210.0" cy="30.0" fill="black" r="3.75px" /><circle cx="210.0" cy="75.0" fill="black" r="3.75px" /><line stroke="white" stroke-width="5" x1="3.0" x2="48.0" y1="32.25" y2="66.0" /><line marker-end="url(#arrow-head)" x1="3.0" x2="48.0" y1="32.25" y2="66.0" /><polyline points="3.75,30.0 60.0,30.0 94.39339828220179,64.39339828220179" stroke="white" stroke-width="3" /><polyline marker-end="url(#arrow-head)" points="3.75,30.0 60.0,30.0 94.39339828220179,64.39339828220179" /><polyline points="3.75,30.0 60.0,30.0 98.29179606750063,106.58359213500127" stroke="white" stroke-width="3" /><polyline marker-end="url(#arrow-head)" points="3.75,30.0 60.0,30.0 98.29179606750063,106.58359213500127" /><line stroke="white" stroke-width="5" x1="3.75" x2="45.0" y1="75.0" y2="75.0" /><line marker-end="url(#arrow-head)" x1="3.75" x2="45.0" y1="75.0" y2="75.0" /><polyline points="3.0,77.25 60.0,120.0 94.39339828220179,85.60660171779821" stroke="white" stroke-width="3" /><polyline marker-end="url(#arrow-head)" points="3.0,77.25 60.0,120.0 94.39339828220179,85.60660171779821" /><polyline points="3.0,77.25 60.0,120.0 90.0,120.0" stroke="white" stroke-width="3" /><polyline marker-end="url(#arrow-head)" points="3.0,77.25 60.0,120.0 90.0,120.0" /><line stroke="white" stroke-width="5" x1="3.0" x2="48.0" y1="117.75" y2="84.0" /><line marker-end="url(#arrow-head)" x1="3.0" x2="48.0" y1="117.75" y2="84.0" /><polyline points="3.0,122.25 60.0,165.0 98.29179606750063,88.41640786499873" stroke="white" stroke-width="3" /><polyline marker-end="url(#arrow-head)" points="3.0,122.25 60.0,165.0 98.29179606750063,88.41640786499873" /><polyline points="3.0,122.25 60.0,165.0 94.39339828220179,130.6066017177982" stroke="white" stroke-width="3" /><polyline marker-end="url(#arrow-head)" points="3.0,122.25 60.0,165.0 94.39339828220179,130.6066017177982" /><line stroke="white" stroke-width="5" x1="165.0" x2="206.25" y1="30.0" y2="30.0" /><line marker-end="url(#arrow-head)" x1="165.0" x2="206.25" y1="30.0" y2="30.0" /><polyline points="115.60660171779821,109.39339828220179 150.0,75.0 207.0,32.25" stroke="white" stroke-width="3" /><polyline marker-end="url(#arrow-head)" points="115.60660171779821,109.39339828220179 150.0,75.0 207.0,32.25" /><line stroke="white" stroke-width="5" x1="162.0" x2="207.0" y1="111.0" y2="77.25" /><line marker-end="url(#arrow-head)" x1="162.0" x2="207.0" y1="111.0" y2="77.25" /><line stroke="white" stroke-width="5" x1="75.0" x2="90.0" y1="75.0" y2="75.0" /><line marker-end="url(#arrow-head)" x1="75.0" x2="90.0" y1="75.0" y2="75.0" /><polyline points="70.60660171779821,64.39339828220179 105.0,30.0 143.29179606750063,106.58359213500127" stroke="white" stroke-width="3" /><polyline marker-end="url(#arrow-head)" points="70.60660171779821,64.39339828220179 105.0,30.0 143.29179606750063,106.58359213500127" /><polyline points="70.60660171779821,64.39339828220179 105.0,30.0 135.0,30.0" stroke="white" stroke-width="3" /><polyline marker-end="url(#arrow-head)" points="70.60660171779821,64.39339828220179 105.0,30.0 135.0,30.0" /><line stroke="white" stroke-width="5" x1="115.60660171779821" x2="139.3933982822018" y1="85.60660171779821" y2="109.39339828220179" /><line marker-end="url(#arrow-head)" x1="115.60660171779821" x2="139.3933982822018" y1="85.60660171779821" y2="109.39339828220179" /><line stroke="white" stroke-width="5" x1="115.60660171779821" x2="139.3933982822018" y1="64.39339828220179" y2="40.60660171779821" /><line marker-end="url(#arrow-head)" x1="115.60660171779821" x2="139.3933982822018" y1="64.39339828220179" y2="40.60660171779821" /><line stroke="white" stroke-width="5" x1="139.3933982822018" x2="115.60660171779821" y1="109.39339828220179" y2="85.60660171779821" /><line marker-end="url(#arrow-head)" x1="139.3933982822018" x2="115.60660171779821" y1="109.39339828220179" y2="85.60660171779821" /></g></svg>