<?xml version="1.0" encoding="utf-8" ?>
<svg baseProfile="full" height="241.0" version="1.1" viewBox="-0.5 -0.5 181.0 241.0" width="181.0" xmlns="http://www.w3.org/2000/svg" xmlns:ev="http://www.w3.org/2001/xml-events" xmlns:xlink="http://www.w3.org/1999/xlink"><defs><marker id="arrow-head" markerHeight="6.0" markerWidth="3.63" orient="auto" refX="3.5999999999999996" refY="3.0"><polyline fill="none" points="0.75,0.75 3.0,3.0 0.75,5.25" stroke="black" /></marker></defs><g fill="none" stroke="black" stroke-width="1"><rect height="240.0" width="180.0" x="0" y="0" /><circle cx="67.5" cy="30.0" r="15.0px" /><circle cx="67.5" cy="75.0" r="15.0px" /><circle cx="112.5" cy="30.0" r="15.0px" /><circle cx="112.5" cy="75.0" r="15.0px" /><circle cx="112.5" cy="120.0" r="15.0px" /><circle cx="0" cy="30.0" r="3.75px" /><circle cx="0" cy="75.0" r="3.75px" /><circle cx="0" cy="120.0" r="3.75px" /><circle cx="180.0" cy="30.0" fill="black" r="3.75px" /><circle cx="180.0" cy="75.0" fill="black" r="3.75px" /><line stroke="white" stroke-width="5" x1="3.75" x2="52.5" y1="30.0" y2="30.0" /><line marker-end="url(#arrow-head)" x1="3.75" x2="52.5" y1="30.0" y2="30.0" /><line stroke="white" stroke-width="5" x1="3.120188603766914" x2="55.01924558493235" y1="32.080125735844604" y2="66.67949705662156" /><line marker-end="url(#arrow-head)" x1="3.120188603766914" x2="55.01924558493235" y1="32.080125735844604" y2="66.67949705662156" /><polyline points="2.2500000000000004,33.0 67.5,120.0 97.5,120.0" stroke="white" stroke-width="3" /><polyline marker-end="url(#arrow-head)" points="2.2500000000000004,33.0 67.5,120.0 97.5,120.0" /><line stroke="white" stroke-width="5" x1="3.120188603766914" x2="55.01924558493235" y1="72.91987426415538" y2="38.32050294337844" /><line marker-end="url(#arrow-head)" x1="3.120188603766914" x2="55.01924558493235" y1="72.91987426415538" y2="38.32050294337844" /><line stroke="white" stroke-width="5" x1="3.75" x2="52.5" y1="75.0" y2="75.0" /><line marker-end="url(#arrow-head)" x1="3.75" x2="52.5" y1="75.0" y2="75.0" /><polyline points="2.2500000000000004,78.0 67.5,165.0 101.89339828220179,130.6066017177982" stroke="white" stroke-width="3" /><polyline marker-end="url(#arrow-head)" points="2.2500000000000004,78.0 67.5,165.0 101.89339828220179,130.6066017177982" /><line stroke="white" stroke-width="5" x1="2.2500000000000004" x2="58.50000000000001" y1="117.0" y2="42.00000000000001" /><line marker-end="url(#arrow-head)" x1="2.2500000000000004" x2="58.50000000000001" y1="117.0" y2="42.00000000000001" /><line stroke="white" stroke-width="5" x1="3.120188603766914" x2="55.01924558493235" y1="117.91987426415538" y2="83.32050294337844" /><line marker-end="url(#arrow-head)" x1="3.120188603766914" x2="55.01924558493235" y1="117.91987426415538" y2="83.32050294337844" /><polyline points="2.2500000000000004,122.99999999999999 67.5,210.0 105.79179606750063,133.41640786499875" stroke="white" stroke-width="3" /><polyline marker-end="url(#arrow-head)" points="2.2500000000000004,122.99999999999999 67.5,210.0 105.79179606750063,133.41640786499875" /><line stroke="white" stroke-width="5" x1="121.5" x2="177.75" y1="108.0" y2="33.0" /><line marker-end="url(#arrow-head)" x1="121.5" x2="177.75" y1="108.0" y2="33.0" /><line stroke="white" stroke-width="5" x1="124.98075441506765" x2="176.87981139623307" y1="66.67949705662156" y2="32.080125735844604" /><line marker-end="url(#arrow-head)" x1="124.98075441506765" x2="176.87981139623307" y1="66.67949705662156" y2="32.080125735844604" /><line stroke="white" stroke-width="5" x1="124.98075441506765" x2="176.87981139623307" y1="38.320502943378436" y2="72.91987426415538" /><line marker-end="url(#arrow-head)" x1="124.98075441506765" x2="176.87981139623307" y1="38.320502943378436" y2="72.91987426415538" /><line stroke="white" stroke-width="5" x1="67.5" x2="67.5" y1="45.0" y2="60.0" /><line marker-end="url(#arrow-head)" x1="67.5" x2="67.5" y1="45.0" y2="60.0" /><line stroke="white" stroke-width="5" x1="82.5" x2="97.5" y1="30.0" y2="30.0" /><line marker-end="url(#arrow-head)" x1="82.5" x2="97.5" y1="30.0" y2="30.0" /><line stroke="white" stroke-width="5" x1="78.10660171779821" x2="101.89339828220179" y1="40.60660171779821" y2="64.39339828220179" /><line marker-end="url(#arrow-head)" x1="78.10660171779821" x2="101.89339828220179" y1="40.60660171779821" y2="64.39339828220179" /><line stroke="white" stroke-width="5" x1="78.10660171779821" x2="101.89339828220179" y1="64.39339828220179" y2="40.60660171779821" /><line marker-end="url(#arrow-head)" x1="78.10660171779821" x2="101.89339828220179" y1="64.39339828220179" y2="40.60660171779821" /><line stroke="white" stroke-width="5" x1="82.5" x2="97.5" y1="75.0" y2="75.0" /><line marker-end="url(#arrow-head)" x1="82.5" x2="97.5" y1="75.0" y2="75.0" /><line stroke="white" stroke-width="5" x1="101.89339828220179" x2="78.10660171779821" y1="40.60660171779821" y2="64.39339828220179" /><line marker-end="url(#arrow-head)" x1="101.89339828220179" x2="78.10660171779821" y1="40.60660171779821" y2="64.39339828220179" /></g></svg>