<?xml version="1.0" encoding="utf-8" ?>
<svg baseProfile="full" height="196.0" version="1.1" viewBox="-0.5 -0.5 196.0 196.0" width="196.0" xmlns="http://www.w3.org/2000/svg" xmlns:ev="http://www.w3.org/2001/xml-events" xmlns:xlink="http://www.w3.org/1999/xlink"><defs><marker id="arrow-head" markerHeight="6.0" markerWidth="3.63" orient="auto" refX="3.5999999999999996" refY="3.0"><polyline fill="none" points="0.75,0.75 3.0,3.0 0.75,5.25" stroke="black" /></marker></defs><g fill="none" stroke="black" stroke-width="1"><rect height="195.0" width="195.0" x="0" y="0" /><circle cx="52.5" cy="30.0" r="15.0px" /><circle cx="97.5" cy="30.0" r="15.0px" /><circle cx="97.5" cy="75.0" r="15.0px" /><circle cx="142.5" cy="30.0" r="15.0px" /><circle cx="142.5" cy="75.0" r="15.0px" /><circle cx="0" cy="30.0" r="3.75px" /><circle cx="0" cy="75.0" r="3.75px" /><circle cx="0" cy="120.0" r="3.75px" /><circle cx="195.0" cy="30.0" fill="black" r="3.75px" /><circle cx="195.0" cy="75.0" fill="black" r="3.75px" /><line stroke="white" stroke-width="5" x1="3.75" x2="37.5" y1="30.0" y2="30.0" /><line marker-end="url(#arrow-head)" x1="3.75" x2="37.5" y1="30.0" y2="30.0" /><line stroke="white" stroke-width="5" x1="3.75" x2="82.5" y1="30.0" y2="30.0" /><line marker-end="url(#arrow-head)" x1="3.75" x2="82.5" y1="30.0" y2="30.0" /><line stroke="white" stroke-width="5" x1="3.404847691876694" x2="83.88060923249323" y1="31.571468165481548" y2="68.71412733807381" /><line marker-end="url(#arrow-head)" x1="3.404847691876694" x2="83.88060923249323" y1="31.571468165481548" y2="68.71412733807381" /><line stroke="white" stroke-width="5" x1="2.8472122588698623" x2="41.11115096452055" y1="72.5595323495401" y2="39.761870601839526" /><line marker-end="url(#arrow-head)" x1="2.8472122588698623" x2="41.11115096452055" y1="72.5595323495401" y2="39.761870601839526" /><line stroke="white" stroke-width="5" x1="3.404847691876694" x2="83.88060923249323" y1="73.42853183451845" y2="36.2858726619262" /><line marker-end="url(#arrow-head)" x1="3.404847691876694" x2="83.88060923249323" y1="73.42853183451845" y2="36.2858726619262" /><line stroke="white" stroke-width="5" x1="3.75" x2="82.5" y1="75.0" y2="75.0" /><line marker-end="url(#arrow-head)" x1="3.75" x2="82.5" y1="75.0" y2="75.0" /><line stroke="white" stroke-width="5" x1="1.889516345715323" x2="44.941934617138706" y1="116.76082912163086" y2="42.956683513476506" /><line marker-end="url(#arrow-head)" x1="1.889516345715323" x2="44.941934617138706" y1="116.76082912163086" y2="42.956683513476506" /><line stroke="white" stroke-width="5" x1="2.7555129173530797" x2="86.47794833058768" y1="117.45644961475101" y2="40.17420154099598" /><line marker-end="url(#arrow-head)" x1="2.7555129173530797" x2="86.47794833058768" y1="117.45644961475101" y2="40.17420154099598" /><line stroke="white" stroke-width="5" x1="3.404847691876694" x2="83.88060923249323" y1="118.42853183451845" y2="81.28587266192619" /><line marker-end="url(#arrow-head)" x1="3.404847691876694" x2="83.88060923249323" y1="118.42853183451845" y2="81.28587266192619" /><line stroke="white" stroke-width="5" x1="111.11939076750677" x2="191.59515230812332" y1="68.7141273380738" y2="31.571468165481548" /><line marker-end="url(#arrow-head)" x1="111.11939076750677" x2="191.59515230812332" y1="68.7141273380738" y2="31.571468165481548" /><line stroke="white" stroke-width="5" x1="153.88884903547944" x2="192.15278774113014" y1="65.23812939816048" y2="32.44046765045988" /><line marker-end="url(#arrow-head)" x1="153.88884903547944" x2="192.15278774113014" y1="65.23812939816048" y2="32.44046765045988" /><line stroke="white" stroke-width="5" x1="153.88884903547944" x2="192.15278774113014" y1="39.761870601839526" y2="72.5595323495401" /><line marker-end="url(#arrow-head)" x1="153.88884903547944" x2="192.15278774113014" y1="39.761870601839526" y2="72.5595323495401" /><line stroke="white" stroke-width="5" x1="67.5" x2="82.5" y1="30.0" y2="30.0" /><line marker-end="url(#arrow-head)" x1="67.5" x2="82.5" y1="30.0" y2="30.0" /><polyline points="59.208203932499366,43.41640786499874 97.5,120.0 135.79179606750063,43.41640786499874" stroke="white" stroke-width="3" /><polyline marker-end="url(#arrow-head)" points="59.208203932499366,43.41640786499874 97.5,120.0 135.79179606750063,43.41640786499874" /><polyline points="57.24341649025257,44.23024947075771 97.5,165.0 135.79179606750063,88.41640786499873" stroke="white" stroke-width="3" /><polyline marker-end="url(#arrow-head)" points="57.24341649025257,44.23024947075771 97.5,165.0 135.79179606750063,88.41640786499873" /><line stroke="white" stroke-width="5" x1="112.5" x2="127.5" y1="30.0" y2="30.0" /><line marker-end="url(#arrow-head)" x1="112.5" x2="127.5" y1="30.0" y2="30.0" /><line stroke="white" stroke-width="5" x1="108.10660171779821" x2="131.8933982822018" y1="40.60660171779821" y2="64.39339828220179" /><line marker-end="url(#arrow-head)" x1="108.10660171779821" x2="131.8933982822018" y1="40.60660171779821" y2="64.39339828220179" /><line stroke="white" stroke-width="5" x1="127.5" x2="112.5" y1="30.0" y2="30.0" /><line marker-end="url(#arrow-head)" x1="127.5" x2="112.5" y1="30.0" y2="30.0" /></g></svg>