<?xml version="1.0" encoding="utf-8" ?>
<svg baseProfile="full" height="241.0" version="1.1" viewBox="-0.5 -0.5 166.0 241.0" width="166.0" xmlns="http://www.w3.org/2000/svg" xmlns:ev="http://www.w3.org/2001/xml-events" xmlns:xlink="http://www.w3.org/1999/xlink"><defs><marker id="arrow-head" markerHeight="6.0" markerWidth="3.63" orient="auto" refX="3.5999999999999996" refY="3.0"><polyline fill="none" points="0.75,0.75 3.0,3.0 0.75,5.25" stroke="black" /></marker></defs><g fill="none" stroke="black" stroke-width="1"><rect height="240.0" width="165.0" x="0" y="0" /><circle cx="60.0" cy="75.0" r="15.0px" /><circle cx="60.0" cy="120.0" r="15.0px" /><circle cx="105.0" cy="30.0" r="15.0px" /><circle cx="105.0" cy="75.0" r="15.0px" /><circle cx="105.0" cy="120.0" r="15.0px" /><circle cx="0" cy="30.0" r="3.75px" /><circle cx="0" cy="75.0" r="3.75px" /><circle cx="0" cy="120.0" r="3.75px" /><circle cx="165.0" cy="30.0" fill="black" r="3.75px" /><circle cx="165.0" cy="75.0" fill="black" r="3.75px" /><line marker-end="url(#arrow-head)" x1="3.0" x2="48.0" y1="32.25" y2="66.0" /><line marker-end="url(#arrow-head)" x1="2.0801257358446095" x2="51.679497056621564" y1="33.12018860376691" y2="107.51924558493235" /><polyline marker-end="url(#arrow-head)" points="3.75,30.0 60.0,30.0 94.39339828220179,64.39339828220179" /><line marker-end="url(#arrow-head)" x1="3.75" x2="45.0" y1="75.0" y2="75.0" /><line marker-end="url(#arrow-head)" x1="3.0" x2="48.0" y1="77.25" y2="111.0" /><polyline marker-end="url(#arrow-head)" points="2.0801257358446095,78.12018860376692 60.0,165.0 98.29179606750063,88.41640786499873" /><line marker-end="url(#arrow-head)" x1="3.0" x2="48.0" y1="117.75" y2="84.0" /><line marker-end="url(#arrow-head)" x1="3.75" x2="45.0" y1="120.0" y2="120.0" /><polyline marker-end="url(#arrow-head)" points="2.0801257358446095,123.12018860376693 60.0,210.0 100.25658350974743,89.23024947075771" /><line marker-end="url(#arrow-head)" x1="117.0" x2="162.0" y1="66.0" y2="32.25" /><line marker-end="url(#arrow-head)" x1="120.0" x2="161.25" y1="30.0" y2="30.0" /><line marker-end="url(#arrow-head)" x1="117.0" x2="162.0" y1="111.0" y2="77.25" /><line marker-end="url(#arrow-head)" x1="60.0" x2="60.0" y1="90.0" y2="105.0" /><line marker-end="url(#arrow-head)" x1="70.60660171779821" x2="94.39339828220179" y1="85.60660171779821" y2="109.39339828220179" /><line marker-end="url(#arrow-head)" x1="70.60660171779821" x2="94.39339828220179" y1="64.39339828220179" y2="40.60660171779821" /><line marker-end="url(#arrow-head)" x1="66.70820393249937" x2="98.29179606750063" y1="106.58359213500127" y2="43.41640786499874" /><line marker-end="url(#arrow-head)" x1="75.0" x2="90.0" y1="120.0" y2="120.0" /><line marker-end="url(#arrow-head)" x1="90.0" x2="75.0" y1="120.0" y2="120.0" /><rect fill="white" height="3.5999999999999996" width="3.5999999999999996" x="58.2" y="28.2" /><rect fill="white" height="3.5999999999999996" width="3.5999999999999996" x="58.2" y="208.2" /><rect fill="white" height="3.5999999999999996" width="3.5999999999999996" x="58.2" y="163.2" /></g></svg>