<?xml version="1.0" encoding="utf-8" ?>
<svg baseProfile="full" height="331.0" version="1.1" viewBox="-0.5 -0.5 211.0 331.0" width="211.0" xmlns="http://www.w3.org/2000/svg" xmlns:ev="http://www.w3.org/2001/xml-events" xmlns:xlink="http://www.w3.org/1999/xlink"><defs><marker id="arrow-head" markerHeight="6.0" markerWidth="3.63" orient="auto" refX="3.5999999999999996" refY="3.0"><polyline fill="none" points="0.75,0.75 3.0,3.0 0.75,5.25" stroke="black" /></marker></defs><g fill="none" stroke="black" stroke-width="1"><rect height="330.0" width="210.0" x="0" y="0" /><circle cx="60.0" cy="120.0" r="15.0px" /><circle cx="105.0" cy="75.0" r="15.0px" /><circle cx="105.0" cy="120.0" r="15.0px" /><circle cx="150.0" cy="30.0" r="15.0px" /><circle cx="150.0" cy="120.0" r="15.0px" /><circle cx="0" cy="30.0" r="3.75px" /><circle cx="0" cy="75.0" r="3.75px" /><circle cx="0" cy="120.0" r="3.75px" /><circle cx="210.0" cy="30.0" fill="black" r="3.75px" /><circle cx="210.0" cy="75.0" fill="black" r="3.75px" /><line stroke="white" stroke-width="5" x1="2.0801257358446095" x2="51.679497056621564" y1="33.12018860376691" y2="107.51924558493235" /><line marker-end="url(#arrow-head)" x1="2.0801257358446095" x2="51.679497056621564" y1="33.12018860376691" y2="107.51924558493235" /><polyline points="3.75,30.0 60.0,30.0 94.39339828220179,64.39339828220179" stroke="white" stroke-width="3" /><polyline marker-end="url(#arrow-head)" points="3.75,30.0 60.0,30.0 94.39339828220179,64.39339828220179" /><polyline points="3.0,32.25 60.0,75.0 94.39339828220179,109.39339828220179" stroke="white" stroke-width="3" /><polyline marker-end="url(#arrow-head)" points="3.0,32.25 60.0,75.0 94.39339828220179,109.39339828220179" /><line stroke="white" stroke-width="5" x1="3.0" x2="48.0" y1="77.25" y2="111.0" /><line marker-end="url(#arrow-head)" x1="3.0" x2="48.0" y1="77.25" y2="111.0" /><polyline points="2.0801257358446095,78.12018860376692 60.0,165.0 98.29179606750063,88.41640786499873" stroke="white" stroke-width="3" /><polyline marker-end="url(#arrow-head)" points="2.0801257358446095,78.12018860376692 60.0,165.0 98.29179606750063,88.41640786499873" /><polyline points="1.5230192477004283,78.42679330732597 60.0,210.0 98.29179606750063,133.41640786499875" stroke="white" stroke-width="3" /><polyline marker-end="url(#arrow-head)" points="1.5230192477004283,78.42679330732597 60.0,210.0 98.29179606750063,133.41640786499875" /><line stroke="white" stroke-width="5" x1="3.75" x2="45.0" y1="120.0" y2="120.0" /><line marker-end="url(#arrow-head)" x1="3.75" x2="45.0" y1="120.0" y2="120.0" /><polyline points="1.5230192477004283,123.42679330732597 60.0,255.0 101.36196562445501,89.55213750217999" stroke="white" stroke-width="3" /><polyline marker-end="url(#arrow-head)" points="1.5230192477004283,123.42679330732597 60.0,255.0 101.36196562445501,89.55213750217999" /><polyline points="1.1858541225631423,123.55756236768941 60.0,300.0 101.36196562445501,134.55213750218" stroke="white" stroke-width="3" /><polyline marker-end="url(#arrow-head)" points="1.1858541225631423,123.55756236768941 60.0,300.0 101.36196562445501,134.55213750218" /><polyline points="115.60660171779821,109.39339828220179 150.0,75.0 207.0,32.25" stroke="white" stroke-width="3" /><polyline marker-end="url(#arrow-head)" points="115.60660171779821,109.39339828220179 150.0,75.0 207.0,32.25" /><line stroke="white" stroke-width="5" x1="165.0" x2="206.25" y1="30.0" y2="30.0" /><line marker-end="url(#arrow-head)" x1="165.0" x2="206.25" y1="30.0" y2="30.0" /><line stroke="white" stroke-width="5" x1="162.0" x2="207.0" y1="111.0" y2="77.25" /><line marker-end="url(#arrow-head)" x1="162.0" x2="207.0" y1="111.0" y2="77.25" /><line stroke="white" stroke-width="5" x1="70.60660171779821" x2="94.39339828220179" y1="109.39339828220179" y2="85.60660171779821" /><line marker-end="url(#arrow-head)" x1="70.60660171779821" x2="94.39339828220179" y1="109.39339828220179" y2="85.60660171779821" /><polyline points="70.60660171779821,130.6066017177982 105.0,165.0 139.3933982822018,130.6066017177982" stroke="white" stroke-width="3" /><polyline marker-end="url(#arrow-head)" points="70.60660171779821,130.6066017177982 105.0,165.0 139.3933982822018,130.6066017177982" /><polyline points="66.70820393249937,106.58359213500127 105.0,30.0 135.0,30.0" stroke="white" stroke-width="3" /><polyline marker-end="url(#arrow-head)" points="66.70820393249937,106.58359213500127 105.0,30.0 135.0,30.0" /><line stroke="white" stroke-width="5" x1="115.60660171779821" x2="139.3933982822018" y1="64.39339828220179" y2="40.60660171779821" /><line marker-end="url(#arrow-head)" x1="115.60660171779821" x2="139.3933982822018" y1="64.39339828220179" y2="40.60660171779821" /><line stroke="white" stroke-width="5" x1="115.60660171779821" x2="139.3933982822018" y1="85.60660171779821" y2="109.39339828220179" /><line marker-end="url(#arrow-head)" x1="115.60660171779821" x2="139.3933982822018" y1="85.60660171779821" y2="109.39339828220179" /><line stroke="white" stroke-width="5" x1="139.3933982822018" x2="115.60660171779821" y1="109.39339828220179" y2="85.60660171779821" /><line marker-end="url(#arrow-head)" x1="139.3933982822018" x2="115.60660171779821" y1="109.39339828220179" y2="85.60660171779821" /></g></svg>