<?xml version="1.0" encoding="utf-8" ?>
<svg baseProfile="full" height="106.0" version="1.1" viewBox="-0.5 -0.5 166.0 106.0" width="166.0" xmlns="http://www.w3.org/2000/svg" xmlns:ev="http://www.w3.org/2001/xml-events" xmlns:xlink="http://www.w3.org/1999/xlink"><defs><marker id="arrow-head" markerHeight="6.0" markerWidth="3.63" orient="auto" refX="3.5999999999999996" refY="3.0"><polyline fill="none" points="0.75,0.75 3.0,3.0 0.75,5.25" stroke="black" /></marker></defs><g fill="none" stroke="black" stroke-width="1"><rect height="105.0" width="165.0" x="0" y="0" /><circle cx="60.0" cy="30.0" r="15.0px" /><circle cx="60.0" cy="75.0" r="15.0px" /><circle cx="105.0" cy="30.0" r="15.0px" /><circle cx="105.0" cy="75.0" r="15.0px" /><circle cx="0" cy="30.0" r="3.75px" /><circle cx="0" cy="75.0" r="3.75px" /><circle cx="165.0" cy="30.0" fill="black" r="3.75px" /><circle cx="165.0" cy="75.0" fill="black" r="3.75px" /><line stroke="white" stroke-width="5" x1="3.75" x2="45.0" y1="30.0" y2="30.0" /><line marker-end="url(#arrow-head)" x1="3.75" x2="45.0" y1="30.0" y2="30.0" /><line stroke="white" stroke-width="5" x1="3.0" x2="48.0" y1="32.25" y2="66.0" /><line marker-end="url(#arrow-head)" x1="3.0" x2="48.0" y1="32.25" y2="66.0" /><line stroke="white" stroke-width="5" x1="3.0" x2="48.0" y1="72.75" y2="39.0" /><line marker-end="url(#arrow-head)" x1="3.0" x2="48.0" y1="72.75" y2="39.0" /><line stroke="white" stroke-width="5" x1="3.75" x2="45.0" y1="75.0" y2="75.0" /><line marker-end="url(#arrow-head)" x1="3.75" x2="45.0" y1="75.0" y2="75.0" /><line stroke="white" stroke-width="5" x1="120.0" x2="161.25" y1="30.0" y2="30.0" /><line marker-end="url(#arrow-head)" x1="120.0" x2="161.25" y1="30.0" y2="30.0" /><line stroke="white" stroke-width="5" x1="120.0" x2="161.25" y1="75.0" y2="75.0" /><line marker-end="url(#arrow-head)" x1="120.0" x2="161.25" y1="75.0" y2="75.0" /><line stroke="white" stroke-width="5" x1="60.0" x2="60.0" y1="45.0" y2="60.0" /><line marker-end="url(#arrow-head)" x1="60.0" x2="60.0" y1="45.0" y2="60.0" /><line stroke="white" stroke-width="5" x1="70.60660171779821" x2="94.39339828220179" y1="40.60660171779821" y2="64.39339828220179" /><line marker-end="url(#arrow-head)" x1="70.60660171779821" x2="94.39339828220179" y1="40.60660171779821" y2="64.39339828220179" /><line stroke="white" stroke-width="5" x1="75.0" x2="90.0" y1="30.0" y2="30.0" /><line marker-end="url(#arrow-head)" x1="75.0" x2="90.0" y1="30.0" y2="30.0" /><line stroke="white" stroke-width="5" x1="70.60660171779821" x2="94.39339828220179" y1="64.39339828220179" y2="40.60660171779821" /><line marker-end="url(#arrow-head)" x1="70.60660171779821" x2="94.39339828220179" y1="64.39339828220179" y2="40.60660171779821" /><line stroke="white" stroke-width="5" x1="75.0" x2="90.0" y1="75.0" y2="75.0" /><line marker-end="url(#arrow-head)" x1="75.0" x2="90.0" y1="75.0" y2="75.0" /><line stroke="white" stroke-width="5" x1="90.0" x2="75.0" y1="75.0" y2="75.0" /><line marker-end="url(#arrow-head)" x1="90.0" x2="75.0" y1="75.0" y2="75.0" /></g></svg>