<?xml version="1.0" encoding="utf-8" ?>
<svg baseProfile="full" height="673.0" version="1.1" viewBox="-0.5 -0.5 619.0 673.0" width="619.0" xmlns="http://www.w3.org/2000/svg" xmlns:ev="http://www.w3.org/2001/xml-events" xmlns:xlink="http://www.w3.org/1999/xlink"><defs><marker id="arrow-head" markerHeight="6.0" markerWidth="3.63" orient="auto" refX="3.5999999999999996" refY="3.0"><polyline fill="none" points="0.75,0.75 3.0,3.0 0.75,5.25" stroke="black" /></marker></defs><g fill="none" stroke="black" stroke-width="1"><rect height="90" width="30" x="120" y="126.0" /><circle cx="120" cy="141.0" r="3.75px" /><circle cx="120" cy="171.0" r="3.75px" /><circle cx="120" cy="201.0" r="3.75px" /><circle cx="150" cy="141.0" fill="black" r="3.75px" /></g><g fill="none" stroke="black" stroke-width="1"><rect height="90" width="30" x="180" y="126.0" /><circle cx="180" cy="141.0" r="3.75px" /><circle cx="180" cy="171.0" r="3.75px" /><circle cx="180" cy="201.0" r="3.75px" /><circle cx="210" cy="141.0" fill="black" r="3.75px" /></g><g fill="none" stroke="black" stroke-width="1"><rect height="90" width="30" x="240" y="126.0" /><circle cx="240" cy="141.0" r="3.75px" /><circle cx="240" cy="171.0" r="3.75px" /><circle cx="240" cy="201.0" r="3.75px" /><circle cx="270" cy="141.0" fill="black" r="3.75px" /></g><g fill="none" stroke="black" stroke-width="1"><rect height="90" width="30" x="300" y="126.0" /><circle cx="300" cy="141.0" r="3.75px" /><circle cx="300" cy="171.0" r="3.75px" /><circle cx="300" cy="201.0" r="3.75px" /><circle cx="330" cy="141.0" fill="black" r="3.75px" /></g><g fill="none" stroke="black" stroke-width="1"><rect height="90" width="30" x="360" y="126.0" /><circle cx="360" cy="141.0" r="3.75px" /><circle cx="360" cy="171.0" r="3.75px" /><circle cx="360" cy="201.0" r="3.75px" /><circle cx="390" cy="141.0" fill="black" r="3.75px" /></g><g fill="none" stroke="black" stroke-width="1"><rect height="90" width="30" x="420" y="126.0" /><circle cx="420" cy="141.0" r="3.75px" /><circle cx="420" cy="171.0" r="3.75px" /><circle cx="420" cy="201.0" r="3.75px" /><circle cx="450" cy="141.0" fill="black" r="3.75px" /></g><g fill="none" stroke="black" stroke-width="1"><rect height="90" width="30" x="480" y="126.0" /><circle cx="480" cy="141.0" r="3.75px" /><circle cx="480" cy="171.0" r="3.75px" /><circle cx="480" cy="201.0" r="3.75px" /><circle cx="510" cy="141.0" fill="black" r="3.75px" /></g><g fill="none" stroke="black" stroke-width="1"><rect height="90" width="30" x="540" y="126.0" /><circle cx="540" cy="141.0" r="3.75px" /><circle cx="540" cy="171.0" r="3.75px" /><circle cx="540" cy="201.0" r="3.75px" /><circle cx="570" cy="141.0" fill="black" r="3.75px" /></g><g fill="none" stroke="black" stroke-width="1"><rect height="261.0" width="498.00000000000006" x="90" y="30.0" /><circle cx="90.0" cy="36.0" r="3.75px" /><circle cx="90" cy="45.0" r="3.75px" /><circle cx="90" cy="54.0" r="3.75px" /><circle cx="90" cy="63.0" r="3.75px" /><circle cx="90" cy="72.0" r="3.75px" /><circle cx="90" cy="81.0" r="3.75px" /><circle cx="90" cy="90.0" r="3.75px" /><circle cx="90" cy="99.0" r="3.75px" /><circle cx="90" cy="107.99999999999999" r="3.75px" /><circle cx="90" cy="117.00000000000001" r="3.75px" /><circle cx="588.0" cy="222.0" fill="black" r="3.75px" /><circle cx="588.0" cy="231.0" fill="black" r="3.75px" /><circle cx="588.0" cy="240.0" fill="black" r="3.75px" /><circle cx="588.0" cy="249.00000000000003" fill="black" r="3.75px" /><circle cx="588.0" cy="258.00000000000006" fill="black" r="3.75px" /><circle cx="588.0" cy="267.0" fill="black" r="3.75px" /><circle cx="588.0" cy="276.0" fill="black" r="3.75px" /><circle cx="588.0" cy="285.0" fill="black" r="3.75px" /><polyline marker-end="url(#arrow-head)" points="93.75,36.0 111.0,36.0 111.0,141.0 116.25,141.0" /><polyline marker-end="url(#arrow-head)" points="93.75,36.0 171.0,36.0 171.0,141.0 176.25,141.0" /><polyline marker-end="url(#arrow-head)" points="93.75,36.0 231.0,36.0 231.0,141.0 236.25,141.0" /><polyline marker-end="url(#arrow-head)" points="93.75,36.0 291.0,36.0 291.0,141.0 296.25,141.0" /><polyline marker-end="url(#arrow-head)" points="93.75,36.0 351.0,36.0 351.0,141.0 356.25,141.0" /><polyline marker-end="url(#arrow-head)" points="93.75,36.0 411.0,36.0 411.0,141.0 416.25,141.0" /><polyline marker-end="url(#arrow-head)" points="93.75,36.0 471.0,36.0 471.0,141.0 476.25,141.0" /><polyline marker-end="url(#arrow-head)" points="93.75,36.0 531.0,36.0 531.0,141.0 536.25,141.0" /><polyline marker-end="url(#arrow-head)" points="93.75,45.0 105.0,45.0 105.0,201.0 116.25,201.0" /><polyline marker-end="url(#arrow-head)" points="93.75,45.0 165.0,45.0 165.0,201.0 176.25,201.0" /><polyline marker-end="url(#arrow-head)" points="93.75,45.0 225.0,45.0 225.0,201.0 236.25,201.0" /><polyline marker-end="url(#arrow-head)" points="93.75,45.0 285.0,45.0 285.0,201.0 296.25,201.0" /><polyline marker-end="url(#arrow-head)" points="93.75,45.0 345.0,45.0 345.0,201.0 356.25,201.0" /><polyline marker-end="url(#arrow-head)" points="93.75,45.0 405.0,45.0 405.0,201.0 416.25,201.0" /><polyline marker-end="url(#arrow-head)" points="93.75,45.0 465.0,45.0 465.0,201.0 476.25,201.0" /><polyline marker-end="url(#arrow-head)" points="93.75,45.0 525.0,45.0 525.0,201.0 536.25,201.0" /><polyline marker-end="url(#arrow-head)" points="93.75,54.0 99.0,54.0 99.0,171.0 116.25,171.0" /><polyline marker-end="url(#arrow-head)" points="93.75,63.0 159.0,63.0 159.0,171.0 176.25,171.0" /><polyline marker-end="url(#arrow-head)" points="93.75,72.0 219.0,72.0 219.0,171.0 236.25,171.0" /><polyline marker-end="url(#arrow-head)" points="93.75,81.0 279.0,81.0 279.0,171.0 296.25,171.0" /><polyline marker-end="url(#arrow-head)" points="93.75,90.0 339.0,90.0 339.0,171.0 356.25,171.0" /><polyline marker-end="url(#arrow-head)" points="93.75,99.0 399.0,99.0 399.0,171.0 416.25,171.0" /><polyline marker-end="url(#arrow-head)" points="93.75,107.99999999999999 459.0,107.99999999999999 459.0,171.0 476.25,171.0" /><polyline marker-end="url(#arrow-head)" points="93.75,117.00000000000001 519.0,117.00000000000001 519.0,171.0 536.25,171.0" /><polyline marker-end="url(#arrow-head)" points="153.75,141.0 156.0,141.0 156.0,222.0 584.25,222.0" /><polyline marker-end="url(#arrow-head)" points="213.75,141.0 216.0,141.0 216.0,231.0 584.25,231.0" /><polyline marker-end="url(#arrow-head)" points="273.75,141.0 276.0,141.0 276.0,240.0 584.25,240.0" /><polyline marker-end="url(#arrow-head)" points="333.75,141.0 336.0,141.0 336.0,249.00000000000003 584.25,249.00000000000003" /><polyline marker-end="url(#arrow-head)" points="393.75,141.0 396.0,141.0 396.0,258.00000000000006 584.25,258.00000000000006" /><polyline marker-end="url(#arrow-head)" points="453.75,141.0 456.0,141.0 456.0,267.0 584.25,267.0" /><polyline marker-end="url(#arrow-head)" points="513.75,141.0 516.0,141.0 516.0,276.0 584.25,276.0" /><polyline marker-end="url(#arrow-head)" points="573.75,141.0 576.0,141.0 576.0,285.0 584.25,285.0" /><rect fill="white" height="3.5999999999999996" width="3.5999999999999996" x="277.2" y="169.2" /><rect fill="white" height="3.5999999999999996" width="3.5999999999999996" x="403.2" y="43.2" /><rect fill="white" height="3.5999999999999996" width="3.5999999999999996" x="349.2" y="139.2" /><rect fill="white" height="3.5999999999999996" width="3.5999999999999996" x="409.2" y="34.2" /><rect fill="white" height="3.5999999999999996" width="3.5999999999999996" x="163.2" y="43.2" /><rect fill="white" height="3.5999999999999996" width="3.5999999999999996" x="109.2" y="139.2" /><rect fill="white" height="3.5999999999999996" width="3.5999999999999996" x="97.2" y="52.2" /><rect fill="white" height="3.5999999999999996" width="3.5999999999999996" x="217.2" y="169.2" /><rect fill="white" height="3.5999999999999996" width="3.5999999999999996" x="154.2" y="220.2" /><rect fill="white" height="3.5999999999999996" width="3.5999999999999996" x="514.2" y="139.2" /><rect fill="white" height="3.5999999999999996" width="3.5999999999999996" x="337.2" y="88.2" /><rect fill="white" height="3.5999999999999996" width="3.5999999999999996" x="343.2" y="199.2" /><rect fill="white" height="3.5999999999999996" width="3.5999999999999996" x="274.2" y="139.2" /><rect fill="white" height="3.5999999999999996" width="3.5999999999999996" x="454.2" y="265.2" /><rect fill="white" height="3.5999999999999996" width="3.5999999999999996" x="103.2" y="199.2" /><rect fill="white" height="3.5999999999999996" width="3.5999999999999996" x="457.2" y="169.2" /><rect fill="white" height="3.5999999999999996" width="3.5999999999999996" x="454.2" y="139.2" /><rect fill="white" height="3.5999999999999996" width="3.5999999999999996" x="169.2" y="34.2" /><rect fill="white" height="3.5999999999999996" width="3.5999999999999996" x="283.2" y="199.2" /><rect fill="white" height="3.5999999999999996" width="3.5999999999999996" x="334.2" y="247.20000000000002" /><rect fill="white" height="3.5999999999999996" width="3.5999999999999996" x="343.2" y="43.2" /><rect fill="white" height="3.5999999999999996" width="3.5999999999999996" x="397.2" y="169.2" /><rect fill="white" height="3.5999999999999996" width="3.5999999999999996" x="397.2" y="97.2" /><rect fill="white" height="3.5999999999999996" width="3.5999999999999996" x="529.2" y="139.2" /><rect fill="white" height="3.5999999999999996" width="3.5999999999999996" x="103.2" y="43.2" /><rect fill="white" height="3.5999999999999996" width="3.5999999999999996" x="289.2" y="139.2" /><rect fill="white" height="3.5999999999999996" width="3.5999999999999996" x="214.2" y="139.2" /><rect fill="white" height="3.5999999999999996" width="3.5999999999999996" x="283.2" y="43.2" /><rect fill="white" height="3.5999999999999996" width="3.5999999999999996" x="523.2" y="199.2" /><rect fill="white" height="3.5999999999999996" width="3.5999999999999996" x="463.2" y="199.2" /><rect fill="white" height="3.5999999999999996" width="3.5999999999999996" x="229.2" y="139.2" /><rect fill="white" height="3.5999999999999996" width="3.5999999999999996" x="157.2" y="169.2" /><rect fill="white" height="3.5999999999999996" width="3.5999999999999996" x="277.2" y="79.2" /><rect fill="white" height="3.5999999999999996" width="3.5999999999999996" x="523.2" y="43.2" /><rect fill="white" height="3.5999999999999996" width="3.5999999999999996" x="349.2" y="34.2" /><rect fill="white" height="3.5999999999999996" width="3.5999999999999996" x="109.2" y="34.2" /><rect fill="white" height="3.5999999999999996" width="3.5999999999999996" x="217.2" y="70.2" /><rect fill="white" height="3.5999999999999996" width="3.5999999999999996" x="469.2" y="139.2" /><rect fill="white" height="3.5999999999999996" width="3.5999999999999996" x="394.2" y="139.2" /><rect fill="white" height="3.5999999999999996" width="3.5999999999999996" x="337.2" y="169.2" /><rect fill="white" height="3.5999999999999996" width="3.5999999999999996" x="463.2" y="43.2" /><rect fill="white" height="3.5999999999999996" width="3.5999999999999996" x="154.2" y="139.2" /><rect fill="white" height="3.5999999999999996" width="3.5999999999999996" x="574.2" y="283.2" /><rect fill="white" height="3.5999999999999996" width="3.5999999999999996" x="409.2" y="139.2" /><rect fill="white" height="3.5999999999999996" width="3.5999999999999996" x="274.2" y="238.2" /><rect fill="white" height="3.5999999999999996" width="3.5999999999999996" x="223.2" y="199.2" /><rect fill="white" height="3.5999999999999996" width="3.5999999999999996" x="529.2" y="34.2" /><rect fill="white" height="3.5999999999999996" width="3.5999999999999996" x="289.2" y="34.2" /><rect fill="white" height="3.5999999999999996" width="3.5999999999999996" x="97.2" y="169.2" /><rect fill="white" height="3.5999999999999996" width="3.5999999999999996" x="223.2" y="43.2" /><rect fill="white" height="3.5999999999999996" width="3.5999999999999996" x="457.2" y="106.19999999999999" /><rect fill="white" height="3.5999999999999996" width="3.5999999999999996" x="517.2" y="169.2" /><rect fill="white" height="3.5999999999999996" width="3.5999999999999996" x="334.2" y="139.2" /><rect fill="white" height="3.5999999999999996" width="3.5999999999999996" x="169.2" y="139.2" /><rect fill="white" height="3.5999999999999996" width="3.5999999999999996" x="514.2" y="274.2" /><rect fill="white" height="3.5999999999999996" width="3.5999999999999996" x="229.2" y="34.2" /><rect fill="white" height="3.5999999999999996" width="3.5999999999999996" x="574.2" y="139.2" /><rect fill="white" height="3.5999999999999996" width="3.5999999999999996" x="214.2" y="229.2" /><rect fill="white" height="3.5999999999999996" width="3.5999999999999996" x="157.2" y="61.2" /><rect fill="white" height="3.5999999999999996" width="3.5999999999999996" x="403.2" y="199.2" /><rect fill="white" height="3.5999999999999996" width="3.5999999999999996" x="394.2" y="256.20000000000005" /><rect fill="white" height="3.5999999999999996" width="3.5999999999999996" x="517.2" y="115.20000000000002" /><rect fill="white" height="3.5999999999999996" width="3.5999999999999996" x="163.2" y="199.2" /><rect fill="white" height="3.5999999999999996" width="3.5999999999999996" x="469.2" y="34.2" /></g><g fill="none" stroke="black" stroke-width="1"><rect height="90" width="30" x="120" y="446.99999999999994" /><circle cx="120" cy="461.99999999999994" r="3.75px" /><circle cx="120" cy="491.99999999999994" r="3.75px" /><circle cx="120" cy="522.0" r="3.75px" /><circle cx="150" cy="461.99999999999994" fill="black" r="3.75px" /></g><g fill="none" stroke="black" stroke-width="1"><rect height="90" width="30" x="180" y="446.99999999999994" /><circle cx="180" cy="461.99999999999994" r="3.75px" /><circle cx="180" cy="491.99999999999994" r="3.75px" /><circle cx="180" cy="522.0" r="3.75px" /><circle cx="210" cy="461.99999999999994" fill="black" r="3.75px" /></g><g fill="none" stroke="black" stroke-width="1"><rect height="90" width="30" x="240" y="446.99999999999994" /><circle cx="240" cy="461.99999999999994" r="3.75px" /><circle cx="240" cy="491.99999999999994" r="3.75px" /><circle cx="240" cy="522.0" r="3.75px" /><circle cx="270" cy="461.99999999999994" fill="black" r="3.75px" /></g><g fill="none" stroke="black" stroke-width="1"><rect height="90" width="30" x="300" y="446.99999999999994" /><circle cx="300" cy="461.99999999999994" r="3.75px" /><circle cx="300" cy="491.99999999999994" r="3.75px" /><circle cx="300" cy="522.0" r="3.75px" /><circle cx="330" cy="461.99999999999994" fill="black" r="3.75px" /></g><g fill="none" stroke="black" stroke-width="1"><rect height="90" width="30" x="360" y="446.99999999999994" /><circle cx="360" cy="461.99999999999994" r="3.75px" /><circle cx="360" cy="491.99999999999994" r="3.75px" /><circle cx="360" cy="522.0" r="3.75px" /><circle cx="390" cy="461.99999999999994" fill="black" r="3.75px" /></g><g fill="none" stroke="black" stroke-width="1"><rect height="90" width="30" x="420" y="446.99999999999994" /><circle cx="420" cy="461.99999999999994" r="3.75px" /><circle cx="420" cy="491.99999999999994" r="3.75px" /><circle cx="420" cy="522.0" r="3.75px" /><circle cx="450" cy="461.99999999999994" fill="black" r="3.75px" /></g><g fill="none" stroke="black" stroke-width="1"><rect height="90" width="30" x="480" y="446.99999999999994" /><circle cx="480" cy="461.99999999999994" r="3.75px" /><circle cx="480" cy="491.99999999999994" r="3.75px" /><circle cx="480" cy="522.0" r="3.75px" /><circle cx="510" cy="461.99999999999994" fill="black" r="3.75px" /></g><g fill="none" stroke="black" stroke-width="1"><rect height="90" width="30" x="540" y="446.99999999999994" /><circle cx="540" cy="461.99999999999994" r="3.75px" /><circle cx="540" cy="491.99999999999994" r="3.75px" /><circle cx="540" cy="522.0" r="3.75px" /><circle cx="570" cy="461.99999999999994" fill="black" r="3.75px" /></g><g fill="none" stroke="black" stroke-width="1"><rect height="261.0" width="498.00000000000006" x="90" y="351.0" /><circle cx="90.0" cy="356.99999999999994" r="3.75px" /><circle cx="90" cy="366.0" r="3.75px" /><circle cx="90" cy="375.0" r="3.75px" /><circle cx="90" cy="383.99999999999994" r="3.75px" /><circle cx="90" cy="393.0" r="3.75px" /><circle cx="90" cy="401.99999999999994" r="3.75px" /><circle cx="90" cy="411.0" r="3.75px" /><circle cx="90" cy="420.0" r="3.75px" /><circle cx="90" cy="428.99999999999994" r="3.75px" /><circle cx="90" cy="438.0" r="3.75px" /><circle cx="588.0" cy="543.0" fill="black" r="3.75px" /><circle cx="588.0" cy="552.0" fill="black" r="3.75px" /><circle cx="588.0" cy="561.0" fill="black" r="3.75px" /><circle cx="588.0" cy="570.0" fill="black" r="3.75px" /><circle cx="588.0" cy="579.0" fill="black" r="3.75px" /><circle cx="588.0" cy="588.0" fill="black" r="3.75px" /><circle cx="588.0" cy="597.0" fill="black" r="3.75px" /><circle cx="588.0" cy="606.0" fill="black" r="3.75px" /><polyline marker-end="url(#arrow-head)" points="93.75,356.99999999999994 111.0,356.99999999999994 111.0,461.99999999999994 116.25,461.99999999999994" /><polyline marker-end="url(#arrow-head)" points="93.75,356.99999999999994 171.0,356.99999999999994 171.0,461.99999999999994 176.25,461.99999999999994" /><polyline marker-end="url(#arrow-head)" points="93.75,356.99999999999994 231.0,356.99999999999994 231.0,461.99999999999994 236.25,461.99999999999994" /><polyline marker-end="url(#arrow-head)" points="93.75,356.99999999999994 291.0,356.99999999999994 291.0,461.99999999999994 296.25,461.99999999999994" /><polyline marker-end="url(#arrow-head)" points="93.75,356.99999999999994 351.0,356.99999999999994 351.0,461.99999999999994 356.25,461.99999999999994" /><polyline marker-end="url(#arrow-head)" points="93.75,356.99999999999994 411.0,356.99999999999994 411.0,461.99999999999994 416.25,461.99999999999994" /><polyline marker-end="url(#arrow-head)" points="93.75,356.99999999999994 471.0,356.99999999999994 471.0,461.99999999999994 476.25,461.99999999999994" /><polyline marker-end="url(#arrow-head)" points="93.75,356.99999999999994 531.0,356.99999999999994 531.0,461.99999999999994 536.25,461.99999999999994" /><polyline marker-end="url(#arrow-head)" points="93.75,366.0 105.0,366.0 105.0,522.0 116.25,522.0" /><polyline marker-end="url(#arrow-head)" points="93.75,366.0 165.0,366.0 165.0,522.0 176.25,522.0" /><polyline marker-end="url(#arrow-head)" points="93.75,366.0 225.0,366.0 225.0,522.0 236.25,522.0" /><polyline marker-end="url(#arrow-head)" points="93.75,366.0 285.0,366.0 285.0,522.0 296.25,522.0" /><polyline marker-end="url(#arrow-head)" points="93.75,366.0 345.0,366.0 345.0,522.0 356.25,522.0" /><polyline marker-end="url(#arrow-head)" points="93.75,366.0 405.0,366.0 405.0,522.0 416.25,522.0" /><polyline marker-end="url(#arrow-head)" points="93.75,366.0 465.0,366.0 465.0,522.0 476.25,522.0" /><polyline marker-end="url(#arrow-head)" points="93.75,366.0 525.0,366.0 525.0,522.0 536.25,522.0" /><polyline marker-end="url(#arrow-head)" points="93.75,375.0 99.0,375.0 99.0,491.99999999999994 116.25,491.99999999999994" /><polyline marker-end="url(#arrow-head)" points="93.75,383.99999999999994 159.0,383.99999999999994 159.0,491.99999999999994 176.25,491.99999999999994" /><polyline marker-end="url(#arrow-head)" points="93.75,393.0 219.0,393.0 219.0,491.99999999999994 236.25,491.99999999999994" /><polyline marker-end="url(#arrow-head)" points="93.75,401.99999999999994 279.0,401.99999999999994 279.0,491.99999999999994 296.25,491.99999999999994" /><polyline marker-end="url(#arrow-head)" points="93.75,411.0 339.0,411.0 339.0,491.99999999999994 356.25,491.99999999999994" /><polyline marker-end="url(#arrow-head)" points="93.75,420.0 399.0,420.0 399.0,491.99999999999994 416.25,491.99999999999994" /><polyline marker-end="url(#arrow-head)" points="93.75,428.99999999999994 459.0,428.99999999999994 459.0,491.99999999999994 476.25,491.99999999999994" /><polyline marker-end="url(#arrow-head)" points="93.75,438.0 519.0,438.0 519.0,491.99999999999994 536.25,491.99999999999994" /><polyline marker-end="url(#arrow-head)" points="153.75,461.99999999999994 156.0,461.99999999999994 156.0,543.0 584.25,543.0" /><polyline marker-end="url(#arrow-head)" points="213.75,461.99999999999994 216.0,461.99999999999994 216.0,552.0 584.25,552.0" /><polyline marker-end="url(#arrow-head)" points="273.75,461.99999999999994 276.0,461.99999999999994 276.0,561.0 584.25,561.0" /><polyline marker-end="url(#arrow-head)" points="333.75,461.99999999999994 336.0,461.99999999999994 336.0,570.0 584.25,570.0" /><polyline marker-end="url(#arrow-head)" points="393.75,461.99999999999994 396.0,461.99999999999994 396.0,579.0 584.25,579.0" /><polyline marker-end="url(#arrow-head)" points="453.75,461.99999999999994 456.0,461.99999999999994 456.0,588.0 584.25,588.0" /><polyline marker-end="url(#arrow-head)" points="513.75,461.99999999999994 516.0,461.99999999999994 516.0,597.0 584.25,597.0" /><polyline marker-end="url(#arrow-head)" points="573.75,461.99999999999994 576.0,461.99999999999994 576.0,606.0 584.25,606.0" /><rect fill="white" height="3.5999999999999996" width="3.5999999999999996" x="349.2" y="355.19999999999993" /><rect fill="white" height="3.5999999999999996" width="3.5999999999999996" x="109.2" y="355.19999999999993" /><rect fill="white" height="3.5999999999999996" width="3.5999999999999996" x="394.2" y="577.2" /><rect fill="white" height="3.5999999999999996" width="3.5999999999999996" x="469.2" y="460.19999999999993" /><rect fill="white" height="3.5999999999999996" width="3.5999999999999996" x="343.2" y="364.2" /><rect fill="white" height="3.5999999999999996" width="3.5999999999999996" x="394.2" y="460.19999999999993" /><rect fill="white" height="3.5999999999999996" width="3.5999999999999996" x="283.2" y="520.2" /><rect fill="white" height="3.5999999999999996" width="3.5999999999999996" x="337.2" y="490.19999999999993" /><rect fill="white" height="3.5999999999999996" width="3.5999999999999996" x="103.2" y="364.2" /><rect fill="white" height="3.5999999999999996" width="3.5999999999999996" x="154.2" y="460.19999999999993" /><rect fill="white" height="3.5999999999999996" width="3.5999999999999996" x="409.2" y="460.19999999999993" /><rect fill="white" height="3.5999999999999996" width="3.5999999999999996" x="283.2" y="364.2" /><rect fill="white" height="3.5999999999999996" width="3.5999999999999996" x="523.2" y="520.2" /><rect fill="white" height="3.5999999999999996" width="3.5999999999999996" x="529.2" y="355.19999999999993" /><rect fill="white" height="3.5999999999999996" width="3.5999999999999996" x="289.2" y="355.19999999999993" /><rect fill="white" height="3.5999999999999996" width="3.5999999999999996" x="334.2" y="568.2" /><rect fill="white" height="3.5999999999999996" width="3.5999999999999996" x="97.2" y="490.19999999999993" /><rect fill="white" height="3.5999999999999996" width="3.5999999999999996" x="463.2" y="520.2" /><rect fill="white" height="3.5999999999999996" width="3.5999999999999996" x="517.2" y="490.19999999999993" /><rect fill="white" height="3.5999999999999996" width="3.5999999999999996" x="517.2" y="436.2" /><rect fill="white" height="3.5999999999999996" width="3.5999999999999996" x="334.2" y="460.19999999999993" /><rect fill="white" height="3.5999999999999996" width="3.5999999999999996" x="523.2" y="364.2" /><rect fill="white" height="3.5999999999999996" width="3.5999999999999996" x="169.2" y="460.19999999999993" /><rect fill="white" height="3.5999999999999996" width="3.5999999999999996" x="217.2" y="391.2" /><rect fill="white" height="3.5999999999999996" width="3.5999999999999996" x="229.2" y="355.19999999999993" /><rect fill="white" height="3.5999999999999996" width="3.5999999999999996" x="457.2" y="427.19999999999993" /><rect fill="white" height="3.5999999999999996" width="3.5999999999999996" x="574.2" y="460.19999999999993" /><rect fill="white" height="3.5999999999999996" width="3.5999999999999996" x="157.2" y="382.19999999999993" /><rect fill="white" height="3.5999999999999996" width="3.5999999999999996" x="574.2" y="604.2" /><rect fill="white" height="3.5999999999999996" width="3.5999999999999996" x="463.2" y="364.2" /><rect fill="white" height="3.5999999999999996" width="3.5999999999999996" x="469.2" y="355.19999999999993" /><rect fill="white" height="3.5999999999999996" width="3.5999999999999996" x="274.2" y="559.2" /><rect fill="white" height="3.5999999999999996" width="3.5999999999999996" x="223.2" y="520.2" /><rect fill="white" height="3.5999999999999996" width="3.5999999999999996" x="277.2" y="490.19999999999993" /><rect fill="white" height="3.5999999999999996" width="3.5999999999999996" x="157.2" y="490.19999999999993" /><rect fill="white" height="3.5999999999999996" width="3.5999999999999996" x="349.2" y="460.19999999999993" /><rect fill="white" height="3.5999999999999996" width="3.5999999999999996" x="409.2" y="355.19999999999993" /><rect fill="white" height="3.5999999999999996" width="3.5999999999999996" x="109.2" y="460.19999999999993" /><rect fill="white" height="3.5999999999999996" width="3.5999999999999996" x="217.2" y="490.19999999999993" /><rect fill="white" height="3.5999999999999996" width="3.5999999999999996" x="514.2" y="460.19999999999993" /><rect fill="white" height="3.5999999999999996" width="3.5999999999999996" x="223.2" y="364.2" /><rect fill="white" height="3.5999999999999996" width="3.5999999999999996" x="274.2" y="460.19999999999993" /><rect fill="white" height="3.5999999999999996" width="3.5999999999999996" x="514.2" y="595.2" /><rect fill="white" height="3.5999999999999996" width="3.5999999999999996" x="214.2" y="550.2" /><rect fill="white" height="3.5999999999999996" width="3.5999999999999996" x="403.2" y="520.2" /><rect fill="white" height="3.5999999999999996" width="3.5999999999999996" x="457.2" y="490.19999999999993" /><rect fill="white" height="3.5999999999999996" width="3.5999999999999996" x="454.2" y="586.2" /><rect fill="white" height="3.5999999999999996" width="3.5999999999999996" x="454.2" y="460.19999999999993" /><rect fill="white" height="3.5999999999999996" width="3.5999999999999996" x="163.2" y="520.2" /><rect fill="white" height="3.5999999999999996" width="3.5999999999999996" x="397.2" y="418.2" /><rect fill="white" height="3.5999999999999996" width="3.5999999999999996" x="169.2" y="355.19999999999993" /><rect fill="white" height="3.5999999999999996" width="3.5999999999999996" x="397.2" y="490.19999999999993" /><rect fill="white" height="3.5999999999999996" width="3.5999999999999996" x="529.2" y="460.19999999999993" /><rect fill="white" height="3.5999999999999996" width="3.5999999999999996" x="403.2" y="364.2" /><rect fill="white" height="3.5999999999999996" width="3.5999999999999996" x="289.2" y="460.19999999999993" /><rect fill="white" height="3.5999999999999996" width="3.5999999999999996" x="163.2" y="364.2" /><rect fill="white" height="3.5999999999999996" width="3.5999999999999996" x="154.2" y="541.2" /><rect fill="white" height="3.5999999999999996" width="3.5999999999999996" x="214.2" y="460.19999999999993" /><rect fill="white" height="3.5999999999999996" width="3.5999999999999996" x="337.2" y="409.2" /><rect fill="white" height="3.5999999999999996" width="3.5999999999999996" x="97.2" y="373.2" /><rect fill="white" height="3.5999999999999996" width="3.5999999999999996" x="229.2" y="460.19999999999993" /><rect fill="white" height="3.5999999999999996" width="3.5999999999999996" x="103.2" y="520.2" /><rect fill="white" height="3.5999999999999996" width="3.5999999999999996" x="277.2" y="400.19999999999993" /><rect fill="white" height="3.5999999999999996" width="3.5999999999999996" x="343.2" y="520.2" /></g><g fill="none" stroke="black" stroke-width="1"><rect height="672.0" width="618.0" x="0" y="0" /><circle cx="60" cy="30" r="15.0px" /><circle cx="60" cy="60" r="15.0px" /><circle cx="60" cy="360" r="15.0px" /><circle cx="60" cy="390" r="15.0px" /><circle cx="60" cy="90" r="15.0px" /><circle cx="60" cy="420" r="15.0px" /><circle cx="60" cy="120" r="15.0px" /><circle cx="60" cy="450" r="15.0px" /><circle cx="60" cy="150" r="15.0px" /><circle cx="60" cy="480" r="15.0px" /><circle cx="60" cy="180" r="15.0px" /><circle cx="60" cy="510" r="15.0px" /><circle cx="60" cy="210" r="15.0px" /><circle cx="60" cy="540" r="15.0px" /><circle cx="60" cy="240" r="15.0px" /><circle cx="60" cy="570" r="15.0px" /><circle cx="60" cy="270" r="15.0px" /><circle cx="60" cy="600" r="15.0px" /><circle cx="60" cy="300" r="15.0px" /><circle cx="60" cy="630" r="15.0px" /><circle cx="0" cy="15.0" r="3.75px" /><circle cx="0" cy="45.0" r="3.75px" /><circle cx="0" cy="75.0" r="3.75px" /><circle cx="0" cy="105.0" r="3.75px" /><circle cx="0" cy="135.0" r="3.75px" /><circle cx="0" cy="165.0" r="3.75px" /><circle cx="0" cy="195.0" r="3.75px" /><circle cx="0" cy="225.0" r="3.75px" /><circle cx="0" cy="255.0" r="3.75px" /><circle cx="0" cy="285.0" r="3.75px" /><circle cx="0" cy="315.0" r="3.75px" /><circle cx="0" cy="345.0" r="3.75px" /><circle cx="618.0" cy="15.0" fill="black" r="3.75px" /><circle cx="618.0" cy="45.0" fill="black" r="3.75px" /><circle cx="618.0" cy="75.0" fill="black" r="3.75px" /><circle cx="618.0" cy="105.0" fill="black" r="3.75px" /><circle cx="618.0" cy="135.0" fill="black" r="3.75px" /><circle cx="618.0" cy="165.0" fill="black" r="3.75px" /><circle cx="618.0" cy="195.0" fill="black" r="3.75px" /><circle cx="618.0" cy="225.0" fill="black" r="3.75px" /><line marker-end="url(#arrow-head)" x1="0.642529405317179" x2="57.429882378731286" y1="18.69454408057378" y2="345.2218236777049" /><line marker-end="url(#arrow-head)" x1="3.6380343755449944" x2="45.44786249782002" y1="15.90950859388625" y2="26.361965624455003" /><line marker-end="url(#arrow-head)" x1="3.6380343755449944" x2="45.44786249782002" y1="45.909508593886244" y2="56.361965624455" /><line marker-end="url(#arrow-head)" x1="0.642529405317179" x2="57.429882378731286" y1="48.69454408057378" y2="375.2218236777049" /><line marker-end="url(#arrow-head)" x1="0.642529405317179" x2="57.429882378731286" y1="78.69454408057378" y2="405.2218236777049" /><line marker-end="url(#arrow-head)" x1="3.6380343755449944" x2="45.44786249782002" y1="75.90950859388624" y2="86.36196562445501" /><line marker-end="url(#arrow-head)" x1="0.642529405317179" x2="57.429882378731286" y1="108.69454408057378" y2="435.2218236777049" /><line marker-end="url(#arrow-head)" x1="3.6380343755449944" x2="45.44786249782002" y1="105.90950859388624" y2="116.36196562445501" /><line marker-end="url(#arrow-head)" x1="3.6380343755449944" x2="45.44786249782002" y1="135.90950859388624" y2="146.361965624455" /><line marker-end="url(#arrow-head)" x1="0.642529405317179" x2="57.429882378731286" y1="138.69454408057376" y2="465.2218236777049" /><line marker-end="url(#arrow-head)" x1="0.642529405317179" x2="57.429882378731286" y1="168.69454408057376" y2="495.2218236777049" /><line marker-end="url(#arrow-head)" x1="3.6380343755449944" x2="45.44786249782002" y1="165.90950859388624" y2="176.361965624455" /><line marker-end="url(#arrow-head)" x1="3.6380343755449944" x2="45.44786249782002" y1="195.90950859388624" y2="206.361965624455" /><line marker-end="url(#arrow-head)" x1="0.642529405317179" x2="57.429882378731286" y1="198.69454408057376" y2="525.221823677705" /><line marker-end="url(#arrow-head)" x1="0.642529405317179" x2="57.429882378731286" y1="228.69454408057376" y2="555.221823677705" /><line marker-end="url(#arrow-head)" x1="3.6380343755449944" x2="45.44786249782002" y1="225.90950859388624" y2="236.361965624455" /><line marker-end="url(#arrow-head)" x1="3.6380343755449944" x2="45.44786249782002" y1="255.90950859388627" y2="266.361965624455" /><line marker-end="url(#arrow-head)" x1="0.642529405317179" x2="57.429882378731286" y1="258.6945440805738" y2="585.221823677705" /><line marker-end="url(#arrow-head)" x1="0.642529405317179" x2="57.429882378731286" y1="288.6945440805738" y2="615.221823677705" /><line marker-end="url(#arrow-head)" x1="3.6380343755449944" x2="45.44786249782002" y1="285.90950859388624" y2="296.361965624455" /><line marker-end="url(#arrow-head)" x1="3.0" x2="48.0" y1="317.25" y2="351.0" /><line marker-end="url(#arrow-head)" x1="1.1028219331407119" x2="55.58871226743716" y1="318.5841712827073" y2="495.6633148691708" /><line marker-end="url(#arrow-head)" x1="1.8605210188381265" x2="52.557915924647496" y1="318.25591178296673" y2="406.9763528681331" /><line marker-end="url(#arrow-head)" x1="2.3426064283290913" x2="50.629574286683635" y1="317.9282580354114" y2="378.2869678583545" /><line marker-end="url(#arrow-head)" x1="1.2815364865751415" x2="54.87385405369943" y1="318.52422533808164" y2="465.90309864767346" /><line marker-end="url(#arrow-head)" x1="0.7016704045874819" x2="57.19331838165007" y1="318.6837696240843" y2="615.2649215036629" /><line marker-end="url(#arrow-head)" x1="0.9662349396012466" x2="56.13506024159501" y1="318.6233810235047" y2="525.5064759059813" /><line marker-end="url(#arrow-head)" x1="1.5230192477004283" x2="53.907923009198285" y1="318.42679330732597" y2="436.29282677069614" /><line marker-end="url(#arrow-head)" x1="0.7725393039369075" x2="56.909842784252376" y1="318.6695616937003" y2="585.3217532251988" /><line marker-end="url(#arrow-head)" x1="0.8588975014708022" x2="56.56440999411679" y1="318.65031438125095" y2="555.3987424749963" /><line marker-end="url(#arrow-head)" x1="2.3426064283290913" x2="50.629574286683635" y1="342.0717419645886" y2="281.7130321416455" /><line marker-end="url(#arrow-head)" x1="1.8605210188381265" x2="52.557915924647496" y1="341.74408821703327" y2="253.02364713186688" /><line marker-end="url(#arrow-head)" x1="1.1028219331407119" x2="55.58871226743716" y1="341.4158287172927" y2="164.33668513082927" /><line marker-end="url(#arrow-head)" x1="0.9662349396012466" x2="56.13506024159501" y1="341.3766189764953" y2="134.4935240940187" /><line marker-end="url(#arrow-head)" x1="1.5230192477004283" x2="53.907923009198285" y1="341.57320669267403" y2="223.70717322930386" /><line marker-end="url(#arrow-head)" x1="3.0" x2="48.0" y1="342.75" y2="309.0" /><line marker-end="url(#arrow-head)" x1="0.7725393039369075" x2="56.909842784252376" y1="341.3304383062997" y2="74.67824677480122" /><line marker-end="url(#arrow-head)" x1="0.8588975014708022" x2="56.56440999411679" y1="341.34968561874905" y2="104.60125752500363" /><line marker-end="url(#arrow-head)" x1="0.7016704045874819" x2="57.19331838165007" y1="341.3162303759157" y2="44.73507849633712" /><line marker-end="url(#arrow-head)" x1="1.2815364865751415" x2="54.87385405369943" y1="341.47577466191836" y2="194.09690135232657" /><line marker-end="url(#arrow-head)" x1="588.2127250876828" x2="617.7872749123173" y1="539.2560384567854" y2="18.743961543214674" /><line marker-end="url(#arrow-head)" x1="588.5378590211959" x2="617.4621409788042" y1="218.2887727537487" y2="18.711227246251333" /><line marker-end="url(#arrow-head)" x1="588.5971216455924" x2="617.4028783544077" y1="227.29784579732757" y2="48.70215420267243" /><line marker-end="url(#arrow-head)" x1="588.2215060528292" x2="617.7784939471709" y1="548.2565477071879" y2="48.74345229281209" /><line marker-end="url(#arrow-head)" x1="588.2310417199203" x2="617.7689582800797" y1="557.2571241372901" y2="78.74287586270988" /><line marker-end="url(#arrow-head)" x1="588.67082039325" x2="617.3291796067501" y1="236.31048783712535" y2="78.68951216287466" /><line marker-end="url(#arrow-head)" x1="588.76482845292" x2="617.23517154708" y1="245.32882342598398" y2="108.67117657401603" /><line marker-end="url(#arrow-head)" x1="588.2414335424924" x2="617.7585664575076" y1="566.2577800913683" y2="108.74221990863172" /><line marker-end="url(#arrow-head)" x1="588.2528019674713" x2="617.7471980325288" y1="575.258530881426" y2="138.74146911857397" /><line marker-end="url(#arrow-head)" x1="588.8885856757164" x2="617.1114143242837" y1="254.35679872956328" y2="138.64320127043675" /><line marker-end="url(#arrow-head)" x1="589.0581237149684" x2="616.9418762850316" y1="263.40237936910773" y2="168.59762063089227" /><line marker-end="url(#arrow-head)" x1="588.2652910861533" x2="617.7347089138468" y1="584.2593956852392" y2="168.74060431476087" /><line marker-end="url(#arrow-head)" x1="589.3024288343385" x2="616.6975711656617" y1="272.4834421472861" y2="198.5165578527139" /><line marker-end="url(#arrow-head)" x1="588.2790747180811" x2="617.720925281919" y1="593.2603987777134" y2="198.7396012222867" /><line marker-end="url(#arrow-head)" x1="589.6770509831249" x2="616.3229490168752" y1="281.6458980337503" y2="228.3541019662497" /><line marker-end="url(#arrow-head)" x1="588.2943644689316" x2="617.7056355310684" y1="602.2615712445693" y2="228.73842875543062" /><line marker-end="url(#arrow-head)" x1="74.7087101353638" x2="86.32282246615905" y1="32.94174202707276" y2="35.26456449323181" /><line marker-end="url(#arrow-head)" x1="73.41640786499873" x2="86.64589803375031" y1="53.291796067500634" y2="46.67705098312484" /><line marker-end="url(#arrow-head)" x1="69.6027659949672" x2="87.5993085012582" y1="78.47668080603935" y2="56.880829798490154" /><line marker-end="url(#arrow-head)" x1="66.98619649248934" x2="88.25345087687766" y1="106.72622666427027" y2="66.31844333393244" /><line marker-end="url(#arrow-head)" x1="65.38468618963304" x2="88.65382845259174" y1="135.9998159069541" y2="75.50004602326146" /><line marker-end="url(#arrow-head)" x1="64.35011092924306" x2="88.91247226768924" y1="165.6446339334979" y2="84.58884151662552" /><line marker-end="url(#arrow-head)" x1="63.638034375545" x2="89.09049140611376" y1="195.44786249782" y2="93.63803437554499" /><line marker-end="url(#arrow-head)" x1="63.121614666972874" x2="89.21959633325677" y1="225.32841106522747" y2="102.66789723369313" /><line marker-end="url(#arrow-head)" x1="62.731338902734606" x2="89.31716527431634" y1="255.2507699252331" y2="111.68730751869171" /><line marker-end="url(#arrow-head)" x1="62.426625405997214" x2="89.3933436485007" y1="285.197585023417" y2="120.70060374414578" /><line marker-end="url(#arrow-head)" x1="74.92555785314984" x2="86.26861053671254" y1="358.507444214685" y2="357.3731389463287" /><line marker-end="url(#arrow-head)" x1="71.71303214164544" x2="87.07174196458863" y1="380.62957428668363" y2="368.3426064283291" /><line marker-end="url(#arrow-head)" x1="68.32050294337844" x2="87.91987426415538" y1="407.5192455849323" y2="378.1201886037669" /><line marker-end="url(#arrow-head)" x1="66.20704416451775" x2="88.44823895887056" y1="436.3445028380609" y2="387.4138742904847" /><line marker-end="url(#arrow-head)" x1="64.88986024979106" x2="88.77753493755223" y1="465.81940527560596" y2="396.5451486810985" /><line marker-end="url(#arrow-head)" x1="64.01465795679142" x2="88.99633551080214" y1="495.5472313555509" y2="405.61319216111224" /><line marker-end="url(#arrow-head)" x1="63.397702419904164" x2="89.15057439502395" y1="525.389879594412" y2="414.65253010139696" /><line marker-end="url(#arrow-head)" x1="62.94174202707276" x2="89.26456449323182" y1="555.2912898646362" y2="423.67717753384096" /><line marker-end="url(#arrow-head)" x1="62.59199217012188" x2="89.35200195746953" y1="585.2256446303053" y2="432.69358884242365" /><line marker-end="url(#arrow-head)" x1="62.315653204104144" x2="89.42108669897397" y1="615.1798194937335" y2="441.70504512656663" /></g></svg>